<?xml version="1.0" encoding="UTF-8"?>
<!DOCTYPE svg PUBLIC "-//W3C//DTD SVG 1.1//EN" "http://www.w3.org/Graphics/SVG/1.1/DTD/svg11.dtd">
<!-- Creator: CorelDRAW 2020 (64 Bit) -->
<svg xmlns="http://www.w3.org/2000/svg" xml:space="preserve" width="32.2016mm" height="22.0218mm" version="1.1" style="shape-rendering:geometricPrecision; text-rendering:geometricPrecision; image-rendering:optimizeQuality; fill-rule:evenodd; clip-rule:evenodd"
viewBox="0 0 159.52 109.09"
 xmlns:xlink="http://www.w3.org/1999/xlink"
 xmlns:xodm="http://www.corel.com/coreldraw/odm/2003">
 <defs>
  <style type="text/css">
   <![CDATA[
    .fil0 {fill:#A8518A;fill-rule:nonzero}
   ]]>
  </style>
 </defs>
 <g id="Camada_x0020_1">
  <metadata id="CorelCorpID_0Corel-Layer"/>
  <g id="_1878988820912">
   <g>
    <path class="fil0" d="M139.69 71.64l-0.27 2.14 0.08 0.01 -2.69 -0.14 -2.68 -0.12 -2.67 -0.12 -2.66 -0.11 -2.66 -0.1 -2.65 -0.09 -2.64 -0.08 -2.63 -0.07 -2.62 -0.06 -2.61 -0.05 -2.61 -0.04 -2.6 -0.03 -2.59 -0.02 -2.58 -0.01 -2.57 -0 -2.57 0 -2.56 0.01 -2.55 0.02 -2.54 0.03 -2.54 0.04 -2.53 0.04 -2.52 0.05 -2.52 0.06 -2.51 0.07 -2.5 0.08 -2.5 0.08 -2.49 0.09 -2.48 0.1 -2.48 0.1 -2.47 0.11 -2.46 0.12 -2.46 0.12 -0.11 -2.16 2.46 -0.12 2.47 -0.12 2.48 -0.11 2.48 -0.1 2.49 -0.1 2.5 -0.09 2.5 -0.08 2.51 -0.08 2.52 -0.07 2.52 -0.06 2.53 -0.05 2.54 -0.04 2.54 -0.04 2.55 -0.03 2.56 -0.02 2.57 -0.01 2.57 -0 2.58 0 2.59 0.01 2.6 0.02 2.6 0.03 2.61 0.04 2.62 0.05 2.63 0.06 2.64 0.07 2.65 0.08 2.65 0.09 2.66 0.1 2.67 0.11 2.68 0.12 2.69 0.13 2.7 0.14 0.08 0.01zm-0.08 -0.01l0.04 0 0.04 0 -0.08 -0.01zm18.71 10.33l-1.41 -1.63 -0.14 0.14 0.19 -0.25 0.15 -0.23 0.11 -0.21 0.08 -0.19 0.05 -0.17 0.02 -0.15 0 -0.13 -0.02 -0.13 -0.04 -0.13 -0.07 -0.15 -0.11 -0.17 -0.16 -0.19 -0.22 -0.21 -0.28 -0.22 -0.34 -0.23 -0.4 -0.24 -0.47 -0.24 -0.54 -0.24 -0.61 -0.24 -0.68 -0.24 -0.75 -0.24 -0.82 -0.24 -0.89 -0.24 -0.97 -0.24 -1.04 -0.23 -1.12 -0.23 -1.2 -0.23 -1.28 -0.22 -1.36 -0.22 -1.44 -0.22 -1.53 -0.21 -1.61 -0.21 0.27 -2.14 1.64 0.21 1.55 0.22 1.47 0.22 1.39 0.22 1.31 0.23 1.23 0.23 1.15 0.24 1.08 0.24 1.01 0.25 0.94 0.25 0.87 0.26 0.81 0.26 0.75 0.27 0.68 0.27 0.63 0.28 0.57 0.29 0.52 0.3 0.47 0.32 0.42 0.33 0.37 0.35 0.32 0.37 0.26 0.4 0.2 0.42 0.14 0.44 0.07 0.45 0 0.45 -0.06 0.44 -0.12 0.43 -0.17 0.41 -0.21 0.39 -0.24 0.37 -0.27 0.36 -0.14 0.14zm0.14 -0.14l-0.06 0.08 -0.08 0.06 0.14 -0.14zm-20.88 1.61l0.05 -2.16 0 0 0.71 0.03 0.7 0.04 0.7 0.06 0.7 0.07 0.69 0.08 0.69 0.09 0.68 0.1 0.67 0.1 0.67 0.1 0.66 0.1 0.66 0.1 0.65 0.09 0.64 0.09 0.64 0.08 0.63 0.07 0.62 0.06 0.61 0.04 0.6 0.03 0.59 0.01 0.58 -0.01 0.57 -0.03 0.56 -0.06 0.55 -0.08 0.54 -0.11 0.53 -0.13 0.52 -0.16 0.51 -0.19 0.5 -0.23 0.49 -0.26 0.48 -0.3 0.48 -0.34 0.47 -0.38 1.41 1.63 -0.58 0.47 -0.59 0.42 -0.6 0.37 -0.61 0.33 -0.62 0.28 -0.63 0.24 -0.64 0.2 -0.64 0.16 -0.65 0.13 -0.65 0.09 -0.65 0.06 -0.66 0.04 -0.66 0.01 -0.66 -0.01 -0.66 -0.03 -0.66 -0.05 -0.66 -0.06 -0.66 -0.07 -0.66 -0.08 -0.66 -0.09 -0.67 -0.1 -0.66 -0.1 -0.66 -0.1 -0.66 -0.1 -0.66 -0.1 -0.66 -0.09 -0.66 -0.09 -0.66 -0.08 -0.66 -0.07 -0.66 -0.05 -0.65 -0.04 -0.65 -0.02 0 0zm-79.41 1.12l-0.12 -2.15 0 0 2.49 -0.14 2.49 -0.13 2.49 -0.12 2.49 -0.12 2.49 -0.11 2.49 -0.1 2.49 -0.09 2.49 -0.09 2.49 -0.08 2.49 -0.07 2.49 -0.07 2.49 -0.06 2.49 -0.05 2.49 -0.05 2.49 -0.04 2.49 -0.03 2.49 -0.03 2.49 -0.02 2.49 -0.02 2.49 -0.01 2.49 -0 2.49 0 2.49 0.01 2.49 0.01 2.49 0.02 2.49 0.02 2.49 0.03 2.49 0.04 2.49 0.04 2.49 0.04 2.49 0.05 2.49 0.05 -0.05 2.16 -2.48 -0.05 -2.48 -0.05 -2.48 -0.04 -2.48 -0.04 -2.48 -0.03 -2.48 -0.03 -2.48 -0.02 -2.48 -0.02 -2.48 -0.01 -2.48 -0.01 -2.48 -0 -2.48 0 -2.48 0.01 -2.48 0.02 -2.48 0.02 -2.48 0.03 -2.48 0.03 -2.48 0.04 -2.48 0.05 -2.48 0.05 -2.48 0.06 -2.48 0.07 -2.48 0.07 -2.48 0.08 -2.48 0.09 -2.48 0.09 -2.48 0.1 -2.48 0.11 -2.48 0.12 -2.48 0.12 -2.48 0.13 -2.48 0.14 0 0zm-58.16 3.61l2.15 -0.23 0 0 -0.68 -0.85 0.27 0.02 0.65 0.01 0.92 -0.02 1.17 -0.05 1.38 -0.07 1.58 -0.1 1.76 -0.12 1.92 -0.14 2.06 -0.16 2.18 -0.18 2.29 -0.19 2.38 -0.21 2.45 -0.22 2.5 -0.22 2.53 -0.23 2.55 -0.23 2.55 -0.24 2.52 -0.24 2.49 -0.23 2.43 -0.23 2.36 -0.22 2.27 -0.21 2.16 -0.2 2.03 -0.19 1.89 -0.18 1.72 -0.16 1.54 -0.14 1.35 -0.12 1.13 -0.1 0.9 -0.07 0.66 -0.04 0.12 2.15 -0.62 0.04 -0.88 0.07 -1.12 0.1 -1.34 0.12 -1.54 0.14 -1.72 0.16 -1.88 0.18 -2.03 0.19 -2.16 0.2 -2.27 0.21 -2.36 0.22 -2.43 0.23 -2.49 0.23 -2.53 0.24 -2.55 0.24 -2.55 0.24 -2.53 0.23 -2.5 0.22 -2.45 0.22 -2.38 0.21 -2.29 0.19 -2.19 0.18 -2.07 0.16 -1.93 0.14 -1.77 0.12 -1.6 0.1 -1.41 0.07 -1.2 0.05 -0.99 0.02 -0.77 -0.02 -0.62 -0.07 -1 -1.02 0 0zm18.28 -12.2l0.72 2.03 0 0 -0.7 0.25 -0.71 0.26 -0.72 0.27 -0.74 0.28 -0.74 0.29 -0.75 0.3 -0.75 0.31 -0.75 0.32 -0.75 0.33 -0.74 0.33 -0.73 0.34 -0.72 0.34 -0.71 0.35 -0.69 0.35 -0.67 0.36 -0.65 0.36 -0.63 0.36 -0.6 0.36 -0.57 0.36 -0.54 0.36 -0.5 0.36 -0.46 0.35 -0.42 0.35 -0.38 0.34 -0.33 0.33 -0.28 0.32 -0.22 0.3 -0.17 0.28 -0.12 0.25 -0.07 0.21 -0.03 0.18 0 0.16 -2.15 0.23 -0.01 -0.54 0.08 -0.53 0.16 -0.51 0.23 -0.48 0.28 -0.46 0.33 -0.44 0.37 -0.43 0.42 -0.42 0.45 -0.41 0.49 -0.41 0.53 -0.4 0.56 -0.4 0.59 -0.39 0.62 -0.39 0.64 -0.39 0.67 -0.38 0.69 -0.38 0.71 -0.37 0.72 -0.37 0.74 -0.36 0.75 -0.36 0.76 -0.35 0.76 -0.34 0.77 -0.33 0.77 -0.33 0.77 -0.32 0.77 -0.31 0.76 -0.3 0.75 -0.29 0.74 -0.28 0.73 -0.27 0.71 -0.26 0 0zm38.97 -4.24l0.11 2.16 0 0 -1.08 0.05 -1.11 0.05 -1.14 0.05 -1.16 0.05 -1.19 0.04 -1.21 0.05 -1.23 0.05 -1.24 0.05 -1.26 0.05 -1.27 0.05 -1.28 0.06 -1.29 0.06 -1.29 0.07 -1.3 0.07 -1.3 0.08 -1.3 0.09 -1.29 0.1 -1.29 0.11 -1.28 0.12 -1.27 0.13 -1.26 0.14 -1.24 0.16 -1.23 0.17 -1.21 0.18 -1.18 0.2 -1.16 0.22 -1.13 0.23 -1.11 0.25 -1.07 0.27 -1.04 0.29 -1 0.31 -0.97 0.33 -0.72 -2.03 1.03 -0.35 1.06 -0.32 1.09 -0.3 1.12 -0.28 1.15 -0.26 1.17 -0.24 1.2 -0.22 1.22 -0.21 1.24 -0.19 1.25 -0.17 1.27 -0.16 1.28 -0.15 1.29 -0.13 1.3 -0.12 1.3 -0.11 1.31 -0.1 1.31 -0.09 1.31 -0.08 1.31 -0.07 1.3 -0.07 1.3 -0.06 1.29 -0.06 1.28 -0.05 1.26 -0.05 1.25 -0.05 1.23 -0.05 1.21 -0.05 1.18 -0.04 1.16 -0.05 1.13 -0.05 1.1 -0.05 1.07 -0.05 0 0z"/>
   </g>
   <g>
    <path class="fil0" d="M41.98 24.5l1.62 1.42 0 0 -0.87 1.01 -0.85 1.05 -0.84 1.08 -0.82 1.11 -0.8 1.15 -0.79 1.18 -0.77 1.21 -0.76 1.25 -0.74 1.28 -0.72 1.32 -0.71 1.35 -0.69 1.39 -0.67 1.42 -0.66 1.46 -0.64 1.5 -0.62 1.53 -0.61 1.57 -0.59 1.61 -0.57 1.64 -0.55 1.68 -0.54 1.72 -0.52 1.76 -0.5 1.79 -0.48 1.83 -0.46 1.87 -0.45 1.91 -0.43 1.95 -0.41 1.99 -0.39 2.03 -0.37 2.07 -0.35 2.11 -0.33 2.15 -2.14 -0.32 0.33 -2.17 0.35 -2.13 0.37 -2.09 0.39 -2.05 0.41 -2.02 0.43 -1.98 0.45 -1.94 0.47 -1.9 0.49 -1.86 0.51 -1.82 0.53 -1.79 0.55 -1.75 0.56 -1.71 0.58 -1.68 0.6 -1.64 0.62 -1.6 0.64 -1.57 0.66 -1.53 0.68 -1.5 0.69 -1.46 0.71 -1.43 0.73 -1.39 0.75 -1.36 0.76 -1.32 0.78 -1.29 0.8 -1.25 0.82 -1.22 0.83 -1.19 0.85 -1.15 0.87 -1.12 0.88 -1.09 0.9 -1.05 0 0zm28.88 -15.32l0.45 2.11 0 0 -1.15 0.25 -1.12 0.25 -1.09 0.25 -1.06 0.25 -1.03 0.25 -1.01 0.26 -0.98 0.27 -0.96 0.27 -0.93 0.28 -0.91 0.29 -0.89 0.31 -0.87 0.32 -0.86 0.33 -0.84 0.35 -0.82 0.37 -0.81 0.39 -0.8 0.41 -0.79 0.43 -0.78 0.45 -0.77 0.48 -0.77 0.5 -0.76 0.53 -0.76 0.56 -0.76 0.59 -0.76 0.62 -0.76 0.66 -0.76 0.69 -0.77 0.73 -0.77 0.77 -0.78 0.81 -0.79 0.85 -0.8 0.89 -1.62 -1.42 0.82 -0.92 0.82 -0.88 0.81 -0.84 0.81 -0.8 0.8 -0.76 0.8 -0.73 0.8 -0.69 0.8 -0.66 0.8 -0.62 0.81 -0.59 0.81 -0.56 0.82 -0.53 0.82 -0.51 0.83 -0.48 0.84 -0.46 0.85 -0.43 0.86 -0.41 0.87 -0.39 0.89 -0.37 0.9 -0.35 0.91 -0.33 0.93 -0.32 0.95 -0.31 0.97 -0.29 0.99 -0.28 1.01 -0.27 1.03 -0.27 1.05 -0.26 1.08 -0.25 1.1 -0.25 1.13 -0.25 1.16 -0.25 0 0zm58.28 11.75l-1.54 1.51 0.1 0.09 -1.46 -1.13 -1.48 -1.08 -1.5 -1.03 -1.52 -0.98 -1.54 -0.93 -1.56 -0.88 -1.57 -0.82 -1.59 -0.77 -1.61 -0.72 -1.63 -0.67 -1.65 -0.62 -1.67 -0.57 -1.69 -0.52 -1.71 -0.47 -1.73 -0.42 -1.75 -0.37 -1.77 -0.32 -1.79 -0.27 -1.81 -0.22 -1.83 -0.17 -1.85 -0.13 -1.87 -0.08 -1.89 -0.03 -1.91 0.02 -1.93 0.07 -1.95 0.12 -1.97 0.17 -1.99 0.22 -2.01 0.27 -2.03 0.32 -2.05 0.37 -2.07 0.42 -0.45 -2.11 2.11 -0.43 2.1 -0.38 2.08 -0.33 2.06 -0.28 2.04 -0.23 2.02 -0.18 2 -0.12 1.98 -0.07 1.97 -0.02 1.95 0.03 1.93 0.08 1.91 0.13 1.89 0.18 1.87 0.23 1.85 0.28 1.83 0.34 1.81 0.39 1.79 0.44 1.77 0.49 1.75 0.54 1.73 0.59 1.71 0.65 1.69 0.7 1.67 0.75 1.65 0.8 1.63 0.85 1.61 0.91 1.59 0.96 1.57 1.01 1.55 1.06 1.53 1.12 1.51 1.17 0.1 0.09zm-0.1 -0.09l0.05 0.04 0.05 0.05 -0.1 -0.09zm22.34 55.06l0.56 -2.09 -1.36 1.02 0.02 -1.74 -0.03 -1.73 -0.08 -1.72 -0.12 -1.72 -0.17 -1.71 -0.22 -1.7 -0.26 -1.7 -0.31 -1.69 -0.36 -1.68 -0.4 -1.68 -0.45 -1.67 -0.5 -1.66 -0.55 -1.66 -0.59 -1.65 -0.64 -1.65 -0.69 -1.64 -0.74 -1.63 -0.79 -1.63 -0.83 -1.62 -0.88 -1.61 -0.93 -1.61 -0.98 -1.6 -1.03 -1.6 -1.08 -1.59 -1.13 -1.58 -1.18 -1.58 -1.23 -1.57 -1.27 -1.56 -1.32 -1.56 -1.37 -1.55 -1.42 -1.54 -1.47 -1.54 1.54 -1.51 1.5 1.57 1.45 1.58 1.4 1.58 1.35 1.59 1.3 1.6 1.25 1.61 1.2 1.61 1.15 1.62 1.1 1.63 1.06 1.64 1.01 1.65 0.96 1.65 0.91 1.66 0.86 1.67 0.81 1.68 0.76 1.68 0.71 1.69 0.66 1.7 0.61 1.71 0.56 1.71 0.52 1.72 0.47 1.73 0.42 1.74 0.37 1.74 0.32 1.75 0.27 1.76 0.22 1.76 0.17 1.77 0.13 1.78 0.08 1.78 0.03 1.79 -0.02 1.8 -1.36 1.02zm1.36 -1.02l-0.03 1.37 -1.32 -0.35 1.36 -1.02zm-13.24 -1.09l0.11 -2.16 0.08 0.01 0.49 0.06 0.48 0.06 0.48 0.06 0.47 0.06 0.46 0.06 0.45 0.06 0.45 0.06 0.44 0.06 0.43 0.06 0.43 0.07 0.42 0.07 0.41 0.07 0.41 0.07 0.4 0.07 0.39 0.07 0.38 0.07 0.38 0.07 0.37 0.07 0.36 0.07 0.36 0.07 0.35 0.07 0.35 0.07 0.34 0.07 0.33 0.07 0.33 0.07 0.32 0.07 0.31 0.07 0.31 0.07 0.3 0.07 0.29 0.07 0.29 0.07 0.28 0.07 -0.56 2.09 -0.27 -0.07 -0.27 -0.07 -0.28 -0.07 -0.29 -0.07 -0.29 -0.07 -0.3 -0.07 -0.31 -0.07 -0.31 -0.07 -0.32 -0.07 -0.33 -0.07 -0.33 -0.07 -0.34 -0.07 -0.35 -0.07 -0.35 -0.07 -0.36 -0.07 -0.37 -0.07 -0.38 -0.07 -0.38 -0.07 -0.39 -0.07 -0.4 -0.06 -0.4 -0.06 -0.41 -0.06 -0.42 -0.06 -0.43 -0.06 -0.43 -0.06 -0.44 -0.06 -0.45 -0.06 -0.46 -0.06 -0.46 -0.06 -0.47 -0.06 -0.48 -0.06 -0.49 -0.06 0.08 0.01zm0.11 -2.16l0.04 0 0.04 0 -0.08 -0.01zm-82.25 2.26l-0.11 -2.16 0 0 2.46 -0.12 2.47 -0.12 2.48 -0.11 2.48 -0.1 2.49 -0.1 2.5 -0.09 2.5 -0.08 2.51 -0.08 2.52 -0.07 2.52 -0.06 2.53 -0.05 2.54 -0.04 2.54 -0.04 2.55 -0.03 2.56 -0.02 2.57 -0.01 2.57 -0 2.58 0 2.59 0.01 2.6 0.02 2.6 0.03 2.61 0.04 2.62 0.05 2.63 0.06 2.64 0.07 2.65 0.08 2.65 0.09 2.66 0.1 2.67 0.11 2.68 0.12 2.69 0.13 2.7 0.14 -0.11 2.16 -2.69 -0.14 -2.68 -0.12 -2.67 -0.12 -2.66 -0.11 -2.66 -0.1 -2.65 -0.09 -2.64 -0.08 -2.63 -0.07 -2.62 -0.06 -2.61 -0.05 -2.61 -0.04 -2.6 -0.03 -2.59 -0.02 -2.58 -0.01 -2.57 -0 -2.57 0 -2.56 0.01 -2.55 0.02 -2.54 0.03 -2.54 0.04 -2.53 0.04 -2.52 0.05 -2.52 0.06 -2.51 0.07 -2.5 0.08 -2.5 0.08 -2.49 0.09 -2.48 0.1 -2.48 0.1 -2.47 0.11 -2.46 0.12 -2.46 0.12 0 0zm-35.29 2.31l1.93 -0.97 -1.21 -0.57 1 -0.22 1.02 -0.21 1.04 -0.2 1.05 -0.18 1.07 -0.17 1.08 -0.16 1.1 -0.15 1.1 -0.14 1.11 -0.13 1.12 -0.12 1.13 -0.11 1.13 -0.1 1.14 -0.09 1.14 -0.08 1.14 -0.08 1.14 -0.07 1.14 -0.06 1.13 -0.06 1.13 -0.06 1.12 -0.05 1.11 -0.05 1.1 -0.05 1.09 -0.04 1.08 -0.04 1.07 -0.04 1.05 -0.04 1.04 -0.04 1.02 -0.04 1 -0.04 0.98 -0.04 0.95 -0.04 0.93 -0.05 0.11 2.16 -0.94 0.05 -0.96 0.04 -0.98 0.04 -1 0.04 -1.02 0.04 -1.04 0.04 -1.05 0.04 -1.07 0.04 -1.08 0.04 -1.09 0.04 -1.1 0.05 -1.11 0.05 -1.12 0.05 -1.12 0.06 -1.12 0.06 -1.13 0.06 -1.13 0.07 -1.13 0.08 -1.13 0.08 -1.12 0.09 -1.12 0.1 -1.11 0.11 -1.1 0.11 -1.09 0.12 -1.08 0.13 -1.07 0.14 -1.06 0.16 -1.04 0.17 -1.02 0.18 -1.01 0.19 -0.99 0.2 -0.96 0.22 -1.21 -0.57zm1.21 0.57l-0.83 0.19 -0.38 -0.76 1.21 0.57zm0.72 -1.53l0 0 -1.93 0.97 -0 -0 -0.1 -0.64 2.03 -0.32zm-1.93 0.97l-0.15 -0.3 0.05 -0.34 0.1 0.64zm126.42 30.98l-2.93 -23.61 2.14 -0.27 2.93 23.61 -1.04 1.21 -1.1 -0.95zm2.14 -0.27l0.15 1.18 -1.19 0.03 1.04 -1.21zm-21.67 1.78l-0.42 -2.12 0.18 -0.02 0.65 -0.02 0.65 -0.02 0.65 -0.02 0.65 -0.02 0.65 -0.02 0.65 -0.02 0.65 -0.02 0.65 -0.02 0.65 -0.02 0.65 -0.02 0.65 -0.02 0.65 -0.02 0.65 -0.02 0.65 -0.02 0.65 -0.02 0.65 -0.02 0.65 -0.02 0.65 -0.02 0.65 -0.02 0.65 -0.02 0.65 -0.02 0.65 -0.02 0.65 -0.02 0.65 -0.02 0.65 -0.02 0.65 -0.02 0.65 -0.02 0.65 -0.02 0.65 -0.02 0.65 -0.02 0.65 -0.02 0.65 -0.02 0.06 2.16 -0.65 0.02 -0.65 0.02 -0.65 0.02 -0.65 0.02 -0.65 0.02 -0.65 0.02 -0.65 0.02 -0.65 0.02 -0.65 0.02 -0.65 0.02 -0.65 0.02 -0.65 0.02 -0.65 0.02 -0.65 0.02 -0.65 0.02 -0.65 0.02 -0.65 0.02 -0.65 0.02 -0.65 0.02 -0.65 0.02 -0.65 0.02 -0.65 0.02 -0.65 0.02 -0.65 0.02 -0.65 0.02 -0.65 0.02 -0.65 0.02 -0.65 0.02 -0.65 0.02 -0.65 0.02 -0.65 0.02 -0.65 0.02 0.18 -0.02zm-0.42 -2.12l0.09 -0.02 0.09 -0 -0.18 0.02zm-15.26 -4.31l1.89 -1.04 -0.1 -0.16 0.46 0.56 0.46 0.53 0.46 0.49 0.45 0.46 0.45 0.43 0.44 0.4 0.44 0.37 0.43 0.34 0.43 0.31 0.43 0.28 0.42 0.26 0.42 0.23 0.42 0.21 0.41 0.18 0.41 0.16 0.41 0.14 0.41 0.12 0.41 0.1 0.41 0.09 0.4 0.07 0.4 0.05 0.4 0.04 0.4 0.02 0.4 0.01 0.41 -0 0.41 -0.02 0.41 -0.03 0.41 -0.04 0.41 -0.05 0.41 -0.06 0.41 -0.07 0.42 -0.08 0.42 2.12 -0.45 0.08 -0.46 0.08 -0.46 0.07 -0.46 0.06 -0.47 0.05 -0.47 0.03 -0.47 0.02 -0.48 0.01 -0.48 -0.01 -0.48 -0.03 -0.48 -0.05 -0.49 -0.06 -0.49 -0.08 -0.49 -0.1 -0.49 -0.13 -0.49 -0.15 -0.5 -0.17 -0.49 -0.2 -0.5 -0.22 -0.5 -0.25 -0.5 -0.27 -0.5 -0.3 -0.5 -0.33 -0.5 -0.36 -0.5 -0.39 -0.5 -0.41 -0.5 -0.45 -0.5 -0.48 -0.5 -0.51 -0.5 -0.54 -0.5 -0.57 -0.5 -0.61 -0.1 -0.16zm0.1 0.16l-0.06 -0.07 -0.05 -0.08 0.1 0.16zm-21.87 -14.12l-0.1 -2.16 0.02 -0 0.88 -0.01 0.87 0.02 0.86 0.04 0.86 0.07 0.85 0.1 0.84 0.13 0.84 0.16 0.83 0.19 0.82 0.22 0.81 0.25 0.8 0.28 0.8 0.31 0.79 0.34 0.78 0.37 0.77 0.41 0.76 0.44 0.75 0.47 0.74 0.51 0.73 0.54 0.72 0.57 0.7 0.61 0.69 0.64 0.68 0.68 0.67 0.72 0.66 0.75 0.65 0.79 0.63 0.82 0.62 0.86 0.61 0.9 0.6 0.94 0.58 0.97 0.57 1.01 -1.89 1.04 -0.55 -0.96 -0.55 -0.92 -0.56 -0.89 -0.57 -0.85 -0.58 -0.81 -0.59 -0.77 -0.6 -0.73 -0.61 -0.7 -0.62 -0.66 -0.63 -0.63 -0.64 -0.59 -0.64 -0.56 -0.65 -0.53 -0.66 -0.49 -0.67 -0.46 -0.68 -0.43 -0.69 -0.4 -0.69 -0.37 -0.7 -0.34 -0.71 -0.31 -0.72 -0.28 -0.73 -0.25 -0.74 -0.22 -0.74 -0.2 -0.75 -0.17 -0.76 -0.14 -0.77 -0.12 -0.78 -0.09 -0.79 -0.06 -0.8 -0.04 -0.8 -0.01 -0.81 0.01 0.02 -0zm-0.1 -2.16l0.02 -0 0.01 0 -0.02 0zm-38.1 3.03l2.13 -0.37 -1.11 -0.89 1.16 -0.05 1.16 -0.06 1.16 -0.05 1.16 -0.06 1.16 -0.05 1.16 -0.06 1.16 -0.05 1.16 -0.06 1.16 -0.05 1.16 -0.05 1.16 -0.06 1.16 -0.05 1.16 -0.06 1.16 -0.05 1.16 -0.06 1.16 -0.05 1.16 -0.05 1.16 -0.06 1.16 -0.05 1.16 -0.06 1.16 -0.05 1.16 -0.06 1.16 -0.05 1.16 -0.05 1.16 -0.06 1.16 -0.05 1.16 -0.06 1.16 -0.05 1.16 -0.06 1.16 -0.05 1.16 -0.06 1.16 -0.05 0.1 2.16 -1.16 0.05 -1.16 0.06 -1.16 0.05 -1.16 0.06 -1.16 0.05 -1.16 0.06 -1.16 0.05 -1.16 0.06 -1.16 0.05 -1.16 0.05 -1.16 0.06 -1.16 0.05 -1.16 0.06 -1.16 0.05 -1.16 0.06 -1.16 0.05 -1.16 0.05 -1.16 0.06 -1.16 0.05 -1.16 0.06 -1.16 0.05 -1.16 0.06 -1.16 0.05 -1.16 0.05 -1.16 0.06 -1.16 0.05 -1.16 0.06 -1.16 0.05 -1.16 0.06 -1.16 0.05 -1.16 0.06 -1.16 0.05 -1.11 -0.89zm1.11 0.89l-0.95 0.05 -0.16 -0.94 1.11 0.89zm0.11 -6.4l0.9 5.13 -2.13 0.37 -0.9 -5.13 0.97 -1.26 1.16 0.89zm-2.13 0.37l-0.2 -1.16 1.17 -0.11 -0.97 1.26zm5.63 -1.65l0.12 2.15 0 0 -0.07 0 -0.08 0 -0.08 0 -0.09 0.01 -0.09 0.01 -0.1 0.01 -0.1 0.01 -0.1 0.01 -0.11 0.01 -0.12 0.01 -0.12 0.01 -0.13 0.01 -0.13 0.01 -0.14 0.01 -0.14 0.01 -0.15 0.01 -0.15 0.01 -0.15 0.01 -0.16 0.01 -0.16 0.01 -0.16 0.01 -0.17 0.02 -0.17 0.02 -0.18 0.02 -0.18 0.02 -0.19 0.02 -0.19 0.02 -0.19 0.02 -0.2 0.02 -0.2 0.02 -0.21 0.02 -0.21 0.02 -0.2 -2.15 0.21 -0.02 0.21 -0.02 0.2 -0.02 0.2 -0.02 0.19 -0.02 0.19 -0.02 0.19 -0.02 0.18 -0.02 0.18 -0.02 0.17 -0.01 0.17 -0.02 0.17 -0.01 0.16 -0.01 0.16 -0.01 0.15 -0.01 0.15 -0.01 0.14 -0.01 0.14 -0.01 0.14 -0.01 0.13 -0.01 0.13 -0.01 0.12 -0.01 0.12 -0.01 0.11 -0.01 0.11 -0.01 0.1 -0.01 0.1 -0.01 0.1 -0.01 0.09 -0.01 0.09 -0.01 0.08 -0 0.08 -0 0 0zm79.58 -1.12l-0.05 2.16 0 0 -2.48 -0.05 -2.48 -0.05 -2.48 -0.04 -2.48 -0.04 -2.48 -0.03 -2.48 -0.03 -2.48 -0.02 -2.48 -0.02 -2.48 -0.01 -2.48 -0.01 -2.48 -0 -2.48 0 -2.48 0.01 -2.48 0.02 -2.48 0.02 -2.48 0.03 -2.48 0.03 -2.48 0.04 -2.48 0.05 -2.48 0.05 -2.48 0.06 -2.48 0.07 -2.48 0.07 -2.48 0.08 -2.48 0.09 -2.48 0.09 -2.48 0.1 -2.48 0.11 -2.48 0.12 -2.48 0.12 -2.48 0.13 -2.48 0.14 -0.12 -2.15 2.49 -0.14 2.49 -0.13 2.49 -0.12 2.49 -0.12 2.49 -0.11 2.49 -0.1 2.49 -0.09 2.49 -0.09 2.49 -0.08 2.49 -0.07 2.49 -0.07 2.49 -0.06 2.49 -0.05 2.49 -0.05 2.49 -0.04 2.49 -0.03 2.49 -0.03 2.49 -0.02 2.49 -0.02 2.49 -0.01 2.49 -0 2.49 0 2.49 0.01 2.49 0.01 2.49 0.02 2.49 0.02 2.49 0.03 2.49 0.04 2.49 0.04 2.49 0.04 2.49 0.05 2.49 0.05 0 0zm10.08 2.03l-2.14 0.27 0.94 0.94 -0.28 -0.04 -0.28 -0.04 -0.28 -0.04 -0.28 -0.04 -0.28 -0.04 -0.28 -0.04 -0.28 -0.04 -0.28 -0.04 -0.28 -0.04 -0.28 -0.04 -0.28 -0.04 -0.28 -0.04 -0.28 -0.04 -0.28 -0.04 -0.28 -0.04 -0.28 -0.04 -0.28 -0.04 -0.28 -0.04 -0.28 -0.04 -0.28 -0.04 -0.28 -0.03 -0.28 -0.03 -0.28 -0.03 -0.28 -0.03 -0.28 -0.03 -0.28 -0.02 -0.28 -0.02 -0.28 -0.02 -0.28 -0.02 -0.27 -0.01 -0.28 -0.01 -0.27 -0.01 0.05 -2.16 0.3 0.01 0.3 0.01 0.3 0.02 0.3 0.02 0.3 0.02 0.3 0.02 0.29 0.03 0.29 0.03 0.29 0.03 0.29 0.03 0.29 0.03 0.29 0.04 0.29 0.04 0.29 0.04 0.29 0.04 0.29 0.04 0.29 0.04 0.29 0.04 0.28 0.04 0.28 0.04 0.28 0.04 0.28 0.04 0.28 0.04 0.28 0.04 0.28 0.04 0.28 0.04 0.28 0.04 0.27 0.04 0.27 0.04 0.27 0.04 0.27 0.04 0.27 0.03 0.94 0.94zm-0.94 -0.94l0.83 0.1 0.1 0.83 -0.94 -0.94z"/>
   </g>
   <g>
    <path class="fil0" d="M63.42 1.58l0.36 2.13 0.04 -0.01 -0.62 0.14 -0.59 0.16 -0.55 0.18 -0.52 0.19 -0.49 0.21 -0.46 0.22 -0.43 0.24 -0.4 0.25 -0.38 0.27 -0.35 0.28 -0.32 0.29 -0.3 0.31 -0.28 0.32 -0.26 0.33 -0.24 0.35 -0.22 0.36 -0.21 0.37 -0.19 0.39 -0.17 0.4 -0.16 0.42 -0.14 0.43 -0.12 0.44 -0.11 0.46 -0.1 0.47 -0.08 0.48 -0.07 0.49 -0.05 0.5 -0.04 0.51 -0.03 0.53 -0.02 0.53 -0.01 0.54 0 0.55 -2.16 0.03 -0 -0.59 0.01 -0.59 0.02 -0.58 0.03 -0.57 0.05 -0.57 0.06 -0.56 0.08 -0.56 0.09 -0.55 0.11 -0.54 0.13 -0.53 0.15 -0.53 0.17 -0.52 0.19 -0.51 0.21 -0.5 0.23 -0.48 0.26 -0.47 0.28 -0.46 0.31 -0.44 0.34 -0.43 0.36 -0.41 0.39 -0.4 0.42 -0.38 0.45 -0.36 0.47 -0.34 0.5 -0.32 0.53 -0.3 0.56 -0.27 0.59 -0.25 0.62 -0.23 0.64 -0.21 0.68 -0.18 0.71 -0.16 0.04 -0.01zm-0.04 0.01l0.03 -0.01 0.01 -0 -0.04 0.01zm53.43 4.77l-0.83 1.99 0.03 0.01 -1.56 -0.57 -1.57 -0.54 -1.57 -0.52 -1.58 -0.49 -1.58 -0.46 -1.58 -0.43 -1.59 -0.41 -1.59 -0.38 -1.6 -0.35 -1.6 -0.32 -1.61 -0.29 -1.61 -0.27 -1.62 -0.24 -1.62 -0.21 -1.62 -0.19 -1.63 -0.16 -1.63 -0.13 -1.64 -0.1 -1.64 -0.08 -1.65 -0.05 -1.65 -0.02 -1.66 0 -1.66 0.03 -1.67 0.06 -1.67 0.09 -1.68 0.11 -1.68 0.14 -1.69 0.17 -1.69 0.2 -1.7 0.22 -1.7 0.25 -1.7 0.28 -0.36 -2.13 1.74 -0.28 1.73 -0.25 1.73 -0.23 1.72 -0.2 1.72 -0.17 1.72 -0.14 1.71 -0.12 1.71 -0.09 1.7 -0.06 1.7 -0.03 1.69 -0 1.69 0.02 1.68 0.05 1.68 0.08 1.67 0.11 1.67 0.13 1.67 0.16 1.66 0.19 1.66 0.22 1.65 0.25 1.65 0.27 1.64 0.3 1.64 0.33 1.63 0.36 1.63 0.39 1.62 0.41 1.62 0.44 1.61 0.47 1.61 0.5 1.6 0.53 1.6 0.55 1.6 0.58 0.03 0.01zm-0.03 -0.01l0.01 0 0.03 0.01 -0.03 -0.01zm33.4 29.94l-1.92 0.99 0 0 -0.6 -1.15 -0.63 -1.13 -0.65 -1.12 -0.67 -1.1 -0.69 -1.09 -0.72 -1.08 -0.74 -1.06 -0.77 -1.05 -0.79 -1.03 -0.82 -1.02 -0.84 -1 -0.87 -0.98 -0.89 -0.97 -0.92 -0.95 -0.95 -0.94 -0.98 -0.92 -1 -0.9 -1.03 -0.89 -1.06 -0.87 -1.09 -0.85 -1.12 -0.84 -1.15 -0.82 -1.18 -0.8 -1.21 -0.78 -1.25 -0.76 -1.28 -0.75 -1.31 -0.73 -1.34 -0.71 -1.38 -0.69 -1.41 -0.67 -1.45 -0.65 -1.48 -0.63 0.83 -1.99 1.52 0.65 1.48 0.67 1.45 0.69 1.42 0.71 1.38 0.73 1.35 0.75 1.32 0.77 1.29 0.79 1.25 0.81 1.22 0.83 1.19 0.85 1.16 0.87 1.13 0.88 1.1 0.9 1.07 0.92 1.04 0.94 1.01 0.96 0.98 0.97 0.96 0.99 0.93 1.01 0.9 1.02 0.87 1.04 0.85 1.05 0.82 1.07 0.79 1.08 0.77 1.1 0.74 1.11 0.72 1.13 0.69 1.14 0.67 1.16 0.65 1.17 0.62 1.18 0 0zm5.09 40.96l0.79 -2.01 -1.47 0.97 0.05 -1.54 0.05 -1.49 0.05 -1.44 0.05 -1.39 0.05 -1.34 0.04 -1.3 0.03 -1.26 0.02 -1.23 0.01 -1.2 0 -1.17 -0.01 -1.14 -0.03 -1.12 -0.05 -1.1 -0.06 -1.08 -0.09 -1.07 -0.11 -1.07 -0.13 -1.06 -0.16 -1.06 -0.19 -1.06 -0.22 -1.07 -0.25 -1.08 -0.28 -1.1 -0.32 -1.11 -0.36 -1.14 -0.4 -1.16 -0.44 -1.19 -0.48 -1.22 -0.53 -1.26 -0.57 -1.3 -0.62 -1.34 -0.67 -1.39 -0.73 -1.44 1.92 -0.99 0.74 1.47 0.69 1.42 0.64 1.38 0.59 1.34 0.54 1.3 0.5 1.27 0.45 1.24 0.41 1.21 0.37 1.19 0.33 1.17 0.3 1.15 0.26 1.14 0.23 1.13 0.2 1.12 0.17 1.11 0.14 1.11 0.11 1.11 0.09 1.12 0.07 1.13 0.05 1.14 0.03 1.15 0.01 1.17 -0 1.19 -0.01 1.22 -0.02 1.24 -0.03 1.27 -0.04 1.31 -0.05 1.35 -0.05 1.39 -0.05 1.44 -0.05 1.48 -0.05 1.54 -1.47 0.97zm1.47 -0.97l-0.05 1.53 -1.43 -0.56 1.47 -0.97zm-4.67 -2.6l3.99 1.56 -0.79 2.01 -3.99 -1.56 -0.68 -1.03 1.47 -0.98zm-0.79 2.01l-0.7 -0.27 0.02 -0.75 0.68 1.03zm-23.57 -53.15l1.35 -1.69 0.1 0.09 1.5 1.56 1.45 1.57 1.4 1.58 1.35 1.59 1.3 1.59 1.25 1.6 1.2 1.61 1.15 1.62 1.1 1.62 1.05 1.63 1.01 1.64 0.96 1.65 0.91 1.66 0.86 1.66 0.81 1.67 0.76 1.68 0.71 1.69 0.66 1.69 0.61 1.7 0.57 1.71 0.52 1.72 0.47 1.72 0.42 1.73 0.37 1.74 0.32 1.74 0.27 1.75 0.23 1.76 0.18 1.76 0.13 1.77 0.08 1.78 0.03 1.78 -0.01 1.79 -2.16 -0.05 0.01 -1.73 -0.03 -1.73 -0.08 -1.72 -0.13 -1.71 -0.17 -1.71 -0.22 -1.7 -0.27 -1.69 -0.31 -1.69 -0.36 -1.68 -0.41 -1.67 -0.45 -1.67 -0.5 -1.66 -0.55 -1.65 -0.59 -1.65 -0.64 -1.64 -0.69 -1.63 -0.74 -1.63 -0.79 -1.62 -0.83 -1.61 -0.88 -1.61 -0.93 -1.6 -0.98 -1.6 -1.03 -1.59 -1.07 -1.58 -1.12 -1.58 -1.17 -1.57 -1.22 -1.56 -1.27 -1.56 -1.32 -1.55 -1.37 -1.55 -1.42 -1.54 -1.47 -1.53 0.1 0.09zm1.35 -1.69l0.05 0.04 0.05 0.05 -0.1 -0.09zm-57.73 -9.55l-0.45 -2.11 0 0 2.11 -0.43 2.1 -0.38 2.08 -0.33 2.06 -0.28 2.04 -0.23 2.02 -0.18 2 -0.12 1.98 -0.07 1.97 -0.02 1.95 0.03 1.93 0.08 1.91 0.13 1.89 0.18 1.87 0.23 1.85 0.28 1.83 0.34 1.81 0.39 1.79 0.44 1.77 0.49 1.75 0.54 1.73 0.59 1.71 0.65 1.69 0.7 1.67 0.75 1.65 0.8 1.63 0.85 1.61 0.91 1.59 0.96 1.57 1.01 1.55 1.06 1.53 1.12 1.51 1.17 -1.35 1.69 -1.46 -1.13 -1.48 -1.08 -1.5 -1.03 -1.52 -0.98 -1.54 -0.93 -1.56 -0.88 -1.57 -0.82 -1.59 -0.77 -1.61 -0.72 -1.63 -0.67 -1.65 -0.62 -1.67 -0.57 -1.69 -0.52 -1.71 -0.47 -1.73 -0.42 -1.75 -0.37 -1.77 -0.32 -1.79 -0.27 -1.81 -0.22 -1.83 -0.17 -1.85 -0.13 -1.87 -0.08 -1.89 -0.03 -1.91 0.02 -1.93 0.07 -1.95 0.12 -1.97 0.17 -1.99 0.22 -2.01 0.27 -2.03 0.32 -2.05 0.37 -2.07 0.42 0 0zm-17.56 4.08l2.16 -0.03 -1.58 -0.94 0.45 -0.23 0.45 -0.22 0.45 -0.22 0.46 -0.21 0.46 -0.2 0.46 -0.2 0.47 -0.19 0.47 -0.19 0.47 -0.18 0.48 -0.18 0.48 -0.17 0.49 -0.17 0.49 -0.17 0.5 -0.16 0.5 -0.16 0.51 -0.16 0.51 -0.15 0.52 -0.15 0.52 -0.15 0.53 -0.14 0.54 -0.14 0.54 -0.14 0.55 -0.14 0.55 -0.14 0.56 -0.13 0.57 -0.13 0.58 -0.13 0.58 -0.13 0.59 -0.13 0.6 -0.13 0.6 -0.13 0.61 -0.13 0.45 2.11 -0.61 0.13 -0.6 0.13 -0.59 0.13 -0.58 0.13 -0.57 0.13 -0.57 0.13 -0.56 0.13 -0.55 0.13 -0.54 0.13 -0.54 0.14 -0.53 0.14 -0.52 0.14 -0.51 0.14 -0.51 0.14 -0.5 0.15 -0.49 0.15 -0.49 0.15 -0.48 0.15 -0.48 0.16 -0.47 0.16 -0.47 0.16 -0.46 0.17 -0.46 0.17 -0.45 0.17 -0.45 0.18 -0.44 0.18 -0.44 0.19 -0.43 0.19 -0.43 0.2 -0.43 0.2 -0.42 0.21 -0.42 0.21 -1.58 -0.94zm1.58 0.94l-1.55 0.81 -0.02 -1.75 1.58 0.94z"/>
   </g>
   <g>
    <path class="fil0" d="M28.46 69.23l2.14 0.25 0 0 -0.02 0.14 -0.02 0.14 -0.01 0.14 -0.01 0.14 -0.01 0.15 -0.01 0.15 -0.01 0.15 -0.01 0.15 -0.01 0.15 -0.01 0.15 -0.01 0.16 -0.01 0.15 -0.01 0.15 -0.01 0.16 -0.01 0.16 -0 0.16 -0 0.16 -0 0.16 -0 0.16 -0 0.16 -0 0.16 -0 0.16 -0 0.17 -0 0.17 -0 0.16 0 0.17 0 0.17 0 0.17 0 0.17 0 0.17 0 0.17 0 0.17 -2.16 0.04 -0 -0.18 -0 -0.17 -0 -0.18 -0 -0.18 -0 -0.18 -0 -0.17 -0 -0.17 0 -0.17 0 -0.17 0 -0.17 0 -0.17 0 -0.17 0 -0.17 0 -0.17 0 -0.17 0 -0.17 0.01 -0.17 0.01 -0.17 0.01 -0.17 0.01 -0.17 0.01 -0.17 0.01 -0.16 0.01 -0.16 0.01 -0.16 0.01 -0.16 0.01 -0.16 0.01 -0.16 0.01 -0.16 0.02 -0.16 0.02 -0.16 0.02 -0.16 0.02 -0.16 0 0zm12.71 -7.87l0.19 2.15 0 0 -0.61 0.05 -0.59 0.04 -0.58 0.03 -0.56 0.03 -0.55 0.02 -0.53 0.02 -0.51 0.02 -0.49 0.03 -0.48 0.03 -0.46 0.04 -0.44 0.04 -0.42 0.05 -0.39 0.06 -0.37 0.08 -0.35 0.09 -0.33 0.1 -0.3 0.12 -0.28 0.13 -0.26 0.15 -0.25 0.16 -0.23 0.19 -0.22 0.21 -0.21 0.24 -0.2 0.27 -0.19 0.31 -0.18 0.35 -0.17 0.39 -0.15 0.44 -0.14 0.49 -0.12 0.54 -0.11 0.6 -0.09 0.65 -2.14 -0.25 0.1 -0.74 0.12 -0.69 0.15 -0.65 0.17 -0.61 0.2 -0.57 0.22 -0.53 0.25 -0.49 0.28 -0.45 0.3 -0.42 0.33 -0.38 0.36 -0.34 0.38 -0.3 0.4 -0.27 0.41 -0.23 0.43 -0.2 0.44 -0.17 0.45 -0.14 0.46 -0.12 0.46 -0.09 0.47 -0.08 0.48 -0.06 0.49 -0.05 0.5 -0.04 0.51 -0.03 0.51 -0.03 0.52 -0.02 0.53 -0.02 0.54 -0.02 0.55 -0.03 0.56 -0.03 0.57 -0.04 0.58 -0.05 0 0zm12.33 8.14l-2.14 -0.25 0.01 -0.07 0.1 -0.64 0.05 -0.58 0.01 -0.53 -0.03 -0.48 -0.07 -0.43 -0.1 -0.38 -0.13 -0.34 -0.15 -0.31 -0.18 -0.28 -0.2 -0.25 -0.23 -0.23 -0.26 -0.21 -0.28 -0.19 -0.31 -0.18 -0.34 -0.16 -0.37 -0.14 -0.39 -0.12 -0.41 -0.11 -0.43 -0.09 -0.45 -0.07 -0.47 -0.06 -0.48 -0.04 -0.49 -0.03 -0.49 -0.01 -0.5 -0 -0.5 0.01 -0.5 0.02 -0.5 0.02 -0.49 0.03 -0.48 0.03 -0.48 0.04 -0.46 0.04 -0.19 -2.15 0.48 -0.04 0.49 -0.04 0.51 -0.04 0.52 -0.03 0.53 -0.03 0.54 -0.02 0.54 -0.01 0.55 0 0.55 0.02 0.55 0.03 0.55 0.05 0.54 0.07 0.54 0.09 0.53 0.11 0.52 0.13 0.51 0.16 0.5 0.19 0.48 0.22 0.46 0.26 0.44 0.3 0.42 0.34 0.38 0.39 0.35 0.43 0.3 0.47 0.26 0.52 0.2 0.55 0.15 0.59 0.1 0.63 0.04 0.66 -0.01 0.7 -0.07 0.73 -0.12 0.77 0.01 -0.07zm-2.14 -0.25l0.01 -0.04 0.01 -0.03 -0.01 0.07zm-0.44 3.67l0.44 -3.67 2.14 0.25 -0.44 3.67 -1.03 0.95 -1.11 -1.21zm2.14 0.25l-0.11 0.92 -0.92 0.03 1.03 -0.95zm-24.79 1.43l2.16 -0.04 -1.23 -1.05 0.7 -0.09 0.7 -0.09 0.71 -0.09 0.71 -0.08 0.71 -0.08 0.72 -0.07 0.72 -0.07 0.72 -0.07 0.72 -0.06 0.73 -0.06 0.73 -0.06 0.73 -0.05 0.73 -0.05 0.73 -0.05 0.73 -0.05 0.73 -0.04 0.73 -0.04 0.73 -0.04 0.72 -0.04 0.72 -0.04 0.72 -0.03 0.72 -0.03 0.71 -0.03 0.71 -0.03 0.7 -0.03 0.7 -0.03 0.69 -0.03 0.69 -0.03 0.68 -0.03 0.68 -0.03 0.67 -0.02 0.66 -0.02 0.08 2.16 -0.67 0.02 -0.67 0.02 -0.68 0.03 -0.68 0.03 -0.69 0.03 -0.69 0.03 -0.7 0.03 -0.7 0.03 -0.71 0.03 -0.71 0.03 -0.71 0.03 -0.71 0.03 -0.72 0.04 -0.72 0.04 -0.72 0.04 -0.72 0.04 -0.72 0.04 -0.72 0.05 -0.72 0.05 -0.72 0.05 -0.72 0.05 -0.72 0.06 -0.72 0.06 -0.71 0.06 -0.71 0.07 -0.71 0.07 -0.71 0.07 -0.7 0.08 -0.7 0.08 -0.69 0.08 -0.69 0.09 -0.68 0.09 -1.23 -1.05zm1.23 1.05l-1.21 0.17 -0.02 -1.22 1.23 1.05z"/>
   </g>
   <g>
    <path class="fil0" d="M120.57 69.76l2.14 0.25 0 -0 -0.01 0.06 -0.01 0.06 -0.01 0.06 -0.01 0.06 -0.01 0.06 -0.01 0.06 -0.01 0.06 -0.01 0.06 -0.01 0.06 -0.01 0.06 -0.01 0.06 -0.01 0.06 -0 0.06 -0 0.06 -0.01 0.07 -0 0.06 -0 0.07 -0 0.06 -0 0.06 -0 0.07 -0 0.06 -0 0.06 -0 0.07 -0 0.07 -0 0.07 -0 0.06 -0 0.06 -0 0.06 -0 0.07 -0 0.07 -0 0.06 -0 0.07 -2.16 -0.09 0 -0.07 0 -0.07 0 -0.07 0 -0.07 0 -0.07 0 -0.07 0 -0.07 0 -0.07 0 -0.07 0 -0.07 0 -0.07 0 -0.07 0 -0.07 0 -0.07 0 -0.07 0 -0.07 0.01 -0.07 0.01 -0.07 0 -0.07 0.01 -0.07 0.01 -0.06 0.01 -0.06 0.01 -0.07 0.01 -0.07 0.01 -0.07 0.01 -0.06 0.01 -0.06 0.01 -0.07 0.01 -0.07 0.01 -0.06 0.01 -0.07 0.01 -0.07 0 -0zm12.71 -7.87l0.19 2.15 0 0 -0.61 0.05 -0.59 0.04 -0.58 0.03 -0.56 0.03 -0.55 0.02 -0.53 0.02 -0.51 0.02 -0.49 0.03 -0.48 0.03 -0.46 0.04 -0.44 0.04 -0.42 0.05 -0.39 0.06 -0.37 0.08 -0.35 0.09 -0.33 0.1 -0.3 0.12 -0.28 0.13 -0.26 0.15 -0.25 0.17 -0.23 0.19 -0.22 0.21 -0.21 0.24 -0.2 0.27 -0.19 0.31 -0.18 0.35 -0.17 0.39 -0.15 0.44 -0.14 0.49 -0.12 0.54 -0.11 0.6 -0.09 0.65 -2.14 -0.25 0.1 -0.74 0.12 -0.69 0.15 -0.65 0.17 -0.61 0.2 -0.57 0.22 -0.53 0.25 -0.49 0.28 -0.45 0.3 -0.42 0.33 -0.38 0.36 -0.34 0.38 -0.3 0.4 -0.27 0.41 -0.23 0.43 -0.2 0.44 -0.17 0.45 -0.14 0.46 -0.12 0.46 -0.09 0.47 -0.08 0.48 -0.06 0.49 -0.05 0.5 -0.04 0.51 -0.03 0.51 -0.03 0.52 -0.02 0.53 -0.02 0.54 -0.02 0.55 -0.03 0.56 -0.03 0.57 -0.04 0.58 -0.05 0 0zm12.33 8.14l-2.14 -0.26 0.01 -0.07 0.1 -0.64 0.05 -0.58 0.01 -0.53 -0.03 -0.48 -0.07 -0.43 -0.1 -0.38 -0.13 -0.34 -0.15 -0.31 -0.18 -0.28 -0.2 -0.25 -0.23 -0.23 -0.26 -0.21 -0.28 -0.19 -0.31 -0.18 -0.34 -0.16 -0.37 -0.14 -0.39 -0.12 -0.41 -0.11 -0.43 -0.09 -0.45 -0.07 -0.47 -0.06 -0.48 -0.04 -0.49 -0.03 -0.49 -0.01 -0.5 -0 -0.5 0.01 -0.5 0.02 -0.5 0.02 -0.49 0.03 -0.48 0.03 -0.48 0.04 -0.46 0.04 -0.19 -2.15 0.48 -0.04 0.49 -0.04 0.51 -0.04 0.52 -0.03 0.53 -0.03 0.54 -0.02 0.54 -0.01 0.55 0 0.55 0.02 0.55 0.03 0.55 0.05 0.54 0.07 0.54 0.09 0.53 0.11 0.52 0.13 0.51 0.16 0.5 0.19 0.48 0.22 0.46 0.26 0.44 0.3 0.42 0.34 0.38 0.39 0.35 0.43 0.3 0.47 0.26 0.52 0.2 0.55 0.15 0.59 0.1 0.63 0.04 0.66 -0.01 0.7 -0.07 0.73 -0.12 0.77 0.01 -0.07zm-2.14 -0.26l0 -0.04 0.01 -0.03 -0.01 0.07zm-0.41 3.45l0.41 -3.45 2.14 0.26 -0.41 3.45 -1.24 0.94 -0.91 -1.19zm2.14 0.26l-0.13 1.11 -1.1 -0.17 1.24 -0.94zm-5.69 0.32l0.11 -2.16 0.08 0.01 0.15 0.02 0.15 0.02 0.16 0.02 0.15 0.02 0.15 0.02 0.15 0.02 0.15 0.02 0.15 0.02 0.15 0.02 0.15 0.02 0.15 0.02 0.15 0.02 0.15 0.02 0.15 0.02 0.14 0.02 0.14 0.02 0.14 0.02 0.14 0.02 0.14 0.02 0.14 0.02 0.14 0.02 0.14 0.02 0.14 0.02 0.14 0.02 0.14 0.02 0.14 0.02 0.13 0.02 0.14 0.02 0.14 0.02 0.13 0.02 0.13 0.02 0.13 0.02 -0.33 2.13 -0.13 -0.02 -0.13 -0.02 -0.13 -0.02 -0.13 -0.02 -0.13 -0.02 -0.14 -0.02 -0.13 -0.02 -0.14 -0.02 -0.14 -0.02 -0.14 -0.02 -0.14 -0.02 -0.14 -0.02 -0.14 -0.02 -0.14 -0.02 -0.14 -0.02 -0.14 -0.02 -0.14 -0.02 -0.14 -0.02 -0.14 -0.02 -0.14 -0.02 -0.14 -0.02 -0.15 -0.02 -0.15 -0.02 -0.15 -0.02 -0.15 -0.02 -0.15 -0.02 -0.15 -0.02 -0.15 -0.02 -0.15 -0.02 -0.15 -0.02 -0.15 -0.02 -0.15 -0.02 0.08 0.01zm0.11 -2.16l0.04 0 0.04 0 -0.08 -0.01zm-19.21 0.31l2.16 0.09 -1.05 -1.12 0.56 0.02 0.56 0.02 0.56 0.02 0.56 0.02 0.56 0.02 0.56 0.02 0.56 0.02 0.56 0.02 0.56 0.02 0.56 0.02 0.56 0.02 0.56 0.02 0.56 0.02 0.56 0.02 0.56 0.02 0.57 0.02 0.57 0.02 0.57 0.02 0.57 0.02 0.57 0.02 0.57 0.02 0.57 0.03 0.57 0.03 0.57 0.03 0.57 0.03 0.57 0.03 0.57 0.03 0.57 0.03 0.57 0.03 0.57 0.03 0.57 0.03 0.57 0.03 -0.11 2.16 -0.57 -0.03 -0.57 -0.03 -0.57 -0.03 -0.57 -0.03 -0.57 -0.03 -0.57 -0.03 -0.57 -0.03 -0.57 -0.03 -0.57 -0.03 -0.57 -0.03 -0.57 -0.03 -0.57 -0.02 -0.57 -0.02 -0.56 -0.02 -0.56 -0.02 -0.56 -0.02 -0.56 -0.02 -0.56 -0.02 -0.56 -0.02 -0.56 -0.02 -0.56 -0.02 -0.56 -0.02 -0.56 -0.02 -0.56 -0.02 -0.56 -0.02 -0.56 -0.02 -0.56 -0.02 -0.56 -0.02 -0.56 -0.02 -0.56 -0.02 -0.56 -0.02 -0.56 -0.02 -1.05 -1.12zm1.05 1.12l-1.09 -0.03 0.05 -1.09 1.05 1.12z"/>
   </g>
   <g>
    <path class="fil0" d="M75.06 67.39l2.14 0.28 0 0 -0.02 0.12 -0.01 0.12 -0.01 0.13 -0.01 0.13 -0.01 0.12 -0.01 0.13 -0.01 0.13 -0.01 0.13 -0.01 0.13 -0.01 0.13 -0.01 0.13 -0.01 0.13 -0.01 0.14 -0.01 0.13 -0.01 0.14 -0.01 0.14 -0.01 0.14 -0.01 0.14 -0 0.14 -0 0.14 -0 0.14 -0 0.14 -0 0.14 -0 0.14 -0 0.15 -0 0.14 -0 0.14 -0 0.15 -0 0.15 0 0.15 0 0.15 0 0.15 -2.16 0.02 -0 -0.15 -0 -0.15 -0 -0.15 0 -0.15 0 -0.15 0 -0.15 0 -0.15 0 -0.15 0 -0.15 0 -0.15 0 -0.15 0 -0.15 0 -0.15 0.01 -0.15 0.01 -0.14 0.01 -0.15 0.01 -0.15 0.01 -0.14 0.01 -0.15 0.01 -0.14 0.01 -0.14 0.01 -0.15 0.01 -0.14 0.01 -0.14 0.01 -0.14 0.01 -0.14 0.01 -0.14 0.01 -0.14 0.01 -0.14 0.02 -0.14 0.02 -0.14 0.02 -0.14 0 0zm13.77 -7.86l0.18 2.15 0 0 -0.66 0.05 -0.65 0.04 -0.63 0.03 -0.61 0.03 -0.6 0.02 -0.58 0.02 -0.56 0.02 -0.54 0.03 -0.52 0.03 -0.5 0.04 -0.48 0.04 -0.46 0.05 -0.44 0.06 -0.41 0.08 -0.39 0.09 -0.37 0.1 -0.34 0.12 -0.32 0.14 -0.3 0.15 -0.28 0.17 -0.26 0.19 -0.24 0.21 -0.23 0.24 -0.21 0.27 -0.2 0.31 -0.19 0.35 -0.18 0.39 -0.17 0.44 -0.15 0.49 -0.13 0.54 -0.12 0.59 -0.1 0.65 -2.14 -0.28 0.11 -0.74 0.14 -0.7 0.16 -0.65 0.19 -0.61 0.22 -0.57 0.25 -0.53 0.27 -0.49 0.3 -0.46 0.33 -0.42 0.36 -0.38 0.38 -0.34 0.41 -0.3 0.42 -0.26 0.44 -0.23 0.46 -0.19 0.47 -0.16 0.48 -0.14 0.49 -0.11 0.5 -0.09 0.51 -0.08 0.52 -0.06 0.53 -0.05 0.54 -0.04 0.55 -0.03 0.56 -0.03 0.57 -0.02 0.58 -0.02 0.59 -0.02 0.6 -0.03 0.61 -0.03 0.62 -0.04 0.63 -0.05 0 0zm13.33 8.15l-2.14 -0.28 0.01 -0.08 0.11 -0.63 0.06 -0.58 0.01 -0.52 -0.03 -0.47 -0.07 -0.42 -0.11 -0.38 -0.14 -0.34 -0.16 -0.3 -0.19 -0.28 -0.22 -0.25 -0.25 -0.23 -0.28 -0.21 -0.32 -0.2 -0.35 -0.18 -0.38 -0.16 -0.41 -0.14 -0.44 -0.13 -0.46 -0.11 -0.48 -0.09 -0.5 -0.07 -0.51 -0.06 -0.53 -0.04 -0.54 -0.03 -0.54 -0.01 -0.55 -0 -0.55 0.01 -0.55 0.02 -0.54 0.02 -0.54 0.03 -0.53 0.03 -0.52 0.04 -0.51 0.04 -0.18 -2.15 0.52 -0.04 0.53 -0.04 0.55 -0.04 0.56 -0.03 0.57 -0.03 0.58 -0.02 0.59 -0.01 0.59 0 0.59 0.02 0.59 0.03 0.59 0.05 0.59 0.06 0.58 0.08 0.57 0.11 0.56 0.13 0.55 0.16 0.53 0.19 0.52 0.22 0.5 0.26 0.47 0.3 0.45 0.34 0.41 0.38 0.38 0.43 0.33 0.47 0.28 0.52 0.23 0.56 0.17 0.6 0.11 0.63 0.05 0.67 -0.01 0.7 -0.07 0.74 -0.13 0.77 0.01 -0.08zm-2.14 -0.28l0.01 -0.04 0.01 -0.04 -0.01 0.08zm-0.54 4.15l0.54 -4.15 2.14 0.28 -0.54 4.15 -1.07 0.94 -1.07 -1.22zm2.14 0.28l-0.12 0.94 -0.95 -0 1.07 -0.94zm-26.78 0.23l2.16 -0.02 -1.11 -1.07 0.76 -0.02 0.76 -0.02 0.76 -0.02 0.76 -0.02 0.76 -0.02 0.76 -0.02 0.76 -0.02 0.76 -0.02 0.77 -0.02 0.77 -0.02 0.77 -0.02 0.77 -0.01 0.77 -0.01 0.77 -0.01 0.77 -0.01 0.77 -0.01 0.77 -0.01 0.77 -0.01 0.77 -0.01 0.77 -0.01 0.77 -0.01 0.77 -0.01 0.78 -0.01 0.78 -0.01 0.78 -0 0.78 -0 0.78 -0 0.78 -0 0.78 -0 0.78 -0 0.78 -0 0.78 0 -0 2.16 -0.78 -0 -0.78 0 -0.78 0 -0.78 0 -0.78 0 -0.78 0 -0.78 0 -0.77 0 -0.77 0.01 -0.77 0.01 -0.77 0.01 -0.77 0.01 -0.77 0.01 -0.77 0.01 -0.77 0.01 -0.77 0.01 -0.77 0.01 -0.77 0.01 -0.77 0.01 -0.77 0.01 -0.77 0.01 -0.76 0.02 -0.76 0.02 -0.76 0.02 -0.76 0.02 -0.76 0.02 -0.76 0.02 -0.76 0.02 -0.76 0.02 -0.76 0.02 -0.76 0.02 -0.76 0.02 -1.11 -1.07zm1.11 1.07l-1.1 0.03 -0.01 -1.1 1.11 1.07z"/>
   </g>
  </g>
 </g>
</svg>
