<?xml version="1.0" encoding="UTF-8"?>
<!DOCTYPE svg PUBLIC "-//W3C//DTD SVG 1.1//EN" "http://www.w3.org/Graphics/SVG/1.1/DTD/svg11.dtd">
<!-- Creator: CorelDRAW 2020 (64 Bit) -->
<svg xmlns="http://www.w3.org/2000/svg" xml:space="preserve" width="13mm" height="13.0504mm" version="1.1" style="shape-rendering:geometricPrecision; text-rendering:geometricPrecision; image-rendering:optimizeQuality; fill-rule:evenodd; clip-rule:evenodd"
viewBox="0 0 23.3 23.39"
 xmlns:xlink="http://www.w3.org/1999/xlink"
 xmlns:xodm="http://www.corel.com/coreldraw/odm/2003">
 <defs>
  <style type="text/css">
   <![CDATA[
    .fil0 {fill:#FEFEFE;fill-rule:nonzero}
    .fil1 {fill:url(#id0)}
   ]]>
  </style>
  <linearGradient id="id0" gradientUnits="userSpaceOnUse" x1="11.64" y1="0.39" x2="11.64" y2="22.61">
   <stop offset="0" style="stop-opacity:1; stop-color:#FDC05A"/>
   <stop offset="0.329412" style="stop-opacity:1; stop-color:#EE364B"/>
   <stop offset="0.65098" style="stop-opacity:1; stop-color:#AD4899"/>
   <stop offset="1" style="stop-opacity:1; stop-color:#5F5DA7"/>
  </linearGradient>
 </defs>
 <g id="Camada_x0020_1">
  <metadata id="CorelCorpID_0Corel-Layer"/>
  <path class="fil0" d="M18.15 0.14l-13.03 0c-2.81,0 -5.07,2.28 -5.07,5.1l0 13.02c0,2.82 2.26,5.14 5.07,5.14l13.03 0c2.81,0 5.15,-2.32 5.15,-5.14l0 -13.02c0,-2.81 -2.34,-5.1 -5.15,-5.1z"/>
  <path class="fil1" d="M5.12 0l13.03 0c2.81,0 5.12,2.31 5.12,5.12l0 13.02c0,2.82 -2.31,5.13 -5.12,5.13l-13.03 0c-2.81,0 -5.12,-2.31 -5.12,-5.13l0 -13.02c0,-2.81 2.31,-5.12 5.12,-5.12z"/>
  <path class="fil0" d="M8.22 5.07c-1.74,0 -3.15,1.41 -3.15,3.15l0 6.82c0,1.74 1.41,3.15 3.15,3.15l6.82 0c1.74,0 3.15,-1.41 3.15,-3.15l0 -6.82c0,-1.74 -1.41,-3.15 -3.15,-3.15l-6.82 0zm6.82 14.48l-6.82 0c-2.49,0 -4.51,-2.02 -4.51,-4.51l0 -6.82c0,-2.49 2.02,-4.51 4.51,-4.51l6.82 0c2.49,0 4.51,2.02 4.51,4.51l0 6.82c0,2.49 -2.02,4.51 -4.51,4.51z"/>
  <path class="fil0" d="M11.64 8.94c-1.49,0 -2.7,1.21 -2.7,2.7 0,1.49 1.21,2.7 2.7,2.7 1.49,0 2.7,-1.21 2.7,-2.7 0,-1.49 -1.21,-2.7 -2.7,-2.7zm0 6.75c-2.24,0 -4.06,-1.82 -4.06,-4.06 0,-2.24 1.82,-4.06 4.06,-4.06 2.24,0 4.06,1.82 4.06,4.06 0,2.24 -1.82,4.06 -4.06,4.06z"/>
  <path class="fil0" d="M16.84 7.35c0,0.54 -0.44,0.97 -0.97,0.97 -0.54,0 -0.97,-0.44 -0.97,-0.97 0,-0.54 0.44,-0.97 0.97,-0.97 0.54,0 0.97,0.44 0.97,0.97z"/>
 </g>
</svg>
