<?xml version="1.0" encoding="UTF-8"?>
<!DOCTYPE svg PUBLIC "-//W3C//DTD SVG 1.1//EN" "http://www.w3.org/Graphics/SVG/1.1/DTD/svg11.dtd">
<!-- Creator: CorelDRAW 2020 (64 Bit) -->
<svg xmlns="http://www.w3.org/2000/svg" xml:space="preserve" width="12mm" height="11.927mm" version="1.1" style="shape-rendering:geometricPrecision; text-rendering:geometricPrecision; image-rendering:optimizeQuality; fill-rule:evenodd; clip-rule:evenodd"
viewBox="0 0 36.67 36.45"
 xmlns:xlink="http://www.w3.org/1999/xlink"
 xmlns:xodm="http://www.corel.com/coreldraw/odm/2003">
 <defs>
  <style type="text/css">
   <![CDATA[
    .fil0 {fill:#FEFEFE;fill-rule:nonzero}
   ]]>
  </style>
 </defs>
 <g id="Camada_x0020_1">
  <metadata id="CorelCorpID_0Corel-Layer"/>
  <path class="fil0" d="M36.67 18.34c0,-10.13 -8.21,-18.34 -18.34,-18.34 -10.13,0 -18.34,8.21 -18.34,18.34 0,9.15 6.71,16.74 15.47,18.11l0 -12.81 -4.66 0 0 -5.3 4.66 0 0 -4.04c0,-4.6 2.74,-7.13 6.93,-7.13 2.01,0 4.1,0.36 4.1,0.36l0 4.51 -2.31 0c-2.28,0 -2.99,1.41 -2.99,2.86l0 3.44 5.09 0 -0.81 5.3 -4.27 0 0 12.81c8.77,-1.38 15.47,-8.96 15.47,-18.11z"/>
 </g>
</svg>
