<?xml version="1.0" encoding="UTF-8"?>
<!DOCTYPE svg PUBLIC "-//W3C//DTD SVG 1.1//EN" "http://www.w3.org/Graphics/SVG/1.1/DTD/svg11.dtd">
<!-- Creator: CorelDRAW 2020 (64 Bit) -->
<svg xmlns="http://www.w3.org/2000/svg" xml:space="preserve" width="13mm" height="13.0506mm" version="1.1" style="shape-rendering:geometricPrecision; text-rendering:geometricPrecision; image-rendering:optimizeQuality; fill-rule:evenodd; clip-rule:evenodd"
viewBox="0 0 24.43 24.52"
 xmlns:xlink="http://www.w3.org/1999/xlink"
 xmlns:xodm="http://www.corel.com/coreldraw/odm/2003">
 <defs>
  <style type="text/css">
   <![CDATA[
    .fil2 {fill:#FEFEFE}
    .fil0 {fill:#FEFEFE;fill-rule:nonzero}
    .fil1 {fill:url(#id0)}
   ]]>
  </style>
  <linearGradient id="id0" gradientUnits="userSpaceOnUse" x1="12.24" y1="-0.27" x2="12.24" y2="23.05">
   <stop offset="0" style="stop-opacity:1; stop-color:#57BB68"/>
   <stop offset="1" style="stop-opacity:1; stop-color:#4EA365"/>
  </linearGradient>
 </defs>
 <g id="Camada_x0020_1">
  <metadata id="CorelCorpID_0Corel-Layer"/>
  <g id="_1352491714112">
   <path class="fil0" d="M19.06 0.15l-13.65 0c-2.96,0 -5.41,2.39 -5.41,5.34l0 13.65c0,2.96 2.45,5.39 5.41,5.39l13.65 0c2.96,0 5.32,-2.43 5.32,-5.39l0 -13.65c0,-2.95 -2.36,-5.34 -5.32,-5.34z"/>
   <path class="fil1" d="M5.41 0l13.65 0c2.96,0 5.37,2.42 5.37,5.37l0 13.65c0,2.96 -2.41,5.38 -5.37,5.38l-13.65 0c-2.96,0 -5.37,-2.42 -5.37,-5.38l0 -13.65c0,-2.95 2.41,-5.37 5.37,-5.37z"/>
   <path class="fil2" d="M19.56 11.47c-0.1,-3.87 -3.28,-6.96 -7.2,-6.96 -3.87,0 -7.03,3.02 -7.19,6.83 -0.01,0.1 -0.01,0.21 -0.01,0.31 0,1.35 0.38,2.62 1.03,3.7l-1.3 3.83 3.99 -1.27c1.03,0.57 2.22,0.88 3.48,0.88 3.98,0 7.21,-3.19 7.21,-7.15 0,-0.06 -0.01,-0.11 -0.01,-0.17zm-3.89 1.62c-0.18,-0.09 -1.04,-0.52 -1.2,-0.58 -0.17,-0.05 -0.28,-0.09 -0.41,0.1 -0.11,0.17 -0.45,0.57 -0.55,0.68 -0.11,0.12 -0.21,0.14 -0.38,0.05 -0.18,-0.09 -0.75,-0.27 -1.42,-0.87 -0.53,-0.47 -0.88,-1.03 -0.98,-1.2 -0.1,-0.18 -0.01,-0.27 0.07,-0.37 0.09,-0.07 0.18,-0.2 0.27,-0.31 0.02,-0.02 0.05,-0.05 0.06,-0.07 0.05,-0.07 0.07,-0.14 0.11,-0.21 0.06,-0.12 0.04,-0.22 -0.01,-0.31 -0.04,-0.09 -0.39,-0.96 -0.54,-1.3 -0.15,-0.36 -0.29,-0.29 -0.39,-0.29 -0.11,0 -0.22,-0.01 -0.34,-0.01 -0.12,0 -0.31,0.04 -0.47,0.22 -0.17,0.17 -0.63,0.59 -0.63,1.46 0,0.2 0.04,0.41 0.1,0.59 0.17,0.63 0.56,1.13 0.63,1.22 0.09,0.12 1.22,1.94 3.01,2.64 1.81,0.7 1.81,0.47 2.13,0.44 0.32,-0.02 1.04,-0.42 1.19,-0.84 0.15,-0.41 0.15,-0.76 0.1,-0.84 -0.04,-0.06 -0.16,-0.11 -0.33,-0.2zm-3.3 4.57c-1.23,0 -2.37,-0.37 -3.33,-0.99l-2.32 0.74 0.75 -2.24c-0.72,-0.98 -1.15,-2.21 -1.15,-3.53 0,-0.2 0.01,-0.38 0.04,-0.58 0.29,-3.05 2.89,-5.43 6.02,-5.43 3.18,0 5.8,2.44 6.04,5.54 0.01,0.16 0.01,0.32 0.01,0.47 0,3.32 -2.71,6.02 -6.06,6.02z"/>
  </g>
 </g>
</svg>
