<?xml version="1.0" encoding="UTF-8"?>
<!DOCTYPE svg PUBLIC "-//W3C//DTD SVG 1.1//EN" "http://www.w3.org/Graphics/SVG/1.1/DTD/svg11.dtd">
<!-- Creator: CorelDRAW 2020 (64 Bit) -->
<svg xmlns="http://www.w3.org/2000/svg" xml:space="preserve" width="50.549mm" height="42.0844mm" version="1.1" style="shape-rendering:geometricPrecision; text-rendering:geometricPrecision; image-rendering:optimizeQuality; fill-rule:evenodd; clip-rule:evenodd"
viewBox="0 0 297.03 247.29"
 xmlns:xlink="http://www.w3.org/1999/xlink"
 xmlns:xodm="http://www.corel.com/coreldraw/odm/2003">
 <defs>
  <style type="text/css">
   <![CDATA[
    .fil3 {fill:#C895B8}
    .fil4 {fill:#BA78A3}
    .fil5 {fill:#A8518A}
    .fil2 {fill:#8694B4}
    .fil1 {fill:#52658C}
    .fil0 {fill:#52658C;fill-rule:nonzero}
   ]]>
  </style>
 </defs>
 <g id="Camada_x0020_1">
  <metadata id="CorelCorpID_0Corel-Layer"/>
  <path class="fil0" d="M3.78 218.46c-0.36,0 -0.77,-0.18 -1.23,-0.54 -0.46,-0.36 -0.69,-0.75 -0.69,-1.16 0,-0.46 0.51,-1.64 1.54,-3.55 1.03,-1.9 2.67,-4.75 4.93,-8.55 2.26,-3.8 5.21,-8.73 8.86,-14.8l10.09 -16.88c0.57,-1.03 1.26,-2.23 2.08,-3.62 0.82,-1.39 1.82,-3.03 3.01,-4.93 0.31,-0.46 0.64,-0.69 1,-0.69 0.36,0 0.72,0.17 1.08,0.5 0.36,0.33 0.54,0.68 0.54,1.04 0,0.21 -1.28,2.48 -3.85,6.82 -2.57,4.34 -6.45,10.8 -11.64,19.38 -1.95,3.24 -4.07,6.81 -6.36,10.71 -2.29,3.9 -4.71,8.14 -7.28,12.72 14.9,-4.01 26.35,-6.01 34.37,-6.01 2.41,0 4.43,0.4 6.05,1.19 1.62,0.8 2.43,1.58 2.43,2.35 0,0.87 -0.44,1.31 -1.31,1.31 -0.72,0 -1.08,-0.38 -1.08,-1.16l0 -0.23c-0.51,-0.26 -1.39,-0.46 -2.62,-0.62 -1.23,-0.15 -2.65,-0.23 -4.24,-0.23 -1.95,0 -4.16,0.17 -6.63,0.5 -2.47,0.33 -4.97,0.74 -7.51,1.23 -2.54,0.49 -4.92,0.99 -7.13,1.5 -2.16,0.46 -4.2,0.96 -6.13,1.5 -1.93,0.54 -3.71,1.01 -5.36,1.43 -0.98,0.21 -1.68,0.38 -2.12,0.54 -0.44,0.15 -0.71,0.23 -0.81,0.23zm67.2 -33.68c-0.87,0 -1.31,-0.44 -1.31,-1.31 0,-0.26 0.18,-0.73 0.54,-1.43 0.36,-0.69 0.77,-1.4 1.23,-2.12 0.46,-0.72 0.82,-1.21 1.08,-1.46 0.87,-0.98 1.55,-1.59 2.04,-1.85 0.49,-0.26 0.94,-0.39 1.35,-0.39 1.08,0 1.62,0.49 1.62,1.46 0,0.36 -0.22,0.78 -0.66,1.27 -0.44,0.49 -0.94,0.94 -1.5,1.35 -0.82,0.51 -1.34,0.92 -1.54,1.23l-1.7 2.39c-0.05,0.21 -0.17,0.4 -0.35,0.58 -0.18,0.18 -0.45,0.27 -0.81,0.27zm-13.1 31.21c-1.44,0 -2.48,-0.28 -3.12,-0.85 -0.64,-0.57 -0.96,-1.41 -0.96,-2.54 0,-1.08 0.33,-2.56 1,-4.43 0.67,-1.88 1.53,-3.89 2.58,-6.05 1.05,-2.16 2.17,-4.21 3.35,-6.16 1.18,-1.95 2.32,-3.56 3.43,-4.82 1.1,-1.26 1.99,-1.89 2.66,-1.89 0.92,0 1.39,0.41 1.39,1.23 0,0.51 -0.44,1.49 -1.31,2.93 -0.87,1.44 -1.82,2.93 -2.85,4.47 -0.41,0.57 -0.98,1.34 -1.7,2.31 -0.72,0.98 -1.41,1.89 -2.08,2.74 -0.67,0.85 -1.1,1.43 -1.31,1.73 -0.51,0.77 -1.05,2.03 -1.62,3.78 -0.62,1.75 -0.92,3.08 -0.92,4.01 0,0.41 0.09,0.72 0.27,0.92 0.18,0.21 0.6,0.31 1.27,0.31 1.28,0 2.72,-0.41 4.32,-1.23 1.59,-0.82 3.21,-1.86 4.85,-3.12 1.64,-1.26 3.2,-2.56 4.66,-3.89 1.46,-1.34 2.71,-2.49 3.74,-3.47 0.21,-0.21 0.51,-0.31 0.92,-0.31 0.77,0 1.16,0.31 1.16,0.92 0,0.57 -0.36,1.21 -1.08,1.93 -1.39,1.39 -2.67,2.62 -3.85,3.7 -1.18,1.08 -2.31,2.03 -3.39,2.85 -1.7,1.23 -3.57,2.36 -5.63,3.39 -2.05,1.03 -3.98,1.54 -5.78,1.54zm19.8 -0.08c-0.62,0 -0.92,-0.23 -0.92,-0.69 -0.82,-1.44 -1.23,-4.39 -1.23,-8.86 0,-1.08 0.08,-2.52 0.23,-4.32 0.15,-1.8 0.36,-3.67 0.62,-5.63 0.26,-1.95 0.54,-3.74 0.85,-5.36 0.31,-1.62 0.64,-2.79 1,-3.51 0.31,-0.62 0.69,-0.92 1.16,-0.92 0.82,0 1.23,0.33 1.23,1 0,0.36 -0.05,0.71 -0.15,1.04 -0.1,0.33 -0.21,0.73 -0.31,1.19 -0.67,2.57 -1.19,5.29 -1.58,8.17 -0.39,2.88 -0.58,5.83 -0.58,8.86 0,1.39 0.06,2.62 0.19,3.7 0.13,1.08 0.27,2 0.42,2.77 1.44,-0.57 3.03,-1.68 4.78,-3.35 1.75,-1.67 3.44,-3.53 5.09,-5.59 1.34,-1.7 2.56,-3.42 3.66,-5.16 1.1,-1.75 1.98,-3.39 2.62,-4.93 0.64,-1.54 0.96,-2.8 0.96,-3.78 0,-0.67 -0.06,-1.13 -0.19,-1.39 -0.13,-0.26 -0.27,-0.46 -0.42,-0.62 -0.15,-0.15 -0.23,-0.44 -0.23,-0.85 0,-0.77 0.39,-1.16 1.16,-1.16 0.51,0 0.98,0.38 1.39,1.16 0.41,0.77 0.62,1.75 0.62,2.93 0,3.65 -2.54,8.76 -7.63,15.34 -5.24,6.63 -9.48,9.94 -12.71,9.94zm36.99 -31.13c-0.87,0 -1.31,-0.44 -1.31,-1.31 0,-0.26 0.18,-0.73 0.54,-1.43 0.36,-0.69 0.77,-1.4 1.23,-2.12 0.46,-0.72 0.82,-1.21 1.08,-1.46 0.87,-0.98 1.55,-1.59 2.04,-1.85 0.49,-0.26 0.94,-0.39 1.35,-0.39 1.08,0 1.62,0.49 1.62,1.46 0,0.36 -0.22,0.78 -0.66,1.27 -0.44,0.49 -0.94,0.94 -1.5,1.35 -0.82,0.51 -1.34,0.92 -1.54,1.23l-1.7 2.39c-0.05,0.21 -0.17,0.4 -0.35,0.58 -0.18,0.18 -0.45,0.27 -0.81,0.27zm-13.1 31.21c-1.44,0 -2.48,-0.28 -3.12,-0.85 -0.64,-0.57 -0.96,-1.41 -0.96,-2.54 0,-1.08 0.33,-2.56 1,-4.43 0.67,-1.88 1.53,-3.89 2.58,-6.05 1.05,-2.16 2.17,-4.21 3.35,-6.16 1.18,-1.95 2.32,-3.56 3.43,-4.82 1.1,-1.26 1.99,-1.89 2.66,-1.89 0.92,0 1.39,0.41 1.39,1.23 0,0.51 -0.44,1.49 -1.31,2.93 -0.87,1.44 -1.82,2.93 -2.85,4.47 -0.41,0.57 -0.98,1.34 -1.7,2.31 -0.72,0.98 -1.41,1.89 -2.08,2.74 -0.67,0.85 -1.1,1.43 -1.31,1.73 -0.51,0.77 -1.05,2.03 -1.62,3.78 -0.62,1.75 -0.92,3.08 -0.92,4.01 0,0.41 0.09,0.72 0.27,0.92 0.18,0.21 0.6,0.31 1.27,0.31 1.28,0 2.72,-0.41 4.32,-1.23 1.59,-0.82 3.21,-1.86 4.85,-3.12 1.64,-1.26 3.2,-2.56 4.66,-3.89 1.46,-1.34 2.71,-2.49 3.74,-3.47 0.21,-0.21 0.51,-0.31 0.92,-0.31 0.77,0 1.16,0.31 1.16,0.92 0,0.57 -0.36,1.21 -1.08,1.93 -1.39,1.39 -2.67,2.62 -3.85,3.7 -1.18,1.08 -2.31,2.03 -3.39,2.85 -1.7,1.23 -3.57,2.36 -5.63,3.39 -2.05,1.03 -3.98,1.54 -5.78,1.54zm18.65 -0.08c-2.98,0 -4.47,-1.41 -4.47,-4.24 0,-1.85 0.45,-3.84 1.35,-5.97 0.9,-2.13 2.12,-4.21 3.66,-6.24 1.54,-2.03 3.26,-3.88 5.16,-5.55 1.9,-1.67 3.85,-3.01 5.86,-4.01 2,-1 3.93,-1.5 5.78,-1.5 3.29,0 4.93,1.62 4.93,4.85 0,2.11 -0.51,3.16 -1.54,3.16 -0.92,0 -1.39,-0.44 -1.39,-1.31 0,-0.36 0.09,-0.73 0.27,-1.12 0.18,-0.39 0.27,-0.81 0.27,-1.27 0,-1.44 -0.98,-2.16 -2.93,-2.16 -3.13,0 -7.06,2.39 -11.79,7.17 -1.13,1.18 -2.23,2.57 -3.31,4.16 -1.08,1.59 -1.96,3.2 -2.66,4.82 -0.69,1.62 -1.04,3.15 -1.04,4.59 0,1.39 0.77,2.08 2.31,2.08 1.34,0 2.76,-0.41 4.28,-1.23 1.52,-0.82 2.84,-1.67 3.97,-2.54 2.26,-1.7 4.57,-4.01 6.94,-6.94 0.36,-0.41 0.82,-0.95 1.39,-1.62 0.56,-0.67 1.21,-1.41 1.93,-2.23 0.26,-0.26 0.57,-0.39 0.92,-0.39 0.82,0 1.23,0.41 1.23,1.23l-2.93 4.39c-1.95,2.88 -2.93,5.24 -2.93,7.09 0,1.34 0.64,2 1.93,2 1.08,0 2.26,-0.28 3.54,-0.85 1.28,-0.57 2.34,-1.13 3.16,-1.7 1.64,-1.08 3.37,-2.43 5.16,-4.05 1.8,-1.62 3.52,-3.25 5.16,-4.89 0.21,-0.21 0.51,-0.31 0.92,-0.31 0.77,0 1.16,0.31 1.16,0.92 0,0.57 -0.36,1.21 -1.08,1.93 -2.05,2.05 -3.9,3.81 -5.55,5.28 -1.64,1.46 -3.21,2.66 -4.7,3.58 -0.98,0.57 -2.18,1.16 -3.62,1.77 -1.44,0.62 -3.08,0.92 -4.93,0.92 -2.52,0 -3.78,-1.34 -3.78,-4.01 0,-1.03 0.13,-1.88 0.38,-2.54 -4.68,4.47 -9.02,6.7 -13.02,6.7zm50.71 2.54c-0.36,0 -0.77,-0.18 -1.23,-0.54 -0.46,-0.36 -0.69,-0.75 -0.69,-1.16 0,-0.46 0.51,-1.64 1.54,-3.55 1.03,-1.9 2.67,-4.75 4.93,-8.55 2.26,-3.8 5.21,-8.73 8.86,-14.8l10.09 -16.88c0.57,-1.03 1.26,-2.23 2.08,-3.62 0.82,-1.39 1.82,-3.03 3.01,-4.93 0.31,-0.46 0.64,-0.69 1,-0.69 0.36,0 0.72,0.17 1.08,0.5 0.36,0.33 0.54,0.68 0.54,1.04 0,0.21 -1.28,2.48 -3.85,6.82 -2.57,4.34 -6.45,10.8 -11.64,19.38 -1.95,3.24 -4.07,6.81 -6.36,10.71 -2.29,3.9 -4.71,8.14 -7.28,12.72 14.9,-4.01 26.35,-6.01 34.37,-6.01 2.41,0 4.43,0.4 6.05,1.19 1.62,0.8 2.43,1.58 2.43,2.35 0,0.87 -0.44,1.31 -1.31,1.31 -0.72,0 -1.08,-0.38 -1.08,-1.16l0 -0.23c-0.51,-0.26 -1.39,-0.46 -2.62,-0.62 -1.23,-0.15 -2.65,-0.23 -4.24,-0.23 -1.95,0 -4.16,0.17 -6.63,0.5 -2.47,0.33 -4.97,0.74 -7.51,1.23 -2.54,0.49 -4.92,0.99 -7.13,1.5 -2.16,0.46 -4.2,0.96 -6.13,1.5 -1.93,0.54 -3.71,1.01 -5.36,1.43 -0.98,0.21 -1.68,0.38 -2.12,0.54 -0.44,0.15 -0.71,0.23 -0.81,0.23zm67.2 -33.68c-0.87,0 -1.31,-0.44 -1.31,-1.31 0,-0.26 0.18,-0.73 0.54,-1.43 0.36,-0.69 0.77,-1.4 1.23,-2.12 0.46,-0.72 0.82,-1.21 1.08,-1.46 0.87,-0.98 1.55,-1.59 2.04,-1.85 0.49,-0.26 0.94,-0.39 1.35,-0.39 1.08,0 1.62,0.49 1.62,1.46 0,0.36 -0.22,0.78 -0.66,1.27 -0.44,0.49 -0.94,0.94 -1.5,1.35 -0.82,0.51 -1.34,0.92 -1.54,1.23l-1.7 2.39c-0.05,0.21 -0.17,0.4 -0.35,0.58 -0.18,0.18 -0.45,0.27 -0.81,0.27zm-13.1 31.21c-1.44,0 -2.48,-0.28 -3.12,-0.85 -0.64,-0.57 -0.96,-1.41 -0.96,-2.54 0,-1.08 0.33,-2.56 1,-4.43 0.67,-1.88 1.53,-3.89 2.58,-6.05 1.05,-2.16 2.17,-4.21 3.35,-6.16 1.18,-1.95 2.32,-3.56 3.43,-4.82 1.1,-1.26 1.99,-1.89 2.66,-1.89 0.92,0 1.39,0.41 1.39,1.23 0,0.51 -0.44,1.49 -1.31,2.93 -0.87,1.44 -1.82,2.93 -2.85,4.47 -0.41,0.57 -0.98,1.34 -1.7,2.31 -0.72,0.98 -1.41,1.89 -2.08,2.74 -0.67,0.85 -1.1,1.43 -1.31,1.73 -0.51,0.77 -1.05,2.03 -1.62,3.78 -0.62,1.75 -0.92,3.08 -0.92,4.01 0,0.41 0.09,0.72 0.27,0.92 0.18,0.21 0.6,0.31 1.27,0.31 1.28,0 2.72,-0.41 4.32,-1.23 1.59,-0.82 3.21,-1.86 4.85,-3.12 1.64,-1.26 3.2,-2.56 4.66,-3.89 1.46,-1.34 2.71,-2.49 3.74,-3.47 0.21,-0.21 0.51,-0.31 0.92,-0.31 0.77,0 1.16,0.31 1.16,0.92 0,0.57 -0.36,1.21 -1.08,1.93 -1.39,1.39 -2.67,2.62 -3.85,3.7 -1.18,1.08 -2.31,2.03 -3.39,2.85 -1.7,1.23 -3.57,2.36 -5.63,3.39 -2.05,1.03 -3.98,1.54 -5.78,1.54zm12.64 1.08c-0.82,0 -1.23,-0.33 -1.23,-1 0,-0.26 0.1,-0.58 0.31,-0.96 0.21,-0.38 0.39,-0.71 0.54,-0.96l6.94 -13.95c2.98,-6.06 4.47,-9.43 4.47,-10.1 0,-0.72 0.36,-1.08 1.08,-1.08 0.98,0 1.46,0.51 1.46,1.54 0,0.36 -0.23,1.13 -0.69,2.31 -0.46,1.18 -1.05,2.52 -1.77,4.01 -1.23,2.67 -2.26,4.73 -3.08,6.16 1.54,-1.8 3.11,-3.49 4.7,-5.09 1.59,-1.59 3.21,-3.11 4.85,-4.55 4.88,-4.26 8.63,-6.4 11.25,-6.4 1.8,0 2.7,0.85 2.7,2.54 0,1.54 -1.31,5.01 -3.93,10.4 -2.62,5.45 -3.93,8.89 -3.93,10.33 0,0.67 0.23,1 0.69,1 0.15,0 0.4,-0.06 0.73,-0.19 0.33,-0.13 0.68,-0.19 1.04,-0.19 0.87,0 1.31,0.41 1.31,1.23 0,1.03 -1.1,1.54 -3.31,1.54 -1.03,0 -1.77,-0.24 -2.23,-0.73 -0.46,-0.49 -0.69,-1.14 -0.69,-1.96 0,-2.47 1.26,-6.22 3.78,-11.25 2.52,-4.98 3.78,-7.99 3.78,-9.02 0,-0.62 -0.23,-0.92 -0.69,-0.92 -1.13,0 -2.95,0.95 -5.47,2.85 -2.72,2.05 -5.45,4.42 -8.17,7.09 -2.72,2.67 -5.32,5.73 -7.78,9.17l-5.39 7.47c-0.31,0.46 -0.72,0.69 -1.23,0.69zm39.53 -2.31c-4.16,0 -6.24,-2.34 -6.24,-7.01 0,-2.16 0.51,-4.42 1.54,-6.78 1.03,-2.36 2.39,-4.56 4.08,-6.59 1.7,-2.03 3.58,-3.69 5.66,-4.97 2.08,-1.28 4.2,-1.93 6.36,-1.93 1.9,0 3.29,0.72 4.16,2.16 0.87,1.44 1.31,3.03 1.31,4.78 0,2.31 -0.46,4.66 -1.39,7.05 -0.92,2.39 -2.18,4.59 -3.78,6.59 -1.59,2 -3.39,3.62 -5.39,4.85 -2,1.23 -4.11,1.85 -6.32,1.85zm-0.08 -2.47c0.31,0 0.49,-0.03 0.54,-0.08 2,-0.26 3.85,-0.98 5.55,-2.16 1.7,-1.18 3.17,-2.66 4.43,-4.43 1.26,-1.77 2.22,-3.69 2.89,-5.74 0.67,-2.05 1,-4.08 1,-6.09 0,-1.18 -0.33,-2.11 -1,-2.77 -0.67,-0.67 -1.52,-1 -2.54,-1 -1.49,0 -3.07,0.62 -4.74,1.85 -1.67,1.23 -3.24,2.8 -4.7,4.7 -1.46,1.9 -2.66,3.89 -3.58,5.97 -0.92,2.08 -1.39,3.94 -1.39,5.59 0,2.77 1.18,4.16 3.55,4.16z"/>
  <path class="fil0" d="M5.96 242.81c-1.12,0 -2.14,-0.26 -3.04,-0.77 -0.9,-0.52 -1.61,-1.24 -2.14,-2.16 -0.52,-0.92 -0.79,-1.99 -0.79,-3.19 0,-1.22 0.26,-2.28 0.79,-3.2 0.52,-0.92 1.24,-1.63 2.14,-2.15 0.9,-0.52 1.91,-0.77 3.04,-0.77 1.06,0 2.02,0.25 2.88,0.74 0.85,0.49 1.53,1.19 2.03,2.1 0.5,0.91 0.75,2 0.75,3.28 0,1.25 -0.25,2.33 -0.74,3.26 -0.49,0.92 -1.17,1.63 -2.02,2.13 -0.85,0.49 -1.82,0.74 -2.9,0.74zm0.07 -1.04c0.92,0 1.75,-0.21 2.48,-0.64 0.73,-0.42 1.31,-1.02 1.73,-1.79 0.42,-0.77 0.64,-1.66 0.64,-2.66 0,-1.02 -0.21,-1.91 -0.64,-2.67 -0.42,-0.76 -1,-1.36 -1.73,-1.78 -0.73,-0.42 -1.56,-0.64 -2.48,-0.64 -0.92,0 -1.75,0.21 -2.48,0.64 -0.73,0.42 -1.31,1.02 -1.73,1.78 -0.42,0.76 -0.64,1.65 -0.64,2.67 0,1 0.21,1.89 0.64,2.66 0.42,0.77 1,1.37 1.73,1.79 0.73,0.42 1.56,0.64 2.48,0.64zm4.88 0.95l0 -3.95 0.21 -2.1 -0.23 -2.1 0 -8.99 1.16 0 0 17.15 -1.13 0zm12.86 0.09c-1.22,0 -2.29,-0.26 -3.22,-0.79 -0.93,-0.52 -1.66,-1.25 -2.19,-2.17 -0.53,-0.92 -0.8,-1.98 -0.8,-3.17 0,-1.2 0.25,-2.26 0.75,-3.18 0.5,-0.92 1.19,-1.64 2.07,-2.16 0.88,-0.52 1.86,-0.79 2.96,-0.79 1.09,0 2.08,0.25 2.95,0.76 0.87,0.51 1.56,1.22 2.06,2.14 0.5,0.92 0.75,1.98 0.75,3.18 0,0.05 -0,0.1 -0.01,0.15 -0.01,0.05 -0.01,0.11 -0.01,0.17l-10.65 0 0 -0.9 10.03 0 -0.46 0.44c0.02,-0.94 -0.18,-1.78 -0.59,-2.53 -0.41,-0.75 -0.96,-1.33 -1.65,-1.76 -0.69,-0.42 -1.49,-0.64 -2.4,-0.64 -0.89,0 -1.69,0.21 -2.39,0.64 -0.7,0.42 -1.25,1.01 -1.65,1.76 -0.4,0.75 -0.6,1.6 -0.6,2.55l0 0.21c0,0.99 0.22,1.86 0.66,2.62 0.44,0.76 1.04,1.36 1.81,1.78 0.77,0.42 1.65,0.64 2.63,0.64 0.77,0 1.49,-0.14 2.16,-0.42 0.67,-0.28 1.24,-0.7 1.7,-1.27l0.67 0.76c-0.52,0.65 -1.18,1.14 -1.98,1.47 -0.79,0.33 -1.65,0.5 -2.58,0.5zm13.9 0c-1,0 -1.94,-0.15 -2.81,-0.44 -0.87,-0.29 -1.54,-0.66 -2.02,-1.11l0.53 -0.92c0.46,0.4 1.08,0.74 1.85,1.03 0.77,0.28 1.6,0.43 2.5,0.43 1.26,0 2.17,-0.21 2.73,-0.62 0.55,-0.42 0.83,-0.96 0.83,-1.64 0,-0.49 -0.14,-0.88 -0.43,-1.17 -0.28,-0.28 -0.67,-0.5 -1.14,-0.66 -0.48,-0.15 -1,-0.28 -1.57,-0.38 -0.57,-0.1 -1.14,-0.21 -1.71,-0.33 -0.57,-0.12 -1.09,-0.3 -1.57,-0.53 -0.48,-0.23 -0.86,-0.55 -1.14,-0.96 -0.28,-0.41 -0.43,-0.95 -0.43,-1.63 0,-0.62 0.17,-1.17 0.51,-1.66 0.34,-0.49 0.85,-0.89 1.52,-1.19 0.68,-0.3 1.52,-0.45 2.54,-0.45 0.75,0 1.51,0.11 2.28,0.32 0.76,0.22 1.38,0.5 1.86,0.85l-0.53 0.92c-0.51,-0.38 -1.08,-0.66 -1.71,-0.83 -0.63,-0.17 -1.27,-0.25 -1.92,-0.25 -1.17,0 -2.03,0.22 -2.58,0.65 -0.55,0.43 -0.82,0.97 -0.82,1.62 0,0.51 0.14,0.91 0.43,1.21 0.28,0.3 0.67,0.53 1.14,0.69 0.48,0.16 1,0.29 1.57,0.39 0.57,0.1 1.14,0.21 1.71,0.34 0.57,0.12 1.09,0.3 1.57,0.52 0.48,0.22 0.86,0.53 1.14,0.92 0.28,0.39 0.43,0.92 0.43,1.58 0,0.66 -0.18,1.24 -0.54,1.73 -0.36,0.49 -0.9,0.88 -1.61,1.16 -0.71,0.28 -1.58,0.42 -2.61,0.42zm9.95 -0.09l0 -12.06 1.16 0 0 12.06 -1.16 0zm0.58 -15c-0.26,0 -0.48,-0.09 -0.67,-0.28 -0.19,-0.19 -0.28,-0.4 -0.28,-0.65 0,-0.26 0.09,-0.49 0.28,-0.67 0.19,-0.18 0.41,-0.28 0.67,-0.28 0.28,0 0.5,0.09 0.68,0.27 0.18,0.18 0.27,0.4 0.27,0.66 0,0.26 -0.09,0.49 -0.27,0.67 -0.18,0.18 -0.4,0.28 -0.68,0.28zm12.42 19.57c-1.09,0 -2.13,-0.17 -3.12,-0.51 -0.99,-0.34 -1.79,-0.81 -2.4,-1.41l0.62 -0.88c0.6,0.55 1.32,0.99 2.16,1.29 0.84,0.31 1.74,0.46 2.71,0.46 1.62,0 2.81,-0.38 3.57,-1.13 0.76,-0.76 1.14,-1.94 1.14,-3.56l0 -3.35 0.23 -1.8 -0.19 -1.8 0 -3.95 1.11 0 0 10.77c0,2.02 -0.49,3.5 -1.47,4.45 -0.98,0.95 -2.44,1.42 -4.38,1.42zm-0.32 -5.01c-1.14,0 -2.16,-0.25 -3.06,-0.75 -0.9,-0.5 -1.62,-1.19 -2.15,-2.08 -0.53,-0.89 -0.8,-1.9 -0.8,-3.04 0,-1.16 0.27,-2.17 0.8,-3.05 0.53,-0.88 1.25,-1.56 2.15,-2.06 0.9,-0.49 1.92,-0.74 3.06,-0.74 1.09,0 2.08,0.23 2.95,0.7 0.87,0.47 1.56,1.14 2.07,2.01 0.51,0.87 0.76,1.91 0.76,3.13 0,1.2 -0.25,2.24 -0.76,3.12 -0.51,0.88 -1.2,1.56 -2.07,2.03 -0.87,0.48 -1.85,0.72 -2.95,0.72zm0.09 -1.04c0.97,0 1.83,-0.2 2.56,-0.61 0.74,-0.41 1.32,-0.98 1.74,-1.71 0.42,-0.73 0.64,-1.57 0.64,-2.51 0,-0.96 -0.21,-1.8 -0.64,-2.52 -0.42,-0.72 -1,-1.29 -1.74,-1.69 -0.74,-0.4 -1.59,-0.6 -2.56,-0.6 -0.94,0 -1.78,0.2 -2.53,0.6 -0.75,0.4 -1.33,0.96 -1.76,1.69 -0.42,0.72 -0.64,1.56 -0.64,2.52 0,0.94 0.21,1.78 0.64,2.51 0.42,0.73 1.01,1.3 1.76,1.71 0.75,0.41 1.59,0.61 2.53,0.61zm18.82 -10.68c0.99,0 1.84,0.19 2.58,0.57 0.73,0.38 1.3,0.95 1.71,1.71 0.41,0.76 0.61,1.71 0.61,2.83l0 7.05 -1.16 0 0 -6.96c0,-1.36 -0.34,-2.39 -1.03,-3.1 -0.69,-0.71 -1.64,-1.06 -2.88,-1.06 -0.94,0 -1.76,0.19 -2.45,0.58 -0.69,0.39 -1.22,0.92 -1.58,1.62 -0.36,0.69 -0.54,1.52 -0.54,2.5l0 6.42 -1.16 0 0 -12.06 1.11 0 0 3.35 -0.16 -0.37c0.37,-0.96 0.98,-1.71 1.83,-2.25 0.85,-0.55 1.89,-0.82 3.12,-0.82zm16.51 12.25c-1.22,0 -2.29,-0.26 -3.22,-0.79 -0.93,-0.52 -1.66,-1.25 -2.19,-2.17 -0.53,-0.92 -0.8,-1.98 -0.8,-3.17 0,-1.2 0.25,-2.26 0.75,-3.18 0.5,-0.92 1.19,-1.64 2.07,-2.16 0.88,-0.52 1.86,-0.79 2.96,-0.79 1.09,0 2.08,0.25 2.95,0.76 0.87,0.51 1.56,1.22 2.06,2.14 0.5,0.92 0.75,1.98 0.75,3.18 0,0.05 -0,0.1 -0.01,0.15 -0.01,0.05 -0.01,0.11 -0.01,0.17l-10.65 0 0 -0.9 10.03 0 -0.46 0.44c0.02,-0.94 -0.18,-1.78 -0.59,-2.53 -0.41,-0.75 -0.96,-1.33 -1.65,-1.76 -0.69,-0.42 -1.49,-0.64 -2.4,-0.64 -0.89,0 -1.69,0.21 -2.39,0.64 -0.7,0.42 -1.25,1.01 -1.65,1.76 -0.4,0.75 -0.6,1.6 -0.6,2.55l0 0.21c0,0.99 0.22,1.86 0.66,2.62 0.44,0.76 1.04,1.36 1.81,1.78 0.77,0.42 1.65,0.64 2.63,0.64 0.77,0 1.49,-0.14 2.16,-0.42 0.67,-0.28 1.24,-0.7 1.7,-1.27l0.67 0.76c-0.52,0.65 -1.18,1.14 -1.98,1.47 -0.79,0.33 -1.65,0.5 -2.58,0.5zm10.85 -0.09l0 -12.06 1.11 0 0 3.3 -0.12 -0.37c0.34,-0.97 0.91,-1.72 1.71,-2.24 0.8,-0.52 1.8,-0.79 3,-0.79l0 1.13c-0.05,0 -0.09,-0 -0.14,-0.01 -0.05,-0.01 -0.09,-0.01 -0.14,-0.01 -1.34,0 -2.39,0.42 -3.14,1.26 -0.75,0.84 -1.13,2.01 -1.13,3.5l0 6.29 -1.16 0zm27.58 0.09c-1.12,0 -2.14,-0.26 -3.04,-0.77 -0.9,-0.52 -1.61,-1.24 -2.14,-2.16 -0.52,-0.92 -0.79,-1.99 -0.79,-3.19 0,-1.22 0.26,-2.28 0.79,-3.2 0.52,-0.92 1.24,-1.63 2.14,-2.15 0.9,-0.52 1.91,-0.77 3.04,-0.77 1.06,0 2.02,0.25 2.88,0.74 0.85,0.49 1.53,1.19 2.03,2.1 0.5,0.91 0.75,2 0.75,3.28 0,1.25 -0.25,2.33 -0.74,3.26 -0.49,0.92 -1.17,1.63 -2.02,2.13 -0.85,0.49 -1.82,0.74 -2.9,0.74zm0.07 -1.04c0.92,0 1.75,-0.21 2.48,-0.64 0.73,-0.42 1.31,-1.02 1.73,-1.79 0.42,-0.77 0.64,-1.66 0.64,-2.66 0,-1.02 -0.21,-1.91 -0.64,-2.67 -0.42,-0.76 -1,-1.36 -1.73,-1.78 -0.73,-0.42 -1.56,-0.64 -2.48,-0.64 -0.92,0 -1.75,0.21 -2.48,0.64 -0.73,0.42 -1.31,1.02 -1.73,1.78 -0.42,0.76 -0.64,1.65 -0.64,2.67 0,1 0.21,1.89 0.64,2.66 0.42,0.77 1,1.37 1.73,1.79 0.73,0.42 1.56,0.64 2.48,0.64zm4.88 0.95l0 -3.95 0.21 -2.1 -0.23 -2.1 0 -8.99 1.16 0 0 17.15 -1.13 0zm12.86 0.09c-1.22,0 -2.29,-0.26 -3.22,-0.79 -0.93,-0.52 -1.66,-1.25 -2.19,-2.17 -0.53,-0.92 -0.8,-1.98 -0.8,-3.17 0,-1.2 0.25,-2.26 0.75,-3.18 0.5,-0.92 1.19,-1.64 2.07,-2.16 0.88,-0.52 1.86,-0.79 2.96,-0.79 1.09,0 2.08,0.25 2.95,0.76 0.87,0.51 1.56,1.22 2.06,2.14 0.5,0.92 0.75,1.98 0.75,3.18 0,0.05 -0,0.1 -0.01,0.15 -0.01,0.05 -0.01,0.11 -0.01,0.17l-10.65 0 0 -0.9 10.03 0 -0.46 0.44c0.02,-0.94 -0.18,-1.78 -0.59,-2.53 -0.41,-0.75 -0.96,-1.33 -1.65,-1.76 -0.69,-0.42 -1.49,-0.64 -2.4,-0.64 -0.89,0 -1.69,0.21 -2.39,0.64 -0.7,0.42 -1.25,1.01 -1.65,1.76 -0.4,0.75 -0.6,1.6 -0.6,2.55l0 0.21c0,0.99 0.22,1.86 0.66,2.62 0.44,0.76 1.04,1.36 1.81,1.78 0.77,0.42 1.65,0.64 2.63,0.64 0.77,0 1.49,-0.14 2.16,-0.42 0.67,-0.28 1.24,-0.7 1.7,-1.27l0.67 0.76c-0.52,0.65 -1.18,1.14 -1.98,1.47 -0.79,0.33 -1.65,0.5 -2.58,0.5zm22.73 -0.09l0 -12.06 1.16 0 0 12.06 -1.16 0zm0.58 -15c-0.26,0 -0.48,-0.09 -0.67,-0.28 -0.19,-0.19 -0.28,-0.4 -0.28,-0.65 0,-0.26 0.09,-0.49 0.28,-0.67 0.19,-0.18 0.41,-0.28 0.67,-0.28 0.28,0 0.5,0.09 0.68,0.27 0.18,0.18 0.27,0.4 0.27,0.66 0,0.26 -0.09,0.49 -0.27,0.67 -0.18,0.18 -0.4,0.28 -0.68,0.28zm13.3 2.84c0.99,0 1.84,0.19 2.58,0.57 0.73,0.38 1.3,0.95 1.71,1.71 0.41,0.76 0.61,1.71 0.61,2.83l0 7.05 -1.16 0 0 -6.96c0,-1.36 -0.34,-2.39 -1.03,-3.1 -0.69,-0.71 -1.64,-1.06 -2.88,-1.06 -0.94,0 -1.76,0.19 -2.45,0.58 -0.69,0.39 -1.22,0.92 -1.58,1.62 -0.36,0.69 -0.54,1.52 -0.54,2.5l0 6.42 -1.16 0 0 -12.06 1.11 0 0 3.35 -0.16 -0.37c0.37,-0.96 0.98,-1.71 1.83,-2.25 0.85,-0.55 1.89,-0.82 3.12,-0.82zm15.13 12.25c-1.06,0 -1.88,-0.29 -2.44,-0.88 -0.56,-0.59 -0.84,-1.39 -0.84,-2.4l0 -11.51 1.16 0 0 11.39c0,0.77 0.19,1.36 0.58,1.78 0.38,0.42 0.94,0.62 1.66,0.62 0.76,0 1.38,-0.22 1.87,-0.67l0.49 0.81c-0.31,0.29 -0.68,0.51 -1.12,0.65 -0.44,0.14 -0.89,0.21 -1.35,0.21zm-5.5 -11.16l0 -0.99 7.21 0 0 0.99 -7.21 0zm18.04 11.16c-1.22,0 -2.29,-0.26 -3.22,-0.79 -0.93,-0.52 -1.66,-1.25 -2.19,-2.17 -0.53,-0.92 -0.8,-1.98 -0.8,-3.17 0,-1.2 0.25,-2.26 0.75,-3.18 0.5,-0.92 1.19,-1.64 2.07,-2.16 0.88,-0.52 1.86,-0.79 2.96,-0.79 1.09,0 2.08,0.25 2.95,0.76 0.87,0.51 1.56,1.22 2.06,2.14 0.5,0.92 0.75,1.98 0.75,3.18 0,0.05 -0,0.1 -0.01,0.15 -0.01,0.05 -0.01,0.11 -0.01,0.17l-10.65 0 0 -0.9 10.03 0 -0.46 0.44c0.02,-0.94 -0.18,-1.78 -0.59,-2.53 -0.41,-0.75 -0.96,-1.33 -1.65,-1.76 -0.69,-0.42 -1.49,-0.64 -2.4,-0.64 -0.89,0 -1.69,0.21 -2.39,0.64 -0.7,0.42 -1.25,1.01 -1.65,1.76 -0.4,0.75 -0.6,1.6 -0.6,2.55l0 0.21c0,0.99 0.22,1.86 0.66,2.62 0.44,0.76 1.04,1.36 1.81,1.78 0.77,0.42 1.65,0.64 2.63,0.64 0.77,0 1.49,-0.14 2.16,-0.42 0.67,-0.28 1.24,-0.7 1.7,-1.27l0.67 0.76c-0.52,0.65 -1.18,1.14 -1.98,1.47 -0.79,0.33 -1.65,0.5 -2.58,0.5zm10.85 -0.09l0 -12.06 1.11 0 0 3.3 -0.12 -0.37c0.34,-0.97 0.91,-1.72 1.71,-2.24 0.8,-0.52 1.8,-0.79 3,-0.79l0 1.13c-0.05,0 -0.09,-0 -0.14,-0.01 -0.05,-0.01 -0.09,-0.01 -0.14,-0.01 -1.34,0 -2.39,0.42 -3.14,1.26 -0.75,0.84 -1.13,2.01 -1.13,3.5l0 6.29 -1.16 0zm11.06 0l0 -12.06 1.16 0 0 12.06 -1.16 0zm0.58 -15c-0.26,0 -0.48,-0.09 -0.67,-0.28 -0.19,-0.19 -0.28,-0.4 -0.28,-0.65 0,-0.26 0.09,-0.49 0.28,-0.67 0.19,-0.18 0.41,-0.28 0.67,-0.28 0.28,0 0.5,0.09 0.68,0.27 0.18,0.18 0.27,0.4 0.27,0.66 0,0.26 -0.09,0.49 -0.27,0.67 -0.18,0.18 -0.4,0.28 -0.68,0.28zm12.12 15.09c-1.16,0 -2.18,-0.26 -3.08,-0.79 -0.9,-0.52 -1.62,-1.25 -2.15,-2.17 -0.53,-0.92 -0.8,-1.98 -0.8,-3.17 0,-1.2 0.27,-2.26 0.8,-3.18 0.53,-0.92 1.25,-1.64 2.15,-2.16 0.9,-0.52 1.93,-0.79 3.08,-0.79 1.16,0 2.19,0.26 3.1,0.79 0.91,0.52 1.63,1.24 2.15,2.16 0.52,0.92 0.79,1.98 0.79,3.18 0,1.19 -0.26,2.24 -0.79,3.17 -0.52,0.92 -1.24,1.65 -2.15,2.17 -0.91,0.52 -1.94,0.79 -3.1,0.79zm0 -1.04c0.92,0 1.76,-0.21 2.5,-0.64 0.74,-0.42 1.32,-1.02 1.73,-1.79 0.42,-0.77 0.62,-1.66 0.62,-2.66 0,-1.02 -0.21,-1.91 -0.62,-2.67 -0.42,-0.76 -0.99,-1.36 -1.73,-1.78 -0.74,-0.42 -1.57,-0.64 -2.5,-0.64 -0.92,0 -1.75,0.21 -2.48,0.64 -0.73,0.42 -1.31,1.02 -1.73,1.78 -0.42,0.76 -0.64,1.65 -0.64,2.67 0,1 0.21,1.89 0.64,2.66 0.42,0.77 1,1.37 1.73,1.79 0.73,0.42 1.56,0.64 2.48,0.64zm11.57 0.95l0 -12.06 1.11 0 0 3.3 -0.12 -0.37c0.34,-0.97 0.91,-1.72 1.71,-2.24 0.8,-0.52 1.8,-0.79 3,-0.79l0 1.13c-0.05,0 -0.09,-0 -0.14,-0.01 -0.05,-0.01 -0.09,-0.01 -0.14,-0.01 -1.34,0 -2.39,0.42 -3.14,1.26 -0.75,0.84 -1.13,2.01 -1.13,3.5l0 6.29 -1.16 0zm15.96 0.09c-1.22,0 -2.29,-0.26 -3.22,-0.79 -0.93,-0.52 -1.66,-1.25 -2.19,-2.17 -0.53,-0.92 -0.8,-1.98 -0.8,-3.17 0,-1.2 0.25,-2.26 0.75,-3.18 0.5,-0.92 1.19,-1.64 2.07,-2.16 0.88,-0.52 1.86,-0.79 2.96,-0.79 1.09,0 2.08,0.25 2.95,0.76 0.87,0.51 1.56,1.22 2.06,2.14 0.5,0.92 0.75,1.98 0.75,3.18 0,0.05 -0,0.1 -0.01,0.15 -0.01,0.05 -0.01,0.11 -0.01,0.17l-10.65 0 0 -0.9 10.03 0 -0.46 0.44c0.02,-0.94 -0.18,-1.78 -0.59,-2.53 -0.41,-0.75 -0.96,-1.33 -1.65,-1.76 -0.69,-0.42 -1.49,-0.64 -2.4,-0.64 -0.89,0 -1.69,0.21 -2.39,0.64 -0.7,0.42 -1.25,1.01 -1.65,1.76 -0.4,0.75 -0.6,1.6 -0.6,2.55l0 0.21c0,0.99 0.22,1.86 0.66,2.62 0.44,0.76 1.04,1.36 1.81,1.78 0.77,0.42 1.65,0.64 2.63,0.64 0.77,0 1.49,-0.14 2.16,-0.42 0.67,-0.28 1.24,-0.7 1.7,-1.27l0.67 0.76c-0.52,0.65 -1.18,1.14 -1.98,1.47 -0.79,0.33 -1.65,0.5 -2.58,0.5zm13.9 0c-1,0 -1.94,-0.15 -2.81,-0.44 -0.87,-0.29 -1.54,-0.66 -2.02,-1.11l0.53 -0.92c0.46,0.4 1.08,0.74 1.85,1.03 0.77,0.28 1.6,0.43 2.5,0.43 1.26,0 2.17,-0.21 2.73,-0.62 0.55,-0.42 0.83,-0.96 0.83,-1.64 0,-0.49 -0.14,-0.88 -0.43,-1.17 -0.28,-0.28 -0.67,-0.5 -1.14,-0.66 -0.48,-0.15 -1,-0.28 -1.57,-0.38 -0.57,-0.1 -1.14,-0.21 -1.71,-0.33 -0.57,-0.12 -1.09,-0.3 -1.57,-0.53 -0.48,-0.23 -0.86,-0.55 -1.14,-0.96 -0.28,-0.41 -0.43,-0.95 -0.43,-1.63 0,-0.62 0.17,-1.17 0.51,-1.66 0.34,-0.49 0.85,-0.89 1.52,-1.19 0.68,-0.3 1.52,-0.45 2.54,-0.45 0.75,0 1.51,0.11 2.28,0.32 0.76,0.22 1.38,0.5 1.86,0.85l-0.53 0.92c-0.51,-0.38 -1.08,-0.66 -1.71,-0.83 -0.63,-0.17 -1.27,-0.25 -1.92,-0.25 -1.17,0 -2.03,0.22 -2.58,0.65 -0.55,0.43 -0.82,0.97 -0.82,1.62 0,0.51 0.14,0.91 0.43,1.21 0.28,0.3 0.67,0.53 1.14,0.69 0.48,0.16 1,0.29 1.57,0.39 0.57,0.1 1.14,0.21 1.71,0.34 0.57,0.12 1.09,0.3 1.57,0.52 0.48,0.22 0.86,0.53 1.14,0.92 0.28,0.39 0.43,0.92 0.43,1.58 0,0.66 -0.18,1.24 -0.54,1.73 -0.36,0.49 -0.9,0.88 -1.61,1.16 -0.71,0.28 -1.58,0.42 -2.61,0.42z"/>
  <g id="_2226884839792">
   <path class="fil1" d="M148.52 0c40.23,0 72.84,32.61 72.84,72.84 0,40.23 -32.61,72.84 -72.84,72.84 -40.23,0 -72.84,-32.61 -72.84,-72.84 0,-40.23 32.61,-72.84 72.84,-72.84z"/>
   <path class="fil2" d="M148.52 0c40.23,0 72.84,32.61 72.84,72.84 0,21.26 -9.11,40.39 -23.64,53.71l-35 0c-38.37,0 -69.6,-31.23 -69.6,-69.6l0 -31.4c13.36,-15.63 33.22,-25.55 55.39,-25.55z"/>
   <path class="fil1" d="M148.52 0c40.23,0 72.84,32.61 72.84,72.84 0,7.92 -1.27,15.55 -3.61,22.69l-66.8 0c-25.56,-0 -46.4,-20.84 -46.4,-46.4l0 -34.37c12.22,-9.26 27.45,-14.76 43.96,-14.76z"/>
   <path class="fil3" d="M148.52 0c40.23,0 72.84,32.61 72.84,72.84 0,7.92 -1.27,15.55 -3.61,22.69l-66.8 0c-25.56,-0 -46.4,-20.84 -46.4,-46.4l0 -34.37c12.22,-9.26 27.45,-14.76 43.96,-14.76z"/>
   <path class="fil4" d="M148.52 0c40.06,0 72.56,32.34 72.83,72.33l-80.26 0c-12.76,0 -23.2,-10.44 -23.2,-23.2l0 -42.39c9.31,-4.32 19.68,-6.74 30.62,-6.74z"/>
   <path class="fil5" d="M148.52 0c32.82,0 60.56,21.71 69.67,51.54l-70.27 0c-10.68,0 -19.43,-8.74 -19.43,-19.43l0 -29.33c6.36,-1.82 13.08,-2.79 20.03,-2.79z"/>
  </g>
 </g>
</svg>
