<?xml version="1.0" encoding="UTF-8"?>
<!DOCTYPE svg PUBLIC "-//W3C//DTD SVG 1.1//EN" "http://www.w3.org/Graphics/SVG/1.1/DTD/svg11.dtd">
<!-- Creator: CorelDRAW 2020 (64 Bit) -->
<svg xmlns="http://www.w3.org/2000/svg" xml:space="preserve" width="12mm" height="12mm" version="1.1" style="shape-rendering:geometricPrecision; text-rendering:geometricPrecision; image-rendering:optimizeQuality; fill-rule:evenodd; clip-rule:evenodd"
viewBox="0 0 36.42 36.42"
 xmlns:xlink="http://www.w3.org/1999/xlink"
 xmlns:xodm="http://www.corel.com/coreldraw/odm/2003">
 <defs>
  <style type="text/css">
   <![CDATA[
    .fil0 {fill:#FEFEFE}
   ]]>
  </style>
 </defs>
 <g id="Camada_x0020_1">
  <metadata id="CorelCorpID_0Corel-Layer"/>
  <path class="fil0" d="M18.21 0c10.06,0 18.21,8.15 18.21,18.21 0,10.06 -8.15,18.21 -18.21,18.21 -10.06,0 -18.21,-8.15 -18.21,-18.21 0,-10.06 8.15,-18.21 18.21,-18.21zm0 22.03c-2.11,0 -3.82,-1.71 -3.82,-3.82 0,-2.11 1.71,-3.82 3.82,-3.82 2.11,0 3.82,1.71 3.82,3.82 0,2.11 -1.71,3.82 -3.82,3.82zm0 -9.71c-3.25,0 -5.89,2.64 -5.89,5.89 0,3.25 2.64,5.89 5.89,5.89 3.25,0 5.89,-2.64 5.89,-5.89 0,-3.25 -2.64,-5.89 -5.89,-5.89zm0 -5.58c-3.11,0 -3.5,0.01 -4.73,0.07 -1.22,0.06 -2.05,0.25 -2.78,0.53 -0.75,0.29 -1.39,0.68 -2.03,1.32 -0.64,0.64 -1.03,1.28 -1.32,2.03 -0.28,0.73 -0.48,1.56 -0.53,2.78 -0.06,1.22 -0.07,1.61 -0.07,4.73 0,3.11 0.01,3.5 0.07,4.73 0.06,1.22 0.25,2.05 0.53,2.78 0.29,0.75 0.68,1.39 1.32,2.03 0.64,0.64 1.28,1.03 2.03,1.32 0.73,0.28 1.56,0.48 2.78,0.53 1.22,0.06 1.61,0.07 4.73,0.07 3.11,0 3.5,-0.01 4.73,-0.07 1.22,-0.06 2.05,-0.25 2.78,-0.53 0.75,-0.29 1.39,-0.69 2.03,-1.32 0.64,-0.64 1.03,-1.28 1.32,-2.03 0.28,-0.73 0.48,-1.56 0.53,-2.78 0.06,-1.22 0.07,-1.61 0.07,-4.73 0,-3.11 -0.01,-3.5 -0.07,-4.73 -0.06,-1.22 -0.25,-2.05 -0.53,-2.78 -0.29,-0.75 -0.69,-1.39 -1.32,-2.03 -0.64,-0.64 -1.28,-1.03 -2.03,-1.32 -0.73,-0.28 -1.56,-0.48 -2.78,-0.53 -1.22,-0.06 -1.61,-0.07 -4.73,-0.07l0 0zm0 2.07c3.06,0 3.42,0.01 4.63,0.07 1.12,0.05 1.72,0.24 2.13,0.39 0.54,0.21 0.92,0.46 1.32,0.86 0.4,0.4 0.65,0.78 0.86,1.32 0.16,0.4 0.34,1.01 0.39,2.13 0.05,1.21 0.07,1.57 0.07,4.63 0,3.06 -0.01,3.42 -0.07,4.63 -0.05,1.12 -0.24,1.72 -0.39,2.13 -0.21,0.54 -0.46,0.92 -0.86,1.32 -0.4,0.4 -0.78,0.65 -1.32,0.86 -0.4,0.16 -1.01,0.34 -2.13,0.39 -1.21,0.06 -1.57,0.07 -4.63,0.07 -3.06,0 -3.42,-0.01 -4.63,-0.07 -1.12,-0.05 -1.72,-0.24 -2.13,-0.39 -0.54,-0.21 -0.92,-0.46 -1.32,-0.86 -0.4,-0.4 -0.65,-0.78 -0.86,-1.32 -0.16,-0.4 -0.34,-1.01 -0.39,-2.13 -0.05,-1.21 -0.07,-1.57 -0.07,-4.63 0,-3.06 0.01,-3.42 0.07,-4.63 0.05,-1.12 0.24,-1.72 0.39,-2.13 0.21,-0.53 0.46,-0.92 0.86,-1.32 0.4,-0.4 0.78,-0.65 1.32,-0.86 0.4,-0.16 1.01,-0.34 2.13,-0.39 1.21,-0.05 1.57,-0.07 4.63,-0.07zm6.12 1.9c0.76,0 1.38,0.62 1.38,1.38 0,0.76 -0.62,1.38 -1.38,1.38 -0.76,0 -1.38,-0.62 -1.38,-1.38 0,-0.76 0.62,-1.38 1.38,-1.38z"/>
 </g>
</svg>
