<?xml version="1.0" encoding="UTF-8"?>
<!DOCTYPE svg PUBLIC "-//W3C//DTD SVG 1.1//EN" "http://www.w3.org/Graphics/SVG/1.1/DTD/svg11.dtd">
<!-- Creator: CorelDRAW 2020 (64 Bit) -->
<svg xmlns="http://www.w3.org/2000/svg" xml:space="preserve" width="12mm" height="12.0196mm" version="1.1" style="shape-rendering:geometricPrecision; text-rendering:geometricPrecision; image-rendering:optimizeQuality; fill-rule:evenodd; clip-rule:evenodd"
viewBox="0 0 36.38 36.44"
 xmlns:xlink="http://www.w3.org/1999/xlink"
 xmlns:xodm="http://www.corel.com/coreldraw/odm/2003">
 <defs>
  <style type="text/css">
   <![CDATA[
    .fil0 {fill:#FEFEFE;fill-rule:nonzero}
   ]]>
  </style>
 </defs>
 <g id="Camada_x0020_1">
  <metadata id="CorelCorpID_0Corel-Layer"/>
  <path class="fil0" d="M18.21 -0c-10.06,0 -18.21,8.15 -18.21,18.21 0,7.72 4.8,14.31 11.57,16.96 -0.16,-1.44 -0.3,-3.66 0.06,-5.23 0.33,-1.42 2.13,-9.05 2.13,-9.05 0,0 -0.54,-1.09 -0.54,-2.7 0,-2.53 1.47,-4.42 3.3,-4.42 1.56,0 2.31,1.17 2.31,2.56 0,1.56 -0.99,3.9 -1.51,6.07 -0.43,1.81 0.91,3.3 2.7,3.3 3.24,0 5.72,-3.42 5.72,-8.33 0,-4.36 -3.13,-7.4 -7.61,-7.4 -5.19,0 -8.23,3.88 -8.23,7.9 0,1.56 0.6,3.24 1.35,4.15 0.15,0.18 0.16,0.34 0.12,0.52 -0.13,0.57 -0.45,1.81 -0.51,2.07 -0.07,0.33 -0.27,0.4 -0.61,0.24 -2.28,-1.06 -3.7,-4.38 -3.7,-7.06 0,-5.74 4.17,-11.01 12.03,-11.01 6.31,0 11.22,4.5 11.22,10.52 0,6.28 -3.96,11.33 -9.44,11.33 -1.84,0 -3.58,-0.96 -4.17,-2.1 0,0 -0.91,3.48 -1.14,4.33 -0.4,1.59 -1.51,3.57 -2.26,4.78 1.71,0.52 3.51,0.81 5.39,0.81 10.05,0 18.21,-8.15 18.21,-18.21 0.03,-10.09 -8.12,-18.24 -18.18,-18.24z"/>
 </g>
</svg>
