<?xml version="1.0" encoding="UTF-8"?>
<!DOCTYPE svg PUBLIC "-//W3C//DTD SVG 1.1//EN" "http://www.w3.org/Graphics/SVG/1.1/DTD/svg11.dtd">
<!-- Creator: CorelDRAW 2020 (64 Bit) -->
<svg xmlns="http://www.w3.org/2000/svg" xml:space="preserve" width="32.4698mm" height="29.4252mm" version="1.1" style="shape-rendering:geometricPrecision; text-rendering:geometricPrecision; image-rendering:optimizeQuality; fill-rule:evenodd; clip-rule:evenodd"
viewBox="0 0 162.43 147.2"
 xmlns:xlink="http://www.w3.org/1999/xlink"
 xmlns:xodm="http://www.corel.com/coreldraw/odm/2003">
 <defs>
  <style type="text/css">
   <![CDATA[
    .fil3 {fill:#C895B8}
    .fil4 {fill:#BA78A3}
    .fil5 {fill:#A8518A}
    .fil2 {fill:#8694B4}
    .fil1 {fill:#52658C}
    .fil0 {fill:#FEFEFE;fill-rule:nonzero}
   ]]>
  </style>
   <clipPath id="id0">
    <path d="M29.44 0l103.58 0 0 103.58 -103.58 0 0 -103.58z"/>
   </clipPath>
 </defs>
 <g id="Camada_x0020_1">
  <metadata id="CorelCorpID_0Corel-Layer"/>
  <path class="fil0" d="M2.07 131.43c-0.2,0 -0.42,-0.1 -0.67,-0.3 -0.25,-0.2 -0.38,-0.41 -0.38,-0.63 0,-0.25 0.28,-0.9 0.84,-1.94 0.56,-1.04 1.46,-2.6 2.7,-4.68 1.24,-2.08 2.85,-4.78 4.85,-8.09l5.52 -9.23c0.31,-0.56 0.69,-1.22 1.14,-1.98 0.45,-0.76 1,-1.66 1.64,-2.7 0.17,-0.25 0.35,-0.38 0.55,-0.38 0.2,0 0.39,0.09 0.59,0.27 0.2,0.18 0.29,0.37 0.29,0.57 0,0.11 -0.7,1.36 -2.11,3.73 -1.4,2.37 -3.53,5.91 -6.36,10.6 -1.07,1.77 -2.23,3.72 -3.48,5.86 -1.25,2.14 -2.58,4.45 -3.98,6.95 8.15,-2.19 14.41,-3.29 18.8,-3.29 1.32,0 2.42,0.22 3.31,0.65 0.88,0.44 1.33,0.86 1.33,1.29 0,0.48 -0.24,0.72 -0.72,0.72 -0.39,0 -0.59,-0.21 -0.59,-0.63l0 -0.13c-0.28,-0.14 -0.76,-0.25 -1.43,-0.34 -0.67,-0.08 -1.45,-0.13 -2.32,-0.13 -1.07,0 -2.28,0.09 -3.62,0.27 -1.35,0.18 -2.72,0.41 -4.11,0.67 -1.39,0.27 -2.69,0.54 -3.9,0.82 -1.18,0.25 -2.3,0.53 -3.35,0.82 -1.05,0.29 -2.03,0.55 -2.93,0.78 -0.53,0.11 -0.92,0.21 -1.16,0.3 -0.24,0.08 -0.39,0.13 -0.44,0.13zm36.75 -18.42c-0.48,0 -0.72,-0.24 -0.72,-0.72 0,-0.14 0.1,-0.4 0.3,-0.78 0.2,-0.38 0.42,-0.77 0.67,-1.16 0.25,-0.39 0.45,-0.66 0.59,-0.8 0.48,-0.53 0.85,-0.87 1.12,-1.01 0.27,-0.14 0.51,-0.21 0.74,-0.21 0.59,0 0.89,0.27 0.89,0.8 0,0.2 -0.12,0.43 -0.36,0.7 -0.24,0.27 -0.51,0.51 -0.82,0.74 -0.45,0.28 -0.73,0.51 -0.84,0.67l-0.93 1.31c-0.03,0.11 -0.09,0.22 -0.19,0.32 -0.1,0.1 -0.25,0.15 -0.44,0.15zm-7.16 17.07c-0.79,0 -1.36,-0.15 -1.71,-0.46 -0.35,-0.31 -0.53,-0.77 -0.53,-1.39 0,-0.59 0.18,-1.4 0.55,-2.42 0.37,-1.03 0.84,-2.13 1.41,-3.31 0.58,-1.18 1.19,-2.3 1.83,-3.37 0.65,-1.07 1.27,-1.95 1.88,-2.63 0.6,-0.69 1.09,-1.03 1.45,-1.03 0.51,0 0.76,0.23 0.76,0.67 0,0.28 -0.24,0.81 -0.72,1.6 -0.48,0.79 -1,1.6 -1.56,2.44 -0.23,0.31 -0.53,0.73 -0.93,1.26 -0.39,0.53 -0.77,1.03 -1.14,1.5 -0.37,0.46 -0.6,0.78 -0.72,0.95 -0.28,0.42 -0.58,1.11 -0.88,2.07 -0.34,0.95 -0.51,1.69 -0.51,2.19 0,0.23 0.05,0.39 0.15,0.51 0.1,0.11 0.33,0.17 0.7,0.17 0.7,0 1.49,-0.22 2.36,-0.67 0.87,-0.45 1.76,-1.02 2.65,-1.71 0.9,-0.69 1.75,-1.4 2.55,-2.13 0.8,-0.73 1.48,-1.36 2.04,-1.9 0.11,-0.11 0.28,-0.17 0.51,-0.17 0.42,0 0.63,0.17 0.63,0.51 0,0.31 -0.2,0.66 -0.59,1.05 -0.76,0.76 -1.46,1.43 -2.11,2.02 -0.65,0.59 -1.26,1.11 -1.85,1.56 -0.93,0.67 -1.95,1.29 -3.08,1.85 -1.12,0.56 -2.18,0.84 -3.16,0.84zm10.83 -0.04c-0.34,0 -0.51,-0.13 -0.51,-0.38 -0.45,-0.79 -0.67,-2.4 -0.67,-4.85 0,-0.59 0.04,-1.38 0.13,-2.36 0.08,-0.98 0.2,-2.01 0.34,-3.08 0.14,-1.07 0.3,-2.04 0.46,-2.93 0.17,-0.88 0.35,-1.52 0.55,-1.92 0.17,-0.34 0.38,-0.51 0.63,-0.51 0.45,0 0.67,0.18 0.67,0.55 0,0.2 -0.03,0.39 -0.08,0.57 -0.06,0.18 -0.11,0.4 -0.17,0.65 -0.37,1.41 -0.65,2.89 -0.86,4.47 -0.21,1.57 -0.32,3.19 -0.32,4.85 0,0.76 0.04,1.43 0.11,2.02 0.07,0.59 0.15,1.1 0.23,1.52 0.79,-0.31 1.66,-0.92 2.61,-1.83 0.96,-0.91 1.88,-1.93 2.78,-3.06 0.73,-0.93 1.4,-1.87 2,-2.82 0.6,-0.95 1.08,-1.85 1.43,-2.7 0.35,-0.84 0.53,-1.53 0.53,-2.07 0,-0.37 -0.04,-0.62 -0.11,-0.76 -0.07,-0.14 -0.15,-0.25 -0.23,-0.34 -0.08,-0.08 -0.13,-0.24 -0.13,-0.46 0,-0.42 0.21,-0.63 0.63,-0.63 0.28,0 0.53,0.21 0.76,0.63 0.22,0.42 0.34,0.96 0.34,1.6 0,1.99 -1.39,4.79 -4.17,8.39 -2.87,3.62 -5.18,5.44 -6.95,5.44zm20.23 -17.03c-0.48,0 -0.72,-0.24 -0.72,-0.72 0,-0.14 0.1,-0.4 0.3,-0.78 0.2,-0.38 0.42,-0.77 0.67,-1.16 0.25,-0.39 0.45,-0.66 0.59,-0.8 0.48,-0.53 0.85,-0.87 1.12,-1.01 0.27,-0.14 0.51,-0.21 0.74,-0.21 0.59,0 0.89,0.27 0.89,0.8 0,0.2 -0.12,0.43 -0.36,0.7 -0.24,0.27 -0.51,0.51 -0.82,0.74 -0.45,0.28 -0.73,0.51 -0.84,0.67l-0.93 1.31c-0.03,0.11 -0.09,0.22 -0.19,0.32 -0.1,0.1 -0.25,0.15 -0.44,0.15zm-7.16 17.07c-0.79,0 -1.36,-0.15 -1.71,-0.46 -0.35,-0.31 -0.53,-0.77 -0.53,-1.39 0,-0.59 0.18,-1.4 0.55,-2.42 0.37,-1.03 0.84,-2.13 1.41,-3.31 0.58,-1.18 1.19,-2.3 1.83,-3.37 0.65,-1.07 1.27,-1.95 1.88,-2.63 0.6,-0.69 1.09,-1.03 1.45,-1.03 0.51,0 0.76,0.23 0.76,0.67 0,0.28 -0.24,0.81 -0.72,1.6 -0.48,0.79 -1,1.6 -1.56,2.44 -0.23,0.31 -0.53,0.73 -0.93,1.26 -0.39,0.53 -0.77,1.03 -1.14,1.5 -0.37,0.46 -0.6,0.78 -0.72,0.95 -0.28,0.42 -0.58,1.11 -0.88,2.07 -0.34,0.95 -0.51,1.69 -0.51,2.19 0,0.23 0.05,0.39 0.15,0.51 0.1,0.11 0.33,0.17 0.7,0.17 0.7,0 1.49,-0.22 2.36,-0.67 0.87,-0.45 1.76,-1.02 2.65,-1.71 0.9,-0.69 1.75,-1.4 2.55,-2.13 0.8,-0.73 1.48,-1.36 2.04,-1.9 0.11,-0.11 0.28,-0.17 0.51,-0.17 0.42,0 0.63,0.17 0.63,0.51 0,0.31 -0.2,0.66 -0.59,1.05 -0.76,0.76 -1.46,1.43 -2.11,2.02 -0.65,0.59 -1.26,1.11 -1.85,1.56 -0.93,0.67 -1.95,1.29 -3.08,1.85 -1.12,0.56 -2.18,0.84 -3.16,0.84zm10.2 -0.04c-1.63,0 -2.44,-0.77 -2.44,-2.32 0,-1.01 0.25,-2.1 0.74,-3.27 0.49,-1.17 1.16,-2.3 2,-3.41 0.84,-1.11 1.78,-2.12 2.82,-3.03 1.04,-0.91 2.11,-1.64 3.2,-2.19 1.1,-0.55 2.15,-0.82 3.16,-0.82 1.8,0 2.7,0.88 2.7,2.65 0,1.15 -0.28,1.73 -0.84,1.73 -0.51,0 -0.76,-0.24 -0.76,-0.72 0,-0.2 0.05,-0.4 0.15,-0.61 0.1,-0.21 0.15,-0.44 0.15,-0.7 0,-0.79 -0.53,-1.18 -1.6,-1.18 -1.71,0 -3.86,1.31 -6.45,3.92 -0.62,0.65 -1.22,1.41 -1.81,2.28 -0.59,0.87 -1.07,1.75 -1.45,2.63 -0.38,0.88 -0.57,1.72 -0.57,2.51 0,0.76 0.42,1.14 1.26,1.14 0.73,0 1.51,-0.22 2.34,-0.67 0.83,-0.45 1.55,-0.91 2.17,-1.39 1.24,-0.93 2.5,-2.19 3.79,-3.79 0.2,-0.22 0.45,-0.52 0.76,-0.88 0.31,-0.37 0.66,-0.77 1.05,-1.22 0.14,-0.14 0.31,-0.21 0.51,-0.21 0.45,0 0.67,0.22 0.67,0.67l-1.6 2.4c-1.07,1.57 -1.6,2.87 -1.6,3.88 0,0.73 0.35,1.1 1.05,1.1 0.59,0 1.24,-0.15 1.94,-0.46 0.7,-0.31 1.28,-0.62 1.73,-0.93 0.9,-0.59 1.84,-1.33 2.82,-2.21 0.98,-0.89 1.92,-1.78 2.82,-2.68 0.11,-0.11 0.28,-0.17 0.51,-0.17 0.42,0 0.63,0.17 0.63,0.51 0,0.31 -0.2,0.66 -0.59,1.05 -1.12,1.12 -2.14,2.09 -3.03,2.89 -0.9,0.8 -1.76,1.45 -2.57,1.96 -0.53,0.31 -1.19,0.63 -1.98,0.97 -0.79,0.34 -1.69,0.51 -2.7,0.51 -1.38,0 -2.07,-0.73 -2.07,-2.19 0,-0.56 0.07,-1.03 0.21,-1.39 -2.56,2.44 -4.93,3.67 -7.12,3.67zm27.73 1.39c-0.2,0 -0.42,-0.1 -0.67,-0.3 -0.25,-0.2 -0.38,-0.41 -0.38,-0.63 0,-0.25 0.28,-0.9 0.84,-1.94 0.56,-1.04 1.46,-2.6 2.7,-4.68 1.24,-2.08 2.85,-4.78 4.85,-8.09l5.52 -9.23c0.31,-0.56 0.69,-1.22 1.14,-1.98 0.45,-0.76 1,-1.66 1.64,-2.7 0.17,-0.25 0.35,-0.38 0.55,-0.38 0.2,0 0.39,0.09 0.59,0.27 0.2,0.18 0.29,0.37 0.29,0.57 0,0.11 -0.7,1.36 -2.11,3.73 -1.4,2.37 -3.53,5.91 -6.36,10.6 -1.07,1.77 -2.23,3.72 -3.48,5.86 -1.25,2.14 -2.58,4.45 -3.98,6.95 8.15,-2.19 14.41,-3.29 18.8,-3.29 1.32,0 2.42,0.22 3.31,0.65 0.88,0.44 1.33,0.86 1.33,1.29 0,0.48 -0.24,0.72 -0.72,0.72 -0.39,0 -0.59,-0.21 -0.59,-0.63l0 -0.13c-0.28,-0.14 -0.76,-0.25 -1.43,-0.34 -0.67,-0.08 -1.45,-0.13 -2.32,-0.13 -1.07,0 -2.28,0.09 -3.62,0.27 -1.35,0.18 -2.72,0.41 -4.11,0.67 -1.39,0.27 -2.69,0.54 -3.9,0.82 -1.18,0.25 -2.3,0.53 -3.35,0.82 -1.05,0.29 -2.03,0.55 -2.93,0.78 -0.53,0.11 -0.92,0.21 -1.16,0.3 -0.24,0.08 -0.39,0.13 -0.44,0.13zm36.75 -18.42c-0.48,0 -0.72,-0.24 -0.72,-0.72 0,-0.14 0.1,-0.4 0.3,-0.78 0.2,-0.38 0.42,-0.77 0.67,-1.16 0.25,-0.39 0.45,-0.66 0.59,-0.8 0.48,-0.53 0.85,-0.87 1.12,-1.01 0.27,-0.14 0.51,-0.21 0.74,-0.21 0.59,0 0.89,0.27 0.89,0.8 0,0.2 -0.12,0.43 -0.36,0.7 -0.24,0.27 -0.51,0.51 -0.82,0.74 -0.45,0.28 -0.73,0.51 -0.84,0.67l-0.93 1.31c-0.03,0.11 -0.09,0.22 -0.19,0.32 -0.1,0.1 -0.25,0.15 -0.44,0.15zm-7.16 17.07c-0.79,0 -1.36,-0.15 -1.71,-0.46 -0.35,-0.31 -0.53,-0.77 -0.53,-1.39 0,-0.59 0.18,-1.4 0.55,-2.42 0.37,-1.03 0.84,-2.13 1.41,-3.31 0.58,-1.18 1.19,-2.3 1.83,-3.37 0.65,-1.07 1.27,-1.95 1.88,-2.63 0.6,-0.69 1.09,-1.03 1.45,-1.03 0.51,0 0.76,0.23 0.76,0.67 0,0.28 -0.24,0.81 -0.72,1.6 -0.48,0.79 -1,1.6 -1.56,2.44 -0.23,0.31 -0.53,0.73 -0.93,1.26 -0.39,0.53 -0.77,1.03 -1.14,1.5 -0.37,0.46 -0.6,0.78 -0.72,0.95 -0.28,0.42 -0.58,1.11 -0.88,2.07 -0.34,0.95 -0.51,1.69 -0.51,2.19 0,0.23 0.05,0.39 0.15,0.51 0.1,0.11 0.33,0.17 0.7,0.17 0.7,0 1.49,-0.22 2.36,-0.67 0.87,-0.45 1.76,-1.02 2.65,-1.71 0.9,-0.69 1.75,-1.4 2.55,-2.13 0.8,-0.73 1.48,-1.36 2.04,-1.9 0.11,-0.11 0.28,-0.17 0.51,-0.17 0.42,0 0.63,0.17 0.63,0.51 0,0.31 -0.2,0.66 -0.59,1.05 -0.76,0.76 -1.46,1.43 -2.11,2.02 -0.65,0.59 -1.26,1.11 -1.85,1.56 -0.93,0.67 -1.95,1.29 -3.08,1.85 -1.12,0.56 -2.18,0.84 -3.16,0.84zm6.91 0.59c-0.45,0 -0.67,-0.18 -0.67,-0.55 0,-0.14 0.06,-0.32 0.17,-0.53 0.11,-0.21 0.21,-0.39 0.3,-0.53l3.79 -7.63c1.63,-3.32 2.44,-5.16 2.44,-5.52 0,-0.39 0.2,-0.59 0.59,-0.59 0.53,0 0.8,0.28 0.8,0.84 0,0.2 -0.13,0.62 -0.38,1.26 -0.25,0.65 -0.58,1.38 -0.97,2.19 -0.67,1.46 -1.24,2.58 -1.69,3.37 0.84,-0.98 1.7,-1.91 2.57,-2.78 0.87,-0.87 1.76,-1.7 2.65,-2.49 2.67,-2.33 4.72,-3.5 6.15,-3.5 0.98,0 1.48,0.46 1.48,1.39 0,0.84 -0.72,2.74 -2.15,5.69 -1.43,2.98 -2.15,4.86 -2.15,5.65 0,0.37 0.13,0.55 0.38,0.55 0.08,0 0.22,-0.04 0.4,-0.11 0.18,-0.07 0.37,-0.11 0.57,-0.11 0.48,0 0.72,0.23 0.72,0.67 0,0.56 -0.6,0.84 -1.81,0.84 -0.56,0 -0.97,-0.13 -1.22,-0.4 -0.25,-0.27 -0.38,-0.63 -0.38,-1.07 0,-1.35 0.69,-3.4 2.07,-6.15 1.38,-2.73 2.07,-4.37 2.07,-4.93 0,-0.34 -0.13,-0.51 -0.38,-0.51 -0.62,0 -1.62,0.52 -2.99,1.56 -1.49,1.12 -2.98,2.42 -4.47,3.88 -1.49,1.46 -2.91,3.13 -4.26,5.02l-2.95 4.09c-0.17,0.25 -0.39,0.38 -0.67,0.38zm21.62 -1.26c-2.28,0 -3.41,-1.28 -3.41,-3.84 0,-1.18 0.28,-2.42 0.84,-3.71 0.56,-1.29 1.31,-2.49 2.23,-3.6 0.93,-1.11 1.96,-2.02 3.1,-2.72 1.14,-0.7 2.3,-1.05 3.48,-1.05 1.04,0 1.8,0.39 2.28,1.18 0.48,0.79 0.72,1.66 0.72,2.61 0,1.26 -0.25,2.55 -0.76,3.86 -0.51,1.31 -1.19,2.51 -2.07,3.6 -0.87,1.1 -1.85,1.98 -2.95,2.66 -1.1,0.67 -2.25,1.01 -3.46,1.01zm-0.04 -1.35c0.17,0 0.27,-0.01 0.3,-0.04 1.1,-0.14 2.11,-0.53 3.03,-1.18 0.93,-0.65 1.73,-1.45 2.42,-2.42 0.69,-0.97 1.22,-2.02 1.58,-3.14 0.37,-1.12 0.55,-2.23 0.55,-3.33 0,-0.65 -0.18,-1.15 -0.55,-1.52 -0.37,-0.37 -0.83,-0.55 -1.39,-0.55 -0.81,0 -1.68,0.34 -2.59,1.01 -0.91,0.67 -1.77,1.53 -2.57,2.57 -0.8,1.04 -1.45,2.13 -1.96,3.27 -0.51,1.14 -0.76,2.16 -0.76,3.06 0,1.52 0.65,2.28 1.94,2.28z"/>
  <path class="fil0" d="M3.26 144.75c-0.62,0 -1.17,-0.14 -1.66,-0.42 -0.49,-0.28 -0.88,-0.68 -1.17,-1.18 -0.29,-0.51 -0.43,-1.09 -0.43,-1.74 0,-0.67 0.14,-1.25 0.43,-1.75 0.29,-0.5 0.68,-0.89 1.17,-1.18 0.49,-0.28 1.05,-0.42 1.66,-0.42 0.58,0 1.11,0.14 1.57,0.4 0.47,0.27 0.84,0.65 1.11,1.15 0.27,0.5 0.41,1.1 0.41,1.79 0,0.68 -0.14,1.28 -0.4,1.78 -0.27,0.51 -0.64,0.89 -1.11,1.16 -0.47,0.27 -1,0.4 -1.59,0.4zm0.04 -0.57c0.51,0 0.96,-0.12 1.36,-0.35 0.4,-0.23 0.72,-0.56 0.95,-0.98 0.23,-0.42 0.35,-0.91 0.35,-1.45 0,-0.56 -0.12,-1.04 -0.35,-1.46 -0.23,-0.42 -0.55,-0.74 -0.95,-0.97 -0.4,-0.23 -0.85,-0.35 -1.36,-0.35 -0.51,0 -0.96,0.12 -1.36,0.35 -0.4,0.23 -0.72,0.56 -0.95,0.97 -0.23,0.42 -0.35,0.9 -0.35,1.46 0,0.55 0.12,1.03 0.35,1.45 0.23,0.42 0.55,0.75 0.95,0.98 0.4,0.23 0.85,0.35 1.36,0.35zm2.67 0.52l0 -2.16 0.11 -1.15 -0.13 -1.15 0 -4.92 0.63 0 0 9.38 -0.62 0zm7.03 0.05c-0.67,0 -1.25,-0.14 -1.76,-0.43 -0.51,-0.29 -0.91,-0.68 -1.2,-1.19 -0.29,-0.51 -0.44,-1.08 -0.44,-1.73 0,-0.66 0.14,-1.24 0.41,-1.74 0.27,-0.5 0.65,-0.89 1.13,-1.18 0.48,-0.29 1.02,-0.43 1.62,-0.43 0.6,0 1.14,0.14 1.61,0.42 0.48,0.28 0.85,0.67 1.13,1.17 0.27,0.5 0.41,1.08 0.41,1.74 0,0.03 -0,0.05 -0.01,0.08 -0,0.03 -0.01,0.06 -0.01,0.09l-5.83 0 0 -0.49 5.48 0 -0.25 0.24c0.01,-0.51 -0.1,-0.97 -0.32,-1.38 -0.22,-0.41 -0.52,-0.73 -0.9,-0.96 -0.38,-0.23 -0.82,-0.35 -1.31,-0.35 -0.49,0 -0.92,0.12 -1.31,0.35 -0.38,0.23 -0.68,0.55 -0.9,0.96 -0.22,0.41 -0.33,0.87 -0.33,1.4l0 0.11c0,0.54 0.12,1.02 0.36,1.43 0.24,0.42 0.57,0.74 0.99,0.97 0.42,0.23 0.9,0.35 1.44,0.35 0.42,0 0.81,-0.08 1.18,-0.23 0.37,-0.15 0.68,-0.38 0.93,-0.7l0.37 0.42c-0.29,0.35 -0.65,0.62 -1.08,0.8 -0.43,0.18 -0.9,0.27 -1.41,0.27zm7.6 0c-0.55,0 -1.06,-0.08 -1.54,-0.24 -0.48,-0.16 -0.84,-0.36 -1.11,-0.61l0.29 -0.51c0.25,0.22 0.59,0.41 1.01,0.56 0.42,0.16 0.88,0.23 1.36,0.23 0.69,0 1.19,-0.11 1.49,-0.34 0.3,-0.23 0.45,-0.53 0.45,-0.9 0,-0.27 -0.08,-0.48 -0.23,-0.64 -0.16,-0.16 -0.36,-0.28 -0.63,-0.36 -0.26,-0.08 -0.55,-0.15 -0.86,-0.21 -0.31,-0.06 -0.62,-0.12 -0.93,-0.18 -0.31,-0.07 -0.6,-0.16 -0.86,-0.29 -0.26,-0.13 -0.47,-0.3 -0.63,-0.52 -0.16,-0.22 -0.23,-0.52 -0.23,-0.89 0,-0.34 0.09,-0.64 0.28,-0.91 0.19,-0.27 0.46,-0.49 0.83,-0.65 0.37,-0.16 0.83,-0.25 1.39,-0.25 0.41,0 0.83,0.06 1.24,0.18 0.42,0.12 0.76,0.27 1.02,0.47l-0.29 0.51c-0.28,-0.21 -0.59,-0.36 -0.94,-0.45 -0.35,-0.09 -0.69,-0.14 -1.05,-0.14 -0.64,0 -1.11,0.12 -1.41,0.35 -0.3,0.24 -0.45,0.53 -0.45,0.88 0,0.28 0.08,0.5 0.23,0.66 0.16,0.16 0.36,0.29 0.63,0.38 0.26,0.09 0.55,0.16 0.86,0.22 0.31,0.05 0.62,0.12 0.93,0.18 0.31,0.07 0.6,0.16 0.86,0.28 0.26,0.12 0.47,0.29 0.63,0.51 0.16,0.21 0.23,0.5 0.23,0.87 0,0.36 -0.1,0.68 -0.3,0.95 -0.2,0.27 -0.49,0.48 -0.88,0.63 -0.39,0.15 -0.86,0.23 -1.43,0.23zm5.44 -0.05l0 -6.6 0.63 0 0 6.6 -0.63 0zm0.32 -8.2c-0.14,0 -0.27,-0.05 -0.37,-0.15 -0.1,-0.1 -0.15,-0.22 -0.15,-0.35 0,-0.14 0.05,-0.27 0.15,-0.37 0.1,-0.1 0.22,-0.15 0.37,-0.15 0.15,0 0.28,0.05 0.37,0.15 0.1,0.1 0.15,0.22 0.15,0.36 0,0.14 -0.05,0.27 -0.15,0.37 -0.1,0.1 -0.22,0.15 -0.37,0.15zm6.79 10.7c-0.6,0 -1.17,-0.09 -1.71,-0.28 -0.54,-0.19 -0.98,-0.44 -1.31,-0.77l0.34 -0.48c0.33,0.3 0.72,0.54 1.18,0.71 0.46,0.17 0.95,0.25 1.48,0.25 0.88,0 1.54,-0.21 1.95,-0.62 0.42,-0.41 0.63,-1.06 0.63,-1.95l0 -1.83 0.13 -0.99 -0.1 -0.99 0 -2.16 0.61 0 0 5.89c0,1.1 -0.27,1.91 -0.8,2.43 -0.54,0.52 -1.33,0.78 -2.39,0.78zm-0.18 -2.74c-0.62,0 -1.18,-0.14 -1.67,-0.41 -0.49,-0.27 -0.88,-0.65 -1.18,-1.14 -0.29,-0.48 -0.44,-1.04 -0.44,-1.66 0,-0.63 0.15,-1.19 0.44,-1.67 0.29,-0.48 0.68,-0.86 1.18,-1.12 0.49,-0.27 1.05,-0.4 1.67,-0.4 0.6,0 1.14,0.13 1.61,0.39 0.48,0.26 0.85,0.62 1.13,1.1 0.28,0.48 0.42,1.05 0.42,1.71 0,0.66 -0.14,1.23 -0.42,1.71 -0.28,0.48 -0.66,0.85 -1.13,1.11 -0.48,0.26 -1.01,0.39 -1.61,0.39zm0.05 -0.57c0.53,0 1,-0.11 1.4,-0.33 0.4,-0.22 0.72,-0.53 0.95,-0.93 0.23,-0.4 0.35,-0.86 0.35,-1.37 0,-0.52 -0.12,-0.98 -0.35,-1.38 -0.23,-0.4 -0.55,-0.7 -0.95,-0.92 -0.4,-0.22 -0.87,-0.33 -1.4,-0.33 -0.51,0 -0.97,0.11 -1.38,0.33 -0.41,0.22 -0.73,0.53 -0.96,0.92 -0.23,0.4 -0.35,0.85 -0.35,1.38 0,0.51 0.12,0.97 0.35,1.37 0.23,0.4 0.55,0.71 0.96,0.93 0.41,0.22 0.87,0.33 1.38,0.33zm10.29 -5.84c0.54,0 1.01,0.1 1.41,0.31 0.4,0.21 0.71,0.52 0.94,0.93 0.22,0.42 0.33,0.93 0.33,1.55l0 3.85 -0.63 0 0 -3.8c0,-0.74 -0.19,-1.31 -0.56,-1.69 -0.37,-0.39 -0.9,-0.58 -1.57,-0.58 -0.51,0 -0.96,0.11 -1.34,0.32 -0.38,0.21 -0.67,0.51 -0.87,0.88 -0.2,0.38 -0.3,0.83 -0.3,1.36l0 3.51 -0.63 0 0 -6.6 0.61 0 0 1.83 -0.09 -0.2c0.2,-0.52 0.54,-0.93 1,-1.23 0.46,-0.3 1.03,-0.45 1.71,-0.45zm9.03 6.7c-0.67,0 -1.25,-0.14 -1.76,-0.43 -0.51,-0.29 -0.91,-0.68 -1.2,-1.19 -0.29,-0.51 -0.44,-1.08 -0.44,-1.73 0,-0.66 0.14,-1.24 0.41,-1.74 0.27,-0.5 0.65,-0.89 1.13,-1.18 0.48,-0.29 1.02,-0.43 1.62,-0.43 0.6,0 1.14,0.14 1.61,0.42 0.48,0.28 0.85,0.67 1.13,1.17 0.27,0.5 0.41,1.08 0.41,1.74 0,0.03 -0,0.05 -0.01,0.08 -0,0.03 -0.01,0.06 -0.01,0.09l-5.83 0 0 -0.49 5.48 0 -0.25 0.24c0.01,-0.51 -0.1,-0.97 -0.32,-1.38 -0.22,-0.41 -0.52,-0.73 -0.9,-0.96 -0.38,-0.23 -0.82,-0.35 -1.31,-0.35 -0.49,0 -0.92,0.12 -1.31,0.35 -0.38,0.23 -0.68,0.55 -0.9,0.96 -0.22,0.41 -0.33,0.87 -0.33,1.4l0 0.11c0,0.54 0.12,1.02 0.36,1.43 0.24,0.42 0.57,0.74 0.99,0.97 0.42,0.23 0.9,0.35 1.44,0.35 0.42,0 0.81,-0.08 1.18,-0.23 0.37,-0.15 0.68,-0.38 0.93,-0.7l0.37 0.42c-0.29,0.35 -0.65,0.62 -1.08,0.8 -0.43,0.18 -0.9,0.27 -1.41,0.27zm5.93 -0.05l0 -6.6 0.61 0 0 1.81 -0.06 -0.2c0.19,-0.53 0.5,-0.94 0.93,-1.23 0.44,-0.29 0.99,-0.43 1.64,-0.43l0 0.62c-0.03,0 -0.05,-0 -0.08,-0.01 -0.03,-0 -0.05,-0.01 -0.08,-0.01 -0.73,0 -1.31,0.23 -1.72,0.69 -0.41,0.46 -0.62,1.1 -0.62,1.91l0 3.44 -0.63 0zm15.08 0.05c-0.62,0 -1.17,-0.14 -1.66,-0.42 -0.49,-0.28 -0.88,-0.68 -1.17,-1.18 -0.29,-0.51 -0.43,-1.09 -0.43,-1.74 0,-0.67 0.14,-1.25 0.43,-1.75 0.29,-0.5 0.68,-0.89 1.17,-1.18 0.49,-0.28 1.05,-0.42 1.66,-0.42 0.58,0 1.11,0.14 1.57,0.4 0.47,0.27 0.84,0.65 1.11,1.15 0.27,0.5 0.41,1.1 0.41,1.79 0,0.68 -0.14,1.28 -0.4,1.78 -0.27,0.51 -0.64,0.89 -1.11,1.16 -0.47,0.27 -1,0.4 -1.59,0.4zm0.04 -0.57c0.51,0 0.96,-0.12 1.36,-0.35 0.4,-0.23 0.72,-0.56 0.95,-0.98 0.23,-0.42 0.35,-0.91 0.35,-1.45 0,-0.56 -0.12,-1.04 -0.35,-1.46 -0.23,-0.42 -0.55,-0.74 -0.95,-0.97 -0.4,-0.23 -0.85,-0.35 -1.36,-0.35 -0.51,0 -0.96,0.12 -1.36,0.35 -0.4,0.23 -0.72,0.56 -0.95,0.97 -0.23,0.42 -0.35,0.9 -0.35,1.46 0,0.55 0.12,1.03 0.35,1.45 0.23,0.42 0.55,0.75 0.95,0.98 0.4,0.23 0.85,0.35 1.36,0.35zm2.67 0.52l0 -2.16 0.11 -1.15 -0.13 -1.15 0 -4.92 0.63 0 0 9.38 -0.62 0zm7.03 0.05c-0.67,0 -1.25,-0.14 -1.76,-0.43 -0.51,-0.29 -0.91,-0.68 -1.2,-1.19 -0.29,-0.51 -0.44,-1.08 -0.44,-1.73 0,-0.66 0.14,-1.24 0.41,-1.74 0.27,-0.5 0.65,-0.89 1.13,-1.18 0.48,-0.29 1.02,-0.43 1.62,-0.43 0.6,0 1.14,0.14 1.61,0.42 0.48,0.28 0.85,0.67 1.13,1.17 0.27,0.5 0.41,1.08 0.41,1.74 0,0.03 -0,0.05 -0.01,0.08 -0,0.03 -0.01,0.06 -0.01,0.09l-5.83 0 0 -0.49 5.48 0 -0.25 0.24c0.01,-0.51 -0.1,-0.97 -0.32,-1.38 -0.22,-0.41 -0.52,-0.73 -0.9,-0.96 -0.38,-0.23 -0.82,-0.35 -1.31,-0.35 -0.49,0 -0.92,0.12 -1.31,0.35 -0.38,0.23 -0.68,0.55 -0.9,0.96 -0.22,0.41 -0.33,0.87 -0.33,1.4l0 0.11c0,0.54 0.12,1.02 0.36,1.43 0.24,0.42 0.57,0.74 0.99,0.97 0.42,0.23 0.9,0.35 1.44,0.35 0.42,0 0.81,-0.08 1.18,-0.23 0.37,-0.15 0.68,-0.38 0.93,-0.7l0.37 0.42c-0.29,0.35 -0.65,0.62 -1.08,0.8 -0.43,0.18 -0.9,0.27 -1.41,0.27zm12.43 -0.05l0 -6.6 0.63 0 0 6.6 -0.63 0zm0.32 -8.2c-0.14,0 -0.27,-0.05 -0.37,-0.15 -0.1,-0.1 -0.15,-0.22 -0.15,-0.35 0,-0.14 0.05,-0.27 0.15,-0.37 0.1,-0.1 0.22,-0.15 0.37,-0.15 0.15,0 0.28,0.05 0.37,0.15 0.1,0.1 0.15,0.22 0.15,0.36 0,0.14 -0.05,0.27 -0.15,0.37 -0.1,0.1 -0.22,0.15 -0.37,0.15zm7.27 1.55c0.54,0 1.01,0.1 1.41,0.31 0.4,0.21 0.71,0.52 0.94,0.93 0.22,0.42 0.33,0.93 0.33,1.55l0 3.85 -0.63 0 0 -3.8c0,-0.74 -0.19,-1.31 -0.56,-1.69 -0.37,-0.39 -0.9,-0.58 -1.57,-0.58 -0.51,0 -0.96,0.11 -1.34,0.32 -0.38,0.21 -0.67,0.51 -0.87,0.88 -0.2,0.38 -0.3,0.83 -0.3,1.36l0 3.51 -0.63 0 0 -6.6 0.61 0 0 1.83 -0.09 -0.2c0.2,-0.52 0.54,-0.93 1,-1.23 0.46,-0.3 1.03,-0.45 1.71,-0.45zm8.27 6.7c-0.58,0 -1.03,-0.16 -1.33,-0.48 -0.31,-0.32 -0.46,-0.76 -0.46,-1.31l0 -6.29 0.63 0 0 6.23c0,0.42 0.11,0.75 0.32,0.97 0.21,0.23 0.51,0.34 0.91,0.34 0.41,0 0.75,-0.12 1.02,-0.37l0.27 0.44c-0.17,0.16 -0.37,0.28 -0.61,0.35 -0.24,0.08 -0.49,0.11 -0.74,0.11zm-3.01 -6.1l0 -0.54 3.94 0 0 0.54 -3.94 0zm9.86 6.1c-0.67,0 -1.25,-0.14 -1.76,-0.43 -0.51,-0.29 -0.91,-0.68 -1.2,-1.19 -0.29,-0.51 -0.44,-1.08 -0.44,-1.73 0,-0.66 0.14,-1.24 0.41,-1.74 0.27,-0.5 0.65,-0.89 1.13,-1.18 0.48,-0.29 1.02,-0.43 1.62,-0.43 0.6,0 1.14,0.14 1.61,0.42 0.48,0.28 0.85,0.67 1.13,1.17 0.27,0.5 0.41,1.08 0.41,1.74 0,0.03 -0,0.05 -0.01,0.08 -0,0.03 -0.01,0.06 -0.01,0.09l-5.83 0 0 -0.49 5.48 0 -0.25 0.24c0.01,-0.51 -0.1,-0.97 -0.32,-1.38 -0.22,-0.41 -0.52,-0.73 -0.9,-0.96 -0.38,-0.23 -0.82,-0.35 -1.31,-0.35 -0.49,0 -0.92,0.12 -1.31,0.35 -0.38,0.23 -0.68,0.55 -0.9,0.96 -0.22,0.41 -0.33,0.87 -0.33,1.4l0 0.11c0,0.54 0.12,1.02 0.36,1.43 0.24,0.42 0.57,0.74 0.99,0.97 0.42,0.23 0.9,0.35 1.44,0.35 0.42,0 0.81,-0.08 1.18,-0.23 0.37,-0.15 0.68,-0.38 0.93,-0.7l0.37 0.42c-0.29,0.35 -0.65,0.62 -1.08,0.8 -0.43,0.18 -0.9,0.27 -1.41,0.27zm5.93 -0.05l0 -6.6 0.61 0 0 1.81 -0.06 -0.2c0.19,-0.53 0.5,-0.94 0.93,-1.23 0.44,-0.29 0.99,-0.43 1.64,-0.43l0 0.62c-0.03,0 -0.05,-0 -0.08,-0.01 -0.03,-0 -0.05,-0.01 -0.08,-0.01 -0.73,0 -1.31,0.23 -1.72,0.69 -0.41,0.46 -0.62,1.1 -0.62,1.91l0 3.44 -0.63 0zm6.05 0l0 -6.6 0.63 0 0 6.6 -0.63 0zm0.32 -8.2c-0.14,0 -0.27,-0.05 -0.37,-0.15 -0.1,-0.1 -0.15,-0.22 -0.15,-0.35 0,-0.14 0.05,-0.27 0.15,-0.37 0.1,-0.1 0.22,-0.15 0.37,-0.15 0.15,0 0.28,0.05 0.37,0.15 0.1,0.1 0.15,0.22 0.15,0.36 0,0.14 -0.05,0.27 -0.15,0.37 -0.1,0.1 -0.22,0.15 -0.37,0.15zm6.63 8.25c-0.63,0 -1.19,-0.14 -1.69,-0.43 -0.49,-0.29 -0.88,-0.68 -1.18,-1.19 -0.29,-0.51 -0.44,-1.08 -0.44,-1.73 0,-0.66 0.15,-1.24 0.44,-1.74 0.29,-0.5 0.68,-0.89 1.18,-1.18 0.49,-0.29 1.06,-0.43 1.69,-0.43 0.63,0 1.2,0.14 1.69,0.43 0.5,0.29 0.89,0.68 1.18,1.18 0.29,0.5 0.43,1.08 0.43,1.74 0,0.65 -0.14,1.23 -0.43,1.73 -0.29,0.51 -0.68,0.9 -1.18,1.19 -0.5,0.29 -1.06,0.43 -1.69,0.43zm0 -0.57c0.51,0 0.96,-0.12 1.36,-0.35 0.4,-0.23 0.72,-0.56 0.95,-0.98 0.23,-0.42 0.34,-0.91 0.34,-1.45 0,-0.56 -0.11,-1.04 -0.34,-1.46 -0.23,-0.42 -0.54,-0.74 -0.95,-0.97 -0.4,-0.23 -0.86,-0.35 -1.36,-0.35 -0.51,0 -0.96,0.12 -1.36,0.35 -0.4,0.23 -0.72,0.56 -0.95,0.97 -0.23,0.42 -0.35,0.9 -0.35,1.46 0,0.55 0.12,1.03 0.35,1.45 0.23,0.42 0.55,0.75 0.95,0.98 0.4,0.23 0.85,0.35 1.36,0.35zm6.33 0.52l0 -6.6 0.61 0 0 1.81 -0.06 -0.2c0.19,-0.53 0.5,-0.94 0.93,-1.23 0.44,-0.29 0.99,-0.43 1.64,-0.43l0 0.62c-0.03,0 -0.05,-0 -0.08,-0.01 -0.03,-0 -0.05,-0.01 -0.08,-0.01 -0.73,0 -1.31,0.23 -1.72,0.69 -0.41,0.46 -0.62,1.1 -0.62,1.91l0 3.44 -0.63 0zm8.73 0.05c-0.67,0 -1.25,-0.14 -1.76,-0.43 -0.51,-0.29 -0.91,-0.68 -1.2,-1.19 -0.29,-0.51 -0.44,-1.08 -0.44,-1.73 0,-0.66 0.14,-1.24 0.41,-1.74 0.27,-0.5 0.65,-0.89 1.13,-1.18 0.48,-0.29 1.02,-0.43 1.62,-0.43 0.6,0 1.14,0.14 1.61,0.42 0.48,0.28 0.85,0.67 1.13,1.17 0.27,0.5 0.41,1.08 0.41,1.74 0,0.03 -0,0.05 -0.01,0.08 -0,0.03 -0.01,0.06 -0.01,0.09l-5.83 0 0 -0.49 5.48 0 -0.25 0.24c0.01,-0.51 -0.1,-0.97 -0.32,-1.38 -0.22,-0.41 -0.52,-0.73 -0.9,-0.96 -0.38,-0.23 -0.82,-0.35 -1.31,-0.35 -0.49,0 -0.92,0.12 -1.31,0.35 -0.38,0.23 -0.68,0.55 -0.9,0.96 -0.22,0.41 -0.33,0.87 -0.33,1.4l0 0.11c0,0.54 0.12,1.02 0.36,1.43 0.24,0.42 0.57,0.74 0.99,0.97 0.42,0.23 0.9,0.35 1.44,0.35 0.42,0 0.81,-0.08 1.18,-0.23 0.37,-0.15 0.68,-0.38 0.93,-0.7l0.37 0.42c-0.29,0.35 -0.65,0.62 -1.08,0.8 -0.43,0.18 -0.9,0.27 -1.41,0.27zm7.6 0c-0.55,0 -1.06,-0.08 -1.54,-0.24 -0.48,-0.16 -0.84,-0.36 -1.11,-0.61l0.29 -0.51c0.25,0.22 0.59,0.41 1.01,0.56 0.42,0.16 0.88,0.23 1.36,0.23 0.69,0 1.19,-0.11 1.49,-0.34 0.3,-0.23 0.45,-0.53 0.45,-0.9 0,-0.27 -0.08,-0.48 -0.23,-0.64 -0.16,-0.16 -0.36,-0.28 -0.63,-0.36 -0.26,-0.08 -0.55,-0.15 -0.86,-0.21 -0.31,-0.06 -0.62,-0.12 -0.93,-0.18 -0.31,-0.07 -0.6,-0.16 -0.86,-0.29 -0.26,-0.13 -0.47,-0.3 -0.63,-0.52 -0.16,-0.22 -0.23,-0.52 -0.23,-0.89 0,-0.34 0.09,-0.64 0.28,-0.91 0.19,-0.27 0.46,-0.49 0.83,-0.65 0.37,-0.16 0.83,-0.25 1.39,-0.25 0.41,0 0.83,0.06 1.24,0.18 0.42,0.12 0.76,0.27 1.02,0.47l-0.29 0.51c-0.28,-0.21 -0.59,-0.36 -0.94,-0.45 -0.35,-0.09 -0.69,-0.14 -1.05,-0.14 -0.64,0 -1.11,0.12 -1.41,0.35 -0.3,0.24 -0.45,0.53 -0.45,0.88 0,0.28 0.08,0.5 0.23,0.66 0.16,0.16 0.36,0.29 0.63,0.38 0.26,0.09 0.55,0.16 0.86,0.22 0.31,0.05 0.62,0.12 0.93,0.18 0.31,0.07 0.6,0.16 0.86,0.28 0.26,0.12 0.47,0.29 0.63,0.51 0.16,0.21 0.23,0.5 0.23,0.87 0,0.36 -0.1,0.68 -0.3,0.95 -0.2,0.27 -0.49,0.48 -0.88,0.63 -0.39,0.15 -0.86,0.23 -1.43,0.23z"/>
  <g style="clip-path:url(#id0)">
   <image x="29.44" y="0" width="103.58" height="103.58" xlink:href="logo-rodape_Images\logo-rodape_ImgID1.png"/>
  </g>
  <circle class="fil1" cx="81.23" cy="51.79" r="39.84"/>
  <path class="fil2" d="M81.23 11.95c22,0 39.84,17.84 39.84,39.84 0,11.63 -4.98,22.09 -12.93,29.37l-19.14 0c-20.98,0 -38.06,-17.08 -38.06,-38.06l0 -17.18c7.31,-8.55 18.17,-13.97 30.3,-13.97z"/>
  <path class="fil1" d="M81.23 11.95c22,0 39.84,17.84 39.84,39.84 0,4.33 -0.69,8.5 -1.97,12.41l-36.53 0c-13.98,-0 -25.38,-11.4 -25.38,-25.38l0 -18.8c6.68,-5.07 15.01,-8.07 24.04,-8.07z"/>
  <path class="fil3" d="M81.23 11.95c22,0 39.84,17.84 39.84,39.84 0,4.33 -0.69,8.5 -1.97,12.41l-36.53 0c-13.98,-0 -25.38,-11.4 -25.38,-25.38l0 -18.8c6.68,-5.07 15.01,-8.07 24.04,-8.07z"/>
  <path class="fil4" d="M81.23 11.95c21.91,0 39.68,17.69 39.83,39.56l-43.89 0c-6.98,0 -12.69,-5.71 -12.69,-12.69l0 -23.19c5.09,-2.36 10.76,-3.68 16.75,-3.68z"/>
  <path class="fil5" d="M81.23 11.95c17.95,0 33.12,11.87 38.1,28.19l-38.43 0c-5.84,0 -10.62,-4.78 -10.62,-10.62l0 -16.04c3.48,-0.99 7.15,-1.53 10.95,-1.53z"/>
 </g>
</svg>
