<?xml version="1.0" encoding="UTF-8"?>
<!DOCTYPE svg PUBLIC "-//W3C//DTD SVG 1.1//EN" "http://www.w3.org/Graphics/SVG/1.1/DTD/svg11.dtd">
<!-- Creator: CorelDRAW 2020 (64 Bit) -->
<svg xmlns="http://www.w3.org/2000/svg" xml:space="preserve" width="13mm" height="13.0744mm" version="1.1" style="shape-rendering:geometricPrecision; text-rendering:geometricPrecision; image-rendering:optimizeQuality; fill-rule:evenodd; clip-rule:evenodd"
viewBox="0 0 21.88 22"
 xmlns:xlink="http://www.w3.org/1999/xlink"
 xmlns:xodm="http://www.corel.com/coreldraw/odm/2003">
 <defs>
  <style type="text/css">
   <![CDATA[
    .fil2 {fill:#FEFEFE}
    .fil0 {fill:#FEFEFE;fill-rule:nonzero}
    .fil1 {fill:url(#id0)}
   ]]>
  </style>
  <linearGradient id="id0" gradientUnits="userSpaceOnUse" x1="10.94" y1="1.4" x2="10.94" y2="19.96">
   <stop offset="0" style="stop-opacity:1; stop-color:#5B70B4"/>
   <stop offset="1" style="stop-opacity:1; stop-color:#4A5AA3"/>
  </linearGradient>
 </defs>
 <g id="Camada_x0020_1">
  <metadata id="CorelCorpID_0Corel-Layer"/>
  <path class="fil0" d="M17.06 0.13l-12.25 0c-2.66,0 -4.82,2.15 -4.82,4.79l0 12.25c0,2.66 2.16,4.84 4.82,4.84l12.25 0c2.65,0 4.81,-2.18 4.81,-4.84l0 -12.25c0,-2.65 -2.17,-4.79 -4.81,-4.79z"/>
  <path class="fil1" d="M4.82 0l12.25 0c2.65,0 4.82,2.17 4.82,4.82l0 12.25c0,2.66 -2.17,4.83 -4.82,4.83l-12.25 0c-2.66,0 -4.82,-2.17 -4.82,-4.83l0 -12.25c0,-2.65 2.16,-4.82 4.82,-4.82z"/>
  <path class="fil2" d="M11.99 8.46l0 -1.06c0,-0.51 0.34,-0.63 0.58,-0.63 0.23,0 1.48,0 1.48,0l0 -2.26 -2.04 0c-2.26,0 -2.77,1.68 -2.77,2.76l0 1.19 -1.31 0 0 2.63 1.32 0c0,2.99 0,6.58 0,6.58l2.63 0c0,0 0,-3.64 0,-6.58l1.95 0 0.09 -1.04 0.15 -1.6 -2.09 0z"/>
 </g>
</svg>
