<?xml version="1.0" encoding="UTF-8"?>
<!DOCTYPE svg PUBLIC "-//W3C//DTD SVG 1.1//EN" "http://www.w3.org/Graphics/SVG/1.1/DTD/svg11.dtd">
<!-- Creator: CorelDRAW 2020 (64 Bit) -->
<svg xmlns="http://www.w3.org/2000/svg" xml:space="preserve" width="7mm" height="7.0314mm" version="1.1" style="shape-rendering:geometricPrecision; text-rendering:geometricPrecision; image-rendering:optimizeQuality; fill-rule:evenodd; clip-rule:evenodd"
viewBox="0 0 3.99 4.01"
 xmlns:xlink="http://www.w3.org/1999/xlink"
 xmlns:xodm="http://www.corel.com/coreldraw/odm/2003">
 <defs>
  <style type="text/css">
   <![CDATA[
    .fil0 {fill:white}
   ]]>
  </style>
 </defs>
 <g id="Camada_x0020_1">
  <metadata id="CorelCorpID_0Corel-Layer"/>
  <path class="fil0" d="M2.91 2.4c-0.05,-0.02 -0.29,-0.15 -0.34,-0.16 -0.05,-0.02 -0.08,-0.02 -0.11,0.02 -0.03,0.05 -0.13,0.16 -0.16,0.19 -0.03,0.03 -0.06,0.04 -0.11,0.01 -0.05,-0.02 -0.21,-0.08 -0.4,-0.25 -0.15,-0.13 -0.25,-0.29 -0.28,-0.34 -0.03,-0.05 -0,-0.08 0.02,-0.1 0.02,-0.02 0.05,-0.06 0.07,-0.09 0.02,-0.03 0.03,-0.05 0.05,-0.08 0.02,-0.03 0.01,-0.06 -0,-0.09 -0.01,-0.02 -0.11,-0.27 -0.15,-0.37 -0.04,-0.1 -0.08,-0.08 -0.11,-0.09 -0.03,-0 -0.06,-0 -0.1,-0 -0.03,0 -0.09,0.01 -0.13,0.06 -0.05,0.05 -0.17,0.17 -0.17,0.41 0,0.24 0.18,0.48 0.2,0.51 0.02,0.03 0.35,0.53 0.85,0.75 0.12,0.05 0.21,0.08 0.28,0.1 0.12,0.04 0.23,0.03 0.31,0.02 0.1,-0.01 0.29,-0.12 0.34,-0.24 0.04,-0.12 0.04,-0.22 0.03,-0.24 -0.01,-0.02 -0.05,-0.03 -0.1,-0.06zm-0.91 1.24l-0 0c-0.3,-0 -0.59,-0.08 -0.84,-0.23l-0.06 -0.04 -0.63 0.16 0.17 -0.61 -0.04 -0.06c-0.17,-0.26 -0.25,-0.57 -0.25,-0.88 0,-0.91 0.74,-1.65 1.65,-1.65 0.44,0 0.86,0.17 1.17,0.48 0.31,0.31 0.48,0.73 0.48,1.17 -0,0.91 -0.74,1.65 -1.65,1.65zm1.41 -3.06c-0.38,-0.38 -0.87,-0.58 -1.41,-0.58 -1.1,0 -1.99,0.89 -1.99,1.99 -0,0.35 0.09,0.69 0.27,0.99l-0.28 1.03 1.05 -0.28c0.29,0.16 0.62,0.24 0.95,0.24l0 0c0,0 0,0 0,0 1.1,0 1.99,-0.89 1.99,-1.99 0,-0.53 -0.21,-1.03 -0.58,-1.41z"/>
 </g>
</svg>
