<?xml version="1.0" encoding="UTF-8"?>
<!DOCTYPE svg PUBLIC "-//W3C//DTD SVG 1.1//EN" "http://www.w3.org/Graphics/SVG/1.1/DTD/svg11.dtd">
<!-- Creator: CorelDRAW 2023 -->
<svg xmlns="http://www.w3.org/2000/svg" xml:space="preserve" width="60.4298mm" height="50.3089mm" version="1.1" style="shape-rendering:geometricPrecision; text-rendering:geometricPrecision; image-rendering:optimizeQuality; fill-rule:evenodd; clip-rule:evenodd"
viewBox="0 0 4920.67 4096.55"
 xmlns:xlink="http://www.w3.org/1999/xlink"
 xmlns:xodm="http://www.corel.com/coreldraw/odm/2003">
 <defs>
  <style type="text/css">
   <![CDATA[
    .fil0 {fill:#523726}
    .fil4 {fill:#716662}
    .fil1 {fill:#8A5930}
    .fil3 {fill:#8F8079}
    .fil2 {fill:#A77E2F}
   ]]>
  </style>
 </defs>
 <g id="Camada_x0020_1">
  <metadata id="CorelCorpID_0Corel-Layer"/>
  <path class="fil0" d="M3275.42 2096.47c-214.68,196.76 -500.79,316.89 -815,316.89 -666.41,0 -1206.58,-540.18 -1206.58,-1206.61 0,-299 108.79,-572.53 288.88,-783.32l65.22 454.9c0,635.59 517.32,1152.94 1152.91,1152.94l514.58 65.21z"/>
  <path class="fil1" d="M3608.39 1579.26c-65.03,200.5 -181.12,378 -332.96,517.21l-579.8 0c-635.59,0 -1152.91,-517.34 -1152.91,-1152.94l0 -520.15c56.48,-66.08 119.99,-125.98 189.34,-178.57l74.88 463.22c0,423.39 345.21,768.61 768.61,768.61l1031.66 105.97 0 -0.01 0.01 0.01 1.16 -3.35z"/>
  <path class="fil2" d="M3667.03 1206.75c0,2.36 -0.02,4.71 -0.02,7.08 -0.74,128.66 -21.7,252.64 -59.78,368.8l-1106.54 0c-423.41,0 -768.61,-345.22 -768.61,-768.61l0 -569.19c67.19,-50.9 139.87,-95.09 216.97,-131.23 1.17,-0.55 2.42,-1.1 4,-1.79l123 632.93c0,211.37 172.94,384.3 384.31,384.3l1197.19 64.6 9.33 4.67 0.17 8.44z"/>
  <path class="fil3" d="M3614.43 853.93c33.28,109.05 51.62,224.63 52.42,344.38l-1329.51 0c-211.37,0 -384.31,-172.93 -384.31,-384.3l0 -702.21c56.32,-26.13 114.98,-48.06 175.59,-65.37l125.08 428.59c0,177.07 144.94,321.85 321.85,321.85l1038.87 57.06 0.01 0.01z"/>
  <path class="fil4" d="M2460.43 0.15c543.67,0 1003.1,359.63 1154.01,853.77l-1163.96 0c-176.91,0 -321.85,-144.78 -321.85,-321.86l0 -485.85c105.36,-30.15 216.67,-46.22 331.79,-46.22l0.01 0.15z"/>
  <g id="_2244982086368">
   <path class="fil0" d="M4590.69 3516.59c5.14,0 8.13,-0.49 8.94,-1.32 33.14,-4.3 63.78,-16.24 91.94,-35.78 28.16,-19.55 52.52,-44.07 73.38,-73.38 20.87,-29.32 36.78,-61.14 47.87,-95.08 11.1,-33.96 16.57,-67.59 16.57,-100.87 0,-19.55 -5.47,-34.96 -16.57,-45.89 -11.09,-11.09 -25.19,-16.56 -42.07,-16.56 -24.7,0 -50.86,10.26 -78.53,30.64 -27.66,20.37 -53.68,46.37 -77.86,77.85 -24.18,31.47 -44.06,64.44 -59.29,98.9 -15.26,34.45 -23.04,65.26 -23.04,92.6 0,45.88 19.54,68.91 58.81,68.91l-0.15 -0.02zm1.33 40.92c-68.91,0 -103.37,-38.76 -103.37,-116.12 0,-35.79 8.46,-73.22 25.52,-112.31 17.07,-39.08 39.59,-75.53 67.59,-109.15 28.16,-33.64 59.29,-61.14 93.75,-82.33 34.47,-21.2 69.57,-31.98 105.36,-31.98 31.47,0 54.5,11.92 68.91,35.79 14.43,23.85 21.71,50.18 21.71,79.18 0,38.26 -7.63,77.19 -23.04,116.78 -15.24,39.58 -36.11,76.03 -62.62,109.16 -26.34,33.14 -56.16,59.97 -89.29,80.34 -33.14,20.38 -68.08,30.63 -104.68,30.63l0.16 0z"/>
   <path class="fil0" d="M3937.19 3595.78c-13.58,0 -20.37,-5.47 -20.37,-16.56 0,-4.31 1.65,-9.61 5.14,-15.9 3.48,-6.3 6.47,-11.77 8.94,-15.91l114.97 -231.08c49.35,-100.38 74.04,-156.2 74.04,-167.3 0,-11.92 5.96,-17.89 17.9,-17.89 16.24,0 24.18,8.45 24.18,25.52 0,5.96 -3.81,18.71 -11.42,38.26 -7.63,19.54 -17.4,41.74 -29.32,66.42 -20.37,44.23 -37.43,78.35 -51.02,102.04 25.51,-29.82 51.53,-57.81 77.85,-84.32 26.34,-26.33 53.17,-51.51 80.35,-75.36 80.83,-70.57 142.95,-106.03 186.35,-106.03 29.82,0 44.73,14.09 44.73,42.08 0,25.51 -21.69,82.99 -65.09,172.29 -43.42,90.27 -65.11,147.25 -65.11,171.11 0,11.09 3.81,16.56 11.43,16.56 2.48,0 6.62,-0.99 12.09,-3.14 5.46,-2.15 11.25,-3.14 17.22,-3.14 14.42,0 21.7,6.8 21.7,20.37 0,17.08 -18.23,25.52 -54.83,25.52 -17.07,0 -29.32,-3.97 -36.94,-12.09 -7.62,-8.12 -11.43,-18.88 -11.43,-32.47 0,-40.91 20.88,-103.04 62.62,-186.35 41.75,-82.49 62.63,-132.36 62.63,-149.41 0,-10.28 -3.81,-15.26 -11.43,-15.26 -18.72,0 -48.87,15.74 -90.61,47.22 -45.05,33.96 -90.29,73.22 -135.34,117.45 -45.05,44.23 -88.13,94.91 -128.88,151.9l-89.29 123.74c-5.14,7.62 -11.92,11.43 -20.37,11.43l-0.69 0.31z"/>
   <path class="fil0" d="M3727.8 3577.89c-23.85,0 -41.09,-4.64 -51.67,-14.08 -10.61,-9.45 -15.91,-23.37 -15.91,-42.08 0,-17.89 5.47,-42.42 16.56,-73.38 11.1,-31.14 25.34,-64.44 42.74,-100.22 17.39,-35.78 35.94,-69.74 55.49,-102.04 19.54,-32.31 38.43,-58.97 56.82,-79.85 18.22,-20.88 32.96,-31.3 44.07,-31.3 15.24,0 23.02,6.78 23.02,20.37 0,8.46 -7.28,24.68 -21.69,48.53 -14.41,23.86 -30.15,48.54 -47.2,74.05 -6.8,9.45 -16.24,22.2 -28.16,38.26 -11.94,16.24 -23.37,31.3 -34.46,45.38 -11.1,14.1 -18.23,23.7 -21.71,28.66 -8.44,12.76 -17.38,33.64 -26.83,62.63 -10.27,28.99 -15.24,51.02 -15.24,66.42 0,6.8 1.48,11.92 4.45,15.24 2.99,3.47 9.94,5.13 21.04,5.13 21.2,0 45.06,-6.79 71.56,-20.37 26.34,-13.57 53.17,-30.81 80.34,-51.69 27.16,-20.87 53.01,-42.42 77.19,-64.44 24.18,-22.19 44.88,-41.25 61.95,-57.47 3.48,-3.48 8.44,-5.14 15.24,-5.14 12.75,0 19.22,5.14 19.22,15.24 0,9.44 -5.97,20.04 -17.89,31.98 -23.04,23.04 -44.23,43.4 -63.77,61.3 -19.55,17.88 -38.26,33.62 -56.15,47.2 -28.17,20.37 -59.14,39.09 -93.26,56.15 -33.96,17.07 -65.92,25.51 -95.74,25.51l-0.02 0z"/>
   <path class="fil0" d="M3944.82 3060.88c-14.43,0 -21.71,-7.3 -21.71,-21.69 0,-4.31 2.99,-12.1 8.96,-23.7 5.97,-11.42 12.75,-23.19 20.37,-35.13 7.63,-11.91 13.58,-20.03 17.9,-24.18 14.41,-16.24 25.68,-26.34 33.79,-30.63 8.11,-4.31 15.58,-6.47 22.36,-6.47 17.88,0 26.84,8.11 26.84,24.18 0,5.97 -3.64,12.91 -10.94,21.04 -7.3,8.12 -15.58,15.58 -24.85,22.36 -13.57,8.44 -22.19,15.24 -25.51,20.37l-28.16 39.59c-0.83,3.48 -2.81,6.63 -5.8,9.61 -2.98,2.98 -7.46,4.47 -13.42,4.47l0.17 0.18z"/>
   <path class="fil0" d="M2831.64 3618.8c-5.97,0 -12.75,-2.97 -20.37,-8.94 -7.63,-5.97 -11.42,-12.42 -11.42,-19.22 0,-7.62 8.44,-27.17 25.5,-58.81 17.07,-31.46 44.22,-78.68 81.67,-141.63 37.43,-62.95 86.31,-144.62 146.76,-245.17l167.15 -279.62c9.44,-17.07 20.86,-36.94 34.45,-59.96 13.58,-23.04 30.14,-50.2 49.86,-81.68 5.15,-7.61 10.6,-11.42 16.57,-11.42 5.96,0 11.91,2.82 17.88,8.28 5.97,5.47 8.96,11.27 8.96,17.24 0,3.47 -21.2,41.09 -63.77,112.96 -42.59,71.9 -106.86,178.91 -192.83,321.03 -32.29,53.67 -67.41,112.81 -105.35,177.41 -37.93,64.6 -78.03,134.84 -120.59,210.71 246.82,-66.42 436.49,-99.56 569.33,-99.56 39.92,0 73.38,6.63 100.23,19.71 26.83,13.25 40.24,26.18 40.24,38.92 0,14.41 -7.28,21.7 -21.69,21.7 -11.92,0 -17.89,-6.3 -17.89,-19.22l0 -3.81c-8.45,-4.29 -23.04,-7.61 -43.41,-10.27 -20.37,-2.48 -43.9,-3.79 -70.24,-3.79 -32.3,0 -68.91,2.81 -109.82,8.27 -40.91,5.47 -82.33,12.25 -124.41,20.38 -42.07,8.11 -81.49,16.39 -118.1,24.85 -35.78,7.61 -69.57,15.9 -101.54,24.84 -31.98,8.95 -61.46,16.73 -88.79,23.69 -16.24,3.48 -27.84,6.3 -35.12,8.95 -7.3,2.48 -11.77,3.8 -13.42,3.8l0.18 0.34z"/>
   <path class="fil0" d="M1991.61 3576.72c-49.35,0 -74.03,-23.35 -74.03,-70.22 0,-30.65 7.45,-63.61 22.36,-98.9 14.91,-35.28 35.12,-69.74 60.63,-103.37 25.5,-33.62 53.99,-64.27 85.47,-91.93 31.46,-27.66 63.77,-49.85 97.07,-66.42 33.12,-16.57 65.09,-24.85 95.74,-24.85 54.5,0 81.66,26.83 81.66,80.35 0,34.95 -8.45,52.34 -25.52,52.34 -15.24,0 -23.02,-7.3 -23.02,-21.69 0,-5.97 1.48,-12.09 4.46,-18.56 2.97,-6.46 4.47,-13.41 4.47,-21.04 0,-23.85 -16.24,-35.78 -48.54,-35.78 -51.85,0 -116.95,39.59 -195.29,118.77 -18.72,19.55 -36.95,42.59 -54.83,68.92 -17.89,26.34 -32.48,53 -44.07,79.85 -11.43,26.84 -17.23,52.17 -17.23,76.03 0,23.03 12.75,34.45 38.26,34.45 22.19,0 45.72,-6.8 70.91,-20.37 25.18,-13.58 47.04,-27.67 65.75,-42.08 37.45,-28.16 75.71,-66.42 114.97,-114.97 5.97,-6.8 13.58,-15.74 23.04,-26.83 9.27,-11.11 20.03,-23.37 31.97,-36.95 4.31,-4.29 9.44,-6.46 15.25,-6.46 13.57,0 20.37,6.79 20.37,20.37l-48.53 72.72c-32.3,47.7 -48.52,86.81 -48.52,117.44 0,22.2 10.59,33.14 31.96,33.14 17.9,0 37.45,-4.65 58.64,-14.09 21.2,-9.45 38.76,-18.72 52.34,-28.16 27.17,-17.89 55.83,-40.25 85.48,-67.09 29.8,-26.83 58.29,-53.84 85.47,-81 3.48,-3.48 8.45,-5.15 15.24,-5.15 12.75,0 19.22,5.15 19.22,15.24 0,9.45 -5.97,20.05 -17.9,31.98 -33.96,33.96 -64.6,63.11 -91.93,87.48 -27.16,24.18 -53.18,44.06 -77.86,59.3 -16.24,9.44 -36.11,19.21 -59.97,29.31 -23.85,10.28 -51.02,15.24 -81.66,15.24 -41.75,0 -62.61,-22.19 -62.61,-66.42 0,-17.07 2.15,-31.14 6.29,-42.08 -77.52,74.05 -149.41,110.99 -215.68,110.99l0.16 0.48z"/>
   <path class="fil0" d="M1682.68 3578.05c-23.87,0 -41.09,-4.63 -51.69,-14.09 -10.6,-9.45 -15.91,-23.35 -15.91,-42.07 0,-17.9 5.47,-42.42 16.57,-73.38 11.09,-31.14 25.35,-64.44 42.74,-100.21 17.4,-35.79 35.95,-69.74 55.49,-102.05 19.55,-32.3 38.43,-58.97 56.82,-79.85 18.22,-20.87 32.97,-31.3 44.06,-31.3 15.24,0 23.04,6.78 23.04,20.37 0,8.46 -7.3,24.69 -21.69,48.54 -14.43,23.85 -30.15,48.53 -47.22,74.05 -6.78,9.44 -16.23,22.19 -28.16,38.26 -11.92,16.24 -23.35,31.3 -34.46,45.38 -11.09,14.09 -18.22,23.7 -21.69,28.65 -8.44,12.75 -17.4,33.64 -26.84,62.63 -10.26,28.99 -15.24,51.01 -15.24,66.42 0,6.8 1.49,11.92 4.47,15.24 2.98,3.48 9.94,5.14 21.03,5.14 21.2,0 45.05,-6.8 71.57,-20.37 26.33,-13.58 53.17,-30.82 80.34,-51.69 27.17,-20.88 53.02,-42.42 77.19,-64.44 24.18,-22.2 44.9,-41.25 61.97,-57.48 3.48,-3.48 8.44,-5.14 15.24,-5.14 12.75,0 19.21,5.14 19.21,15.24 0,9.44 -5.96,20.05 -17.9,31.98 -23.02,23.04 -44.22,43.4 -63.77,61.3 -19.53,17.89 -38.26,33.63 -56.15,47.2 -28.16,20.37 -59.12,39.09 -93.26,56.15 -33.96,17.07 -65.92,25.51 -95.73,25.51l-0.01 0z"/>
   <path class="fil0" d="M1899.68 3061.06c-14.41,0 -21.69,-7.3 -21.69,-21.7 0,-4.3 2.97,-12.09 8.94,-23.7 5.97,-11.42 12.75,-23.19 20.38,-35.12 7.61,-11.92 13.57,-20.03 17.88,-24.18 14.43,-16.24 25.68,-26.34 33.79,-30.64 8.13,-4.3 15.59,-6.47 22.37,-6.47 17.89,0 26.83,8.12 26.83,24.19 0,5.96 -3.64,12.91 -10.94,21.02 -7.28,8.13 -15.57,15.59 -24.84,22.37 -13.57,8.44 -22.2,15.24 -25.52,20.37l-28.16 39.6c-0.81,3.47 -2.81,6.63 -5.8,9.6 -2.98,2.98 -7.45,4.46 -13.41,4.46l0.16 0.2z"/>
   <path class="fil0" d="M1286.94 3576.72c-10.26,0 -15.24,-3.8 -15.24,-11.42 -13.57,-23.87 -20.36,-72.72 -20.36,-146.77 0,-17.88 1.31,-41.75 3.8,-71.56 2.48,-29.82 5.97,-60.79 10.26,-93.26 4.31,-32.31 8.96,-61.95 14.1,-88.8 5.13,-26.82 10.59,-46.21 16.56,-58.14 5.14,-10.26 11.42,-15.24 19.21,-15.24 13.57,0 20.37,5.47 20.37,16.57 0,5.97 -0.83,11.76 -2.48,17.22 -1.66,5.48 -3.48,12.1 -5.14,19.71 -11.1,42.58 -19.71,87.64 -26.18,135.35 -6.47,47.7 -9.61,96.57 -9.61,146.76 0,23.03 1,43.41 3.14,61.3 2.15,17.88 4.47,33.12 6.96,45.88 23.86,-9.45 50.18,-27.83 79.19,-55.49 28.99,-27.66 56.98,-58.48 84.31,-92.6 22.19,-28.16 42.42,-56.65 60.63,-85.47 18.22,-28.99 32.81,-56.14 43.4,-81.66 10.6,-25.51 15.9,-46.39 15.9,-62.61 0,-11.11 -0.99,-18.73 -3.14,-23.04 -2.14,-4.31 -4.47,-7.63 -6.96,-10.27 -2.48,-2.48 -3.8,-7.3 -3.8,-14.09 0,-12.74 6.46,-19.21 19.21,-19.21 8.46,0 16.24,6.29 23.04,19.21 6.8,12.75 10.28,29 10.28,48.52 0,60.47 -42.09,145.12 -126.39,254.11 -86.81,109.84 -157.04,164.66 -210.55,164.66l-0.51 0.33z"/>
   <path class="fil0" d="M958.95 3578.05c-23.86,0 -41.08,-4.63 -51.69,-14.09 -10.6,-9.45 -15.9,-23.35 -15.9,-42.07 0,-17.9 5.47,-42.42 16.57,-73.38 11.1,-31.14 25.35,-64.44 42.73,-100.21 17.4,-35.79 35.95,-69.74 55.5,-102.05 19.54,-32.3 38.43,-58.97 56.81,-79.85 18.22,-20.87 32.98,-31.3 44.06,-31.3 15.24,0 23.04,6.78 23.04,20.37 0,8.46 -7.3,24.69 -21.69,48.54 -14.42,23.85 -30.15,48.53 -47.22,74.05 -6.78,9.44 -16.22,22.19 -28.16,38.26 -11.92,16.24 -23.35,31.3 -34.45,45.38 -11.09,14.09 -18.22,23.7 -21.69,28.65 -8.45,12.75 -17.4,33.64 -26.85,62.63 -10.26,28.99 -15.24,51.01 -15.24,66.42 0,6.8 1.5,11.92 4.48,15.24 2.97,3.48 9.93,5.14 21.02,5.14 21.21,0 45.06,-6.8 71.57,-20.37 26.33,-13.58 53.18,-30.82 80.34,-51.69 27.17,-20.88 53.02,-42.42 77.19,-64.44 24.2,-22.2 44.89,-41.25 61.97,-57.48 3.47,-3.48 8.44,-5.14 15.24,-5.14 12.75,0 19.22,5.14 19.22,15.24 0,9.44 -5.97,20.05 -17.9,31.98 -23.02,23.04 -44.23,43.4 -63.77,61.3 -19.53,17.89 -38.27,33.63 -56.15,47.2 -28.16,20.37 -59.12,39.09 -93.27,56.15 -33.96,17.07 -65.92,25.51 -95.73,25.51l-0.02 0z"/>
   <path class="fil0" d="M1175.96 3061.06c-14.41,0 -21.7,-7.3 -21.7,-21.7 0,-4.3 2.98,-12.09 8.95,-23.7 5.96,-11.42 12.75,-23.19 20.37,-35.12 7.61,-11.92 13.58,-20.03 17.89,-24.18 14.42,-16.24 25.67,-26.34 33.8,-30.64 8.12,-4.3 15.58,-6.47 22.36,-6.47 17.89,0 26.83,8.12 26.83,24.19 0,5.96 -3.64,12.91 -10.93,21.02 -7.29,8.13 -15.59,15.59 -24.86,22.37 -13.57,8.44 -22.19,15.24 -25.51,20.37l-28.16 39.6c-0.82,3.47 -2.81,6.63 -5.8,9.6 -2.98,2.98 -7.45,4.46 -13.42,4.46l0.17 0.2z"/>
   <path class="fil0" d="M62.78 3618.98c-5.97,0 -12.75,-2.98 -20.37,-8.94 -7.63,-5.97 -11.43,-12.43 -11.43,-19.22 0,-7.63 8.44,-27.17 25.51,-58.81 17.07,-31.47 44.23,-78.69 81.66,-141.64 37.43,-62.94 86.3,-144.61 146.77,-245.17l167.14 -279.62c9.44,-17.05 20.87,-36.94 34.47,-59.97 13.57,-23.02 30.14,-50.18 49.85,-81.66 5.14,-7.62 10.6,-11.42 16.57,-11.42 5.97,0 11.92,2.81 17.88,8.28 5.97,5.46 8.95,11.26 8.95,17.23 0,3.48 -21.2,41.09 -63.78,112.96 -42.56,71.89 -106.84,178.91 -192.81,321.03 -32.31,53.68 -67.41,112.81 -105.36,177.41 -37.93,64.6 -78.02,134.85 -120.59,210.71 246.82,-66.42 436.5,-99.56 569.34,-99.56 39.92,0 73.39,6.64 100.21,19.71 26.85,13.25 40.26,26.18 40.26,38.93 0,14.41 -7.3,21.69 -21.7,21.69 -11.92,0 -17.89,-6.3 -17.89,-19.22l0 -3.8c-8.44,-4.31 -23.02,-7.61 -43.4,-10.28 -20.37,-2.48 -43.9,-3.79 -70.24,-3.79 -32.31,0 -68.91,2.81 -109.82,8.28 -40.92,5.46 -82.32,12.25 -124.41,20.37 -42.08,8.12 -81.49,16.39 -118.11,24.85 -35.77,7.61 -69.58,15.9 -101.54,24.85 -31.98,8.94 -61.45,16.73 -88.79,23.69 -16.24,3.47 -27.83,6.29 -35.13,8.94 -7.28,2.49 -11.75,3.8 -13.41,3.8l0.18 0.35z"/>
   <path class="fil0" d="M4841.81 4022.34c-16.57,0 -32.15,-2.48 -46.54,-7.3 -14.42,-4.8 -25.51,-10.93 -33.48,-18.39l8.79 -15.24c7.61,6.63 17.88,12.25 30.63,17.06 12.75,4.65 26.51,7.12 41.42,7.12 20.86,0 35.95,-3.48 45.23,-10.27 9.11,-6.95 13.75,-15.91 13.75,-27.16 0,-8.13 -2.31,-14.58 -7.12,-19.38 -4.64,-4.64 -11.09,-8.28 -18.88,-10.94 -7.95,-2.48 -16.56,-4.64 -26,-6.3 -9.45,-1.64 -18.88,-3.47 -28.33,-5.46 -9.45,-1.98 -18.06,-4.97 -26.01,-8.78 -7.96,-3.81 -14.26,-9.11 -18.88,-15.9 -4.65,-6.8 -7.13,-15.74 -7.13,-27 0,-10.27 2.82,-19.38 8.45,-27.51 5.63,-8.11 14.09,-14.74 25.18,-19.71 11.27,-4.97 25.18,-7.44 42.08,-7.44 12.42,0 25.01,1.82 37.77,5.3 12.59,3.64 22.87,8.28 30.8,14.09l-8.78 15.24c-8.44,-6.29 -17.88,-10.94 -28.32,-13.76 -10.44,-2.81 -21.03,-4.14 -31.81,-4.14 -19.38,0 -33.62,3.64 -42.73,10.77 -9.12,7.12 -13.58,16.07 -13.58,26.83 0,8.45 2.31,15.09 7.12,20.04 4.65,4.98 11.11,8.78 18.9,11.44 7.95,2.64 16.55,4.8 26,6.46 9.44,1.65 18.88,3.48 28.32,5.63 9.45,1.99 18.07,4.98 26.02,8.62 7.96,3.64 14.26,8.78 18.88,15.24 4.65,6.47 7.12,15.24 7.12,26.18 0,10.92 -2.98,20.53 -8.94,28.65 -5.97,8.11 -14.91,14.58 -26.68,19.21 -11.76,4.64 -26.18,6.97 -43.24,6.97l-0.01 -0.18z"/>
   <path class="fil0" d="M4155.51 4005.1c15.24,0 29.16,-3.48 41.42,-10.59 12.25,-6.96 21.86,-16.9 28.65,-29.65 6.96,-12.75 10.28,-27.5 10.28,-44.07 0,-16.9 -3.48,-31.63 -10.28,-44.22 -6.96,-12.59 -16.4,-22.53 -28.65,-29.49 -12.25,-6.96 -26.01,-10.6 -41.42,-10.6 -15.24,0 -28.99,3.48 -41.08,10.6 -12.09,6.96 -21.7,16.9 -28.66,29.49 -6.95,12.58 -10.59,27.33 -10.59,44.22 0,16.57 3.47,31.3 10.59,44.07 6.96,12.75 16.57,22.69 28.66,29.65 12.09,6.95 25.85,10.59 41.08,10.59zm0 17.24c-19.21,0 -36.11,-4.31 -51.01,-13.09 -14.92,-8.62 -26.84,-20.71 -35.62,-35.95 -8.78,-15.24 -13.25,-32.8 -13.25,-52.51 0,-19.88 4.47,-37.43 13.25,-52.68 8.78,-15.24 20.7,-27.16 35.62,-35.77 14.91,-8.62 31.97,-13.09 51.01,-13.09 19.22,0 36.28,4.31 51.36,13.09 15.07,8.61 27,20.53 35.62,35.77 8.61,15.25 13.09,32.81 13.09,52.68 0,19.71 -4.31,37.11 -13.09,52.51 -8.62,15.24 -20.54,27.34 -35.62,35.95 -15.08,8.61 -32.15,13.09 -51.36,13.09z"/>
   <path class="fil0" d="M3954.75 3772.36c-4.3,0 -7.96,-1.5 -11.1,-4.65 -3.14,-3.14 -4.64,-6.63 -4.64,-10.76 0,-4.31 1.48,-8.13 4.64,-11.11 3.14,-2.97 6.8,-4.63 11.1,-4.63 4.64,0 8.28,1.48 11.26,4.45 2.97,3 4.47,6.64 4.47,10.94 0,4.31 -1.5,8.12 -4.47,11.11 -2.98,2.97 -6.64,4.63 -11.26,4.63l0 0.02z"/>
   <polygon class="fil0" points="3945.15,4020.84 3945.15,3821.06 3964.36,3821.06 3964.36,4020.84 "/>
   <path class="fil0" d="M3761.93 4020.84l0 -199.78 18.39 0 0 43.38 0.31 -0.74c5.52,-13.35 14.44,-23.69 26.02,-31.21 13.25,-8.62 29.82,-13.08 49.7,-13.08l0 18.71c-0.83,0 -1.49,0 -2.32,-0.16 -0.82,-0.17 -1.48,-0.17 -2.31,-0.17 -22.2,0 -39.6,6.96 -52.02,20.86 -12.43,13.93 -18.73,33.31 -18.73,57.98l0 104.19 -19.22 0 0.17 0.02z"/>
   <polygon class="fil0" points="3283.37,3837.46 3283.37,3821.05 3402.8,3821.05 3402.8,3837.46 "/>
   <path class="fil0" d="M3374.47 4022.34c-17.55,0 -31.13,-4.82 -40.4,-14.58 -9.27,-9.77 -13.92,-23.03 -13.92,-39.75l0 -190.67 19.2 0 0 188.69c0,12.74 3.16,22.52 9.61,29.47 6.3,6.96 15.58,10.28 27.51,10.28 12.59,0 22.86,-3.65 30.97,-11.09l8.13 13.4c-5.15,4.81 -11.27,8.45 -18.56,10.76 -7.29,2.31 -14.75,3.48 -22.36,3.48l-0.17 0.02z"/>
   <path class="fil0" d="M2903.53 3772.36c-4.31,0 -7.96,-1.5 -11.11,-4.65 -3.14,-3.14 -4.63,-6.63 -4.63,-10.76 0,-4.31 1.49,-8.13 4.63,-11.11 3.14,-2.97 6.8,-4.63 11.11,-4.63 4.63,0 8.28,1.48 11.25,4.45 2.99,3 4.47,6.64 4.47,10.94 0,4.31 -1.48,8.12 -4.47,11.11 -2.97,2.97 -6.62,4.63 -11.25,4.63l0 0.02z"/>
   <polygon class="fil0" points="2893.92,4020.84 2893.92,3821.06 2913.14,3821.06 2913.14,4020.84 "/>
   <polygon class="fil0" points="2304.37,4020.84 2304.37,3955.41 2307.85,3920.63 2304.04,3885.84 2304.04,3736.92 2323.25,3736.92 2323.25,4021 2304.53,4021 "/>
   <path class="fil0" d="M2223.54 4005.1c15.24,0 28.99,-3.48 41.09,-10.59 12.08,-6.96 21.69,-16.9 28.65,-29.65 6.96,-12.75 10.6,-27.5 10.6,-44.07 0,-16.9 -3.47,-31.63 -10.6,-44.22 -6.96,-12.59 -16.57,-22.53 -28.65,-29.49 -12.08,-6.96 -25.85,-10.6 -41.09,-10.6 -15.24,0 -28.99,3.48 -41.09,10.6 -12.08,6.96 -21.69,16.9 -28.65,29.49 -6.96,12.58 -10.6,27.33 -10.6,44.22 0,16.57 3.47,31.3 10.6,44.07 6.96,12.75 16.57,22.69 28.65,29.65 12.08,6.95 25.85,10.59 41.09,10.59zm-1.16 17.24c-18.55,0 -35.45,-4.31 -50.36,-12.75 -14.92,-8.62 -26.68,-20.54 -35.45,-35.79 -8.61,-15.24 -13.08,-32.96 -13.08,-52.84 0,-20.21 4.31,-37.77 13.08,-53.01 8.62,-15.25 20.54,-27.01 35.45,-35.62 14.91,-8.62 31.63,-12.75 50.36,-12.75 17.56,0 33.46,4.13 47.71,12.25 14.08,8.11 25.35,19.71 33.62,34.79 8.28,15.07 12.42,33.12 12.42,54.34 0,20.69 -4.14,38.6 -12.25,54 -8.12,15.24 -19.38,26.99 -33.46,35.28 -14.1,8.12 -30.15,12.25 -48.04,12.25l0 -0.16z"/>
   <path class="fil0" d="M1312.28 3819.42c16.41,0 30.49,3.13 42.75,9.44 12.08,6.29 21.53,15.74 28.32,28.32 6.8,12.59 10.11,28.33 10.11,46.88l0 116.78 -19.21 0 0 -115.29c0,-22.53 -5.63,-39.6 -17.08,-51.36 -11.42,-11.75 -27.16,-17.56 -47.7,-17.56 -15.58,0 -29.15,3.14 -40.58,9.6 -11.43,6.47 -20.21,15.25 -26.18,26.84 -5.97,11.42 -8.94,25.19 -8.94,41.42l0 106.34 -19.22 0 0 -199.78 18.39 0 0 43.23 2.59 -4.95c5.7,-10.9 14.46,-19.44 25.07,-26.18 14.09,-9.13 31.31,-13.58 51.69,-13.58l-0.02 -0.16z"/>
   <path class="fil0" d="M1000.54 3996.32c16.07,0 30.31,-3.31 42.41,-10.11 12.25,-6.8 21.86,-16.24 28.83,-28.32 6.96,-12.09 10.6,-26.02 10.6,-41.59 0,-15.91 -3.48,-29.81 -10.6,-41.74 -6.97,-11.94 -16.57,-21.37 -28.83,-28 -12.25,-6.62 -26.34,-9.93 -42.41,-9.93 -15.57,0 -29.49,3.31 -41.91,9.93 -12.42,6.63 -22.03,15.9 -29.16,28 -6.96,11.92 -10.6,25.83 -10.6,41.74 0,15.57 3.48,29.49 10.6,41.59 6.96,12.08 16.74,21.52 29.16,28.32 12.42,6.8 26.34,10.11 41.91,10.11zm-1.51 17.24c-18.88,0 -35.77,-4.14 -50.69,-12.43 -14.91,-8.28 -26.83,-19.7 -35.61,-34.45 -8.79,-14.75 -13.25,-31.47 -13.25,-50.36 0,-19.22 4.45,-35.94 13.25,-50.53 8.78,-14.58 20.7,-25.83 35.61,-34.12 14.92,-8.12 31.8,-12.25 50.69,-12.25 18.07,0 34.46,3.81 48.87,11.59 14.4,7.79 25.85,18.88 34.29,33.3 8.44,14.41 12.58,31.63 12.58,51.85 0,19.88 -4.14,37.11 -12.58,51.69 -8.44,14.58 -19.88,25.85 -34.29,33.63 -14.41,7.96 -30.65,11.93 -48.87,11.93l0 0.17z"/>
   <path class="fil0" d="M1004.33 4096.53c-18.05,0 -35.27,-2.81 -51.67,-8.44 -16.41,-5.63 -29.66,-13.41 -39.76,-23.35l10.28 -14.59c9.93,9.11 21.86,16.41 35.78,21.37 13.92,5.14 28.83,7.61 44.9,7.61 26.83,0 46.54,-6.29 59.12,-18.71 12.59,-12.59 18.88,-32.15 18.88,-58.96l0 -55.5 3.81 -29.82 -3.14 -29.8 0 -65.44 18.38 0 0 178.41c0,33.46 -8.11,57.98 -24.35,73.72 -16.24,15.74 -40.41,23.52 -72.55,23.52l0.33 -0.02z"/>
   <path class="fil0" d="M798.6 3772.36c-4.3,0 -7.95,-1.5 -11.09,-4.65 -3.14,-3.14 -4.65,-6.63 -4.65,-10.76 0,-4.31 1.49,-8.13 4.65,-11.11 3.14,-2.97 6.79,-4.63 11.09,-4.63 4.65,0 8.29,1.48 11.26,4.45 2.98,3 4.48,6.64 4.48,10.94 0,4.31 -1.5,8.12 -4.48,11.11 -2.97,2.97 -6.63,4.63 -11.26,4.63l0 0.02z"/>
   <polygon class="fil0" points="788.99,4020.84 788.99,3821.06 808.2,3821.06 808.2,4020.84 "/>
   <path class="fil0" d="M624.16 4022.34c-16.55,0 -32.13,-2.48 -46.54,-7.3 -14.41,-4.8 -25.52,-10.93 -33.47,-18.39l8.78 -15.24c7.61,6.63 17.89,12.25 30.64,17.06 12.75,4.65 26.5,7.12 41.41,7.12 20.88,0 35.95,-3.48 45.23,-10.27 9.1,-6.95 13.75,-15.91 13.75,-27.16 0,-8.13 -2.31,-14.58 -7.12,-19.38 -4.65,-4.64 -11.11,-8.28 -18.88,-10.94 -7.96,-2.48 -16.57,-4.64 -26.02,-6.3 -9.44,-1.64 -18.87,-3.47 -28.32,-5.46 -9.44,-1.98 -18.06,-4.97 -26.01,-8.78 -7.95,-3.81 -14.25,-9.11 -18.88,-15.9 -4.64,-6.8 -7.13,-15.74 -7.13,-27 0,-10.27 2.81,-19.38 8.46,-27.51 5.63,-8.11 14.08,-14.74 25.18,-19.71 11.26,-4.97 25.19,-7.44 42.07,-7.44 12.42,0 25.01,1.82 37.77,5.3 12.58,3.64 22.86,8.28 30.81,14.09l-8.78 15.24c-8.45,-6.29 -17.9,-10.94 -28.34,-13.76 -10.42,-2.81 -21.02,-4.14 -31.8,-4.14 -19.38,0 -33.62,3.64 -42.73,10.77 -9.11,7.12 -13.58,16.07 -13.58,26.83 0,8.45 2.31,15.09 7.13,20.04 4.63,4.98 11.08,8.78 18.88,11.44 7.94,2.64 16.56,4.8 26.01,6.46 9.44,1.65 18.88,3.48 28.32,5.63 9.45,1.99 18.05,4.98 26,8.62 7.96,3.64 14.26,8.78 18.88,15.24 4.65,6.47 7.13,15.24 7.13,26.18 0,10.92 -2.98,20.53 -8.95,28.65 -5.96,8.11 -14.91,14.58 -26.68,19.21 -11.75,4.64 -26.16,6.97 -43.23,6.97l-0.02 -0.18z"/>
   <path class="fil0" d="M393.92 4022.34c-20.21,0 -37.93,-4.31 -53.34,-13.09 -15.41,-8.62 -27.51,-20.71 -36.28,-35.95 -8.78,-15.24 -13.25,-32.8 -13.25,-52.51 0,-19.88 4.14,-37.43 12.42,-52.68 8.29,-15.24 19.71,-27.16 34.31,-35.77 14.58,-8.62 30.8,-13.09 49.02,-13.09 18.05,0 34.45,4.14 48.86,12.59 14.41,8.44 25.85,20.21 34.13,35.45 8.28,15.24 12.42,32.8 12.42,52.68 0,0.83 0,1.66 -0.16,2.48 -0.17,0.83 -0.17,1.82 -0.17,2.82l-161.5 0 -4.89 0 -5.15 0c0.53,14.84 4.15,27.97 10.88,39.58 7.28,12.59 17.22,22.52 29.97,29.49 12.77,6.96 27.34,10.61 43.58,10.61 12.75,0 24.69,-2.33 35.77,-6.96 11.11,-4.66 20.54,-11.6 28.16,-21.05l11.11 12.59c-8.62,10.77 -19.55,18.89 -32.81,24.36 -13.07,5.46 -27.33,8.28 -42.74,8.28l-0.32 0.18zm-78.44 -112l4.89 0 143.48 0 -0.08 -1.42c-0.64,-12.1 -4.06,-23.14 -9.57,-33.21 -6.79,-12.42 -15.9,-22.03 -27.33,-29.15 -11.43,-6.95 -24.7,-10.59 -39.75,-10.59 -14.75,0 -27.99,3.48 -39.6,10.59 -11.59,6.96 -20.69,16.73 -27.33,29.15 -5.55,10.37 -8.76,21.92 -9.67,34.62l4.94 0z"/>
   <polygon class="fil0" points="180.89,4020.84 180.89,3955.41 184.37,3920.63 180.56,3885.84 180.56,3736.92 199.78,3736.92 199.78,4021 181.06,4021 "/>
   <path class="fil0" d="M100.05 4005.1c15.25,0 28.99,-3.48 41.08,-10.59 12.1,-6.96 21.71,-16.9 28.66,-29.65 6.96,-12.75 10.6,-27.5 10.6,-44.07 0,-16.9 -3.48,-31.63 -10.6,-44.22 -6.95,-12.59 -16.56,-22.53 -28.66,-29.49 -12.08,-6.96 -25.83,-10.6 -41.08,-10.6 -15.24,0 -28.98,3.48 -41.08,10.6 -12.09,6.96 -21.7,16.9 -28.65,29.49 -6.96,12.58 -10.6,27.33 -10.6,44.22 0,16.57 3.48,31.3 10.6,44.07 6.95,12.75 16.56,22.69 28.65,29.65 12.09,6.95 25.84,10.59 41.08,10.59zm-1.16 17.24c-18.55,0 -35.45,-4.31 -50.36,-12.75 -14.91,-8.62 -26.68,-20.54 -35.45,-35.79 -8.62,-15.24 -13.09,-32.96 -13.09,-52.84 0,-20.21 4.31,-37.77 13.09,-53.01 8.61,-15.25 20.54,-27.01 35.45,-35.62 14.91,-8.62 31.63,-12.75 50.36,-12.75 17.56,0 33.47,4.13 47.71,12.25 14.08,8.11 25.35,19.71 33.63,34.79 8.29,15.07 12.42,33.12 12.42,54.34 0,20.69 -4.13,38.6 -12.25,54 -8.11,15.24 -19.38,26.99 -33.46,35.28 -14.1,8.12 -30.15,12.25 -48.04,12.25l0 -0.16z"/>
   <rect class="fil0" x="301.3" y="3910.34" width="19.06" height="14.92"/>
   <path class="fil0" d="M1585.79 4022.34c-20.21,0 -37.94,-4.31 -53.34,-13.09 -15.41,-8.62 -27.51,-20.71 -36.28,-35.95 -8.77,-15.24 -13.25,-32.8 -13.25,-52.51 0,-19.88 4.14,-37.43 12.42,-52.68 8.3,-15.24 19.71,-27.16 34.31,-35.77 14.58,-8.62 30.8,-13.09 49.02,-13.09 18.05,0 34.46,4.14 48.87,12.59 14.4,8.44 25.85,20.21 34.12,35.45 8.28,15.24 12.42,32.8 12.42,52.68 0,0.83 0,1.66 -0.16,2.48 -0.16,0.83 -0.16,1.82 -0.16,2.82l-161.5 0 -4.89 0 -5.15 0c0.52,14.84 4.15,27.97 10.87,39.58 7.28,12.59 17.22,22.52 29.97,29.49 12.76,6.96 27.34,10.61 43.58,10.61 12.75,0 24.68,-2.33 35.77,-6.96 11.1,-4.66 20.54,-11.6 28.16,-21.05l11.1 12.59c-8.61,10.77 -19.54,18.89 -32.81,24.36 -13.07,5.46 -27.33,8.28 -42.73,8.28l-0.32 0.18zm-78.45 -112l4.89 0 143.48 0 -0.07 -1.42c-0.64,-12.1 -4.06,-23.14 -9.57,-33.21 -6.8,-12.42 -15.91,-22.03 -27.33,-29.15 -11.44,-6.95 -24.7,-10.59 -39.76,-10.59 -14.75,0 -27.99,3.48 -39.59,10.59 -11.59,6.96 -20.7,16.73 -27.33,29.15 -5.55,10.37 -8.77,21.92 -9.67,34.62l4.94 0z"/>
   <path class="fil0" d="M2517.41 4022.34c-20.21,0 -37.94,-4.31 -53.34,-13.09 -15.41,-8.62 -27.51,-20.71 -36.28,-35.95 -8.78,-15.24 -13.25,-32.8 -13.25,-52.51 0,-19.88 4.14,-37.43 12.42,-52.68 8.3,-15.24 19.71,-27.16 34.31,-35.77 14.58,-8.62 30.8,-13.09 49.02,-13.09 18.05,0 34.46,4.14 48.86,12.59 14.41,8.44 25.85,20.21 34.13,35.45 8.28,15.24 12.42,32.8 12.42,52.68 0,0.83 0,1.66 -0.16,2.48 -0.17,0.83 -0.17,1.82 -0.17,2.82l-161.5 0 -4.89 0 -5.15 0c0.52,14.84 4.15,27.97 10.87,39.58 7.28,12.59 17.22,22.52 29.97,29.49 12.76,6.96 27.34,10.61 43.58,10.61 12.74,0 24.68,-2.33 35.77,-6.96 11.1,-4.66 20.54,-11.6 28.16,-21.05l11.1 12.59c-8.61,10.77 -19.54,18.89 -32.81,24.36 -13.07,5.46 -27.33,8.28 -42.73,8.28l-0.32 0.18zm-78.45 -112l4.89 0 143.48 0 -0.07 -1.42c-0.64,-12.1 -4.06,-23.14 -9.57,-33.21 -6.8,-12.42 -15.91,-22.03 -27.33,-29.15 -11.44,-6.95 -24.7,-10.59 -39.76,-10.59 -14.75,0 -27.99,3.48 -39.59,10.59 -11.59,6.96 -20.7,16.73 -27.33,29.15 -5.55,10.37 -8.77,21.92 -9.67,34.62l4.94 0z"/>
   <path class="fil0" d="M3582.2 4022.34c-20.22,0 -37.94,-4.31 -53.34,-13.09 -15.41,-8.62 -27.51,-20.71 -36.28,-35.95 -8.78,-15.24 -13.25,-32.8 -13.25,-52.51 0,-19.88 4.14,-37.43 12.42,-52.68 8.29,-15.24 19.71,-27.16 34.31,-35.77 14.58,-8.62 30.8,-13.09 49.02,-13.09 18.05,0 34.46,4.14 48.86,12.59 14.41,8.44 25.85,20.21 34.13,35.45 8.28,15.24 12.42,32.8 12.42,52.68 0,0.83 0,1.66 -0.16,2.48 -0.17,0.83 -0.17,1.82 -0.17,2.82l-161.5 0 -4.89 0 -5.15 0c0.52,14.84 4.15,27.97 10.87,39.58 7.28,12.59 17.22,22.52 29.97,29.49 12.76,6.96 27.34,10.61 43.57,10.61 12.75,0 24.69,-2.33 35.78,-6.96 11.1,-4.66 20.54,-11.6 28.16,-21.05l11.1 12.59c-8.61,10.77 -19.54,18.89 -32.81,24.36 -13.07,5.46 -27.33,8.28 -42.73,8.28l-0.32 0.18zm-78.45 -112l4.89 0 143.48 0 -0.07 -1.42c-0.64,-12.1 -4.06,-23.14 -9.57,-33.21 -6.8,-12.42 -15.91,-22.03 -27.34,-29.15 -11.43,-6.95 -24.69,-10.59 -39.75,-10.59 -14.75,0 -27.99,3.48 -39.59,10.59 -11.6,6.96 -20.7,16.73 -27.34,29.15 -5.54,10.37 -8.76,21.92 -9.67,34.62l4.94 0z"/>
   <path class="fil0" d="M4611.57 4022.34c-20.22,0 -37.94,-4.31 -53.34,-13.09 -15.41,-8.62 -27.51,-20.71 -36.28,-35.95 -8.78,-15.24 -13.25,-32.8 -13.25,-52.51 0,-19.88 4.14,-37.43 12.42,-52.68 8.3,-15.24 19.71,-27.16 34.31,-35.77 14.58,-8.62 30.8,-13.09 49.02,-13.09 18.05,0 34.46,4.14 48.86,12.59 14.41,8.44 25.85,20.21 34.13,35.45 8.28,15.24 12.42,32.8 12.42,52.68 0,0.83 0,1.66 -0.16,2.48 -0.17,0.83 -0.17,1.82 -0.17,2.82l-161.5 0 -4.89 0 -5.15 0c0.52,14.84 4.15,27.97 10.87,39.58 7.28,12.59 17.22,22.52 29.97,29.49 12.76,6.96 27.34,10.61 43.58,10.61 12.74,0 24.68,-2.33 35.77,-6.96 11.1,-4.66 20.54,-11.6 28.16,-21.05l11.1 12.59c-8.61,10.77 -19.54,18.89 -32.81,24.36 -13.07,5.46 -27.33,8.28 -42.73,8.28l-0.32 0.18zm-78.45 -112l4.89 0 143.48 0 -0.07 -1.42c-0.64,-12.1 -4.06,-23.14 -9.57,-33.21 -6.8,-12.42 -15.91,-22.03 -27.33,-29.15 -11.44,-6.95 -24.7,-10.59 -39.76,-10.59 -14.75,0 -27.99,3.48 -39.59,10.59 -11.59,6.96 -20.7,16.73 -27.33,29.15 -5.55,10.37 -8.77,21.92 -9.67,34.62l4.94 0z"/>
   <path class="fil0" d="M4347.17 4020.84l0 -199.78 18.39 0 0 43.38 0.31 -0.74c5.51,-13.35 14.44,-23.69 26.02,-31.21 13.25,-8.62 29.82,-13.08 49.7,-13.08l0 18.71c-0.83,0 -1.5,0 -2.33,-0.16 -0.81,-0.17 -1.48,-0.17 -2.31,-0.17 -22.19,0 -39.59,6.96 -52.01,20.86 -12.43,13.93 -18.73,33.31 -18.73,57.98l0 104.19 -19.22 0 0.17 0.02z"/>
   <path class="fil0" d="M1765.5 4020.84l0 -199.78 18.39 0 0 43.38 0.31 -0.74c5.52,-13.35 14.44,-23.69 26.02,-31.21 13.25,-8.62 29.82,-13.08 49.7,-13.08l0 18.71c-0.83,0 -1.49,0 -2.32,-0.16 -0.82,-0.17 -1.48,-0.17 -2.31,-0.17 -22.2,0 -39.59,6.96 -52.02,20.86 -12.43,13.93 -18.73,33.31 -18.73,57.98l0 104.19 -19.21 0 0.16 0.02z"/>
   <path class="fil0" d="M3123.84 3819.42c16.41,0 30.49,3.13 42.75,9.44 12.08,6.29 21.53,15.74 28.33,28.32 6.79,12.59 10.11,28.33 10.11,46.88l0 116.78 -19.22 0 0 -115.29c0,-22.53 -5.63,-39.6 -17.07,-51.36 -11.42,-11.75 -27.16,-17.56 -47.71,-17.56 -15.57,0 -29.15,3.14 -40.58,9.6 -11.43,6.47 -20.21,15.25 -26.18,26.84 -5.97,11.42 -8.94,25.19 -8.94,41.42l0 106.34 -19.22 0 0 -199.78 18.39 0 0 43.23 2.59 -4.95c5.7,-10.9 14.47,-19.44 25.07,-26.18 14.09,-9.13 31.31,-13.58 51.69,-13.58l-0.02 -0.16z"/>
  </g>
 </g>
</svg>
