<?xml version="1.0" encoding="UTF-8"?>
<!DOCTYPE svg PUBLIC "-//W3C//DTD SVG 1.1//EN" "http://www.w3.org/Graphics/SVG/1.1/DTD/svg11.dtd">
<!-- Creator: CorelDRAW 2020 (64 Bit) -->
<svg xmlns="http://www.w3.org/2000/svg" xml:space="preserve" width="33.0674mm" height="15.2309mm" version="1.1" style="shape-rendering:geometricPrecision; text-rendering:geometricPrecision; image-rendering:optimizeQuality; fill-rule:evenodd; clip-rule:evenodd"
viewBox="0 0 167.6 77.2"
 xmlns:xlink="http://www.w3.org/1999/xlink"
 xmlns:xodm="http://www.corel.com/coreldraw/odm/2003">
 <defs>
  <style type="text/css">
   <![CDATA[
    .fil0 {fill:#A8518A;fill-rule:nonzero}
   ]]>
  </style>
 </defs>
 <g id="Camada_x0020_1">
  <metadata id="CorelCorpID_0Corel-Layer"/>
  <g id="_1878994642336">
   <g>
    <path class="fil0" d="M166.61 1.98l-165.62 0 0 -1.98 165.62 0 0.99 0.99 -0.99 0.99zm0 -1.98l0.99 0 0 0.99 -0.99 -0.99zm-0.99 6.64l0 -5.65 1.98 0 0 5.65 -0.99 0.99 -0.99 -0.99zm1.98 0l0 0.99 -0.99 0 0.99 -0.99zm-166.61 -0.99l165.62 0 0 1.98 -165.62 0 -0.99 -0.99 0.99 -0.99zm0 1.98l-0.99 0 0 -0.99 0.99 0.99zm0.99 -6.64l0 5.65 -1.98 0 0 -5.65 0.99 -0.99 0.99 0.99zm-1.98 0l0 -0.99 0.99 0 -0.99 0.99z"/>
   </g>
   <g>
    <path class="fil0" d="M162.37 14.47l0.99 0.99 -0.99 0.99 -157.15 0 0 -1.99 157.15 0zm0.99 0.99l0 0.99 -0.99 0 0.99 -0.99zm-1.98 -8.83l0.99 -0.99 0.99 0.99 0 8.83 -1.98 0 0 -8.83zm0.99 -0.99l0.99 0 0 0.99 -0.99 -0.99zm-157.15 1.99l-0.99 -0.99 0.99 -0.99 157.15 0 0 1.99 -157.15 0zm-0.99 -0.99l0 -0.99 0.99 0 -0.99 0.99zm1.98 8.83l-0.99 0.99 -0.99 -0.99 0 -8.83 1.98 0 0 8.83zm-0.99 0.99l-0.99 0 0 -0.99 0.99 0.99z"/>
   </g>
   <g>
    <path class="fil0" d="M59.43 16.49l-41.23 0 0 -2.05 41.23 0 0.99 1.02 -0.99 1.02zm0 -2.05l0.99 0 0 1.02 -0.99 -1.02zm-0.99 19.21l0 -18.19 1.98 0 0 18.19 -0.99 1.02 -0.99 -1.02zm1.98 0l0 1.02 -0.99 0 0.99 -1.02zm-42.22 -1.02l41.23 0 0 2.05 -41.23 0 -0.99 -1.02 0.99 -1.02zm0 2.05l-0.99 0 0 -1.02 0.99 1.02zm0.99 -19.21l0 18.19 -1.98 0 0 -18.19 0.99 -1.02 0.99 1.02zm-1.98 0l0 -1.02 0.99 0 -0.99 1.02z"/>
   </g>
   <g>
    <path class="fil0" d="M59.43 50.82l0.99 1.02 -0.99 1.02 -41.23 0 0 -2.05 41.23 0zm0.99 1.02l0 1.02 -0.99 0 0.99 -1.02zm-1.98 -18.19l0.99 -1.02 0.99 1.02 0 18.19 -1.98 0 0 -18.19zm0.99 -1.02l0.99 0 0 1.02 -0.99 -1.02zm-41.23 2.05l-0.99 -1.02 0.99 -1.02 41.23 0 0 2.05 -41.23 0zm-0.99 -1.02l0 -1.02 0.99 0 -0.99 1.02zm1.98 18.19l-0.99 1.02 -0.99 -1.02 0 -18.19 1.98 0 0 18.19zm-0.99 1.02l-0.99 0 0 -1.02 0.99 1.02z"/>
   </g>
   <g>
    <path class="fil0" d="M59.43 52.86l-41.23 0 0 -2.05 41.23 0 0.99 1.02 -0.99 1.02zm0 -2.05l0.99 0 0 1.02 -0.99 -1.02zm-0.99 19.21l0 -18.19 1.98 0 0 18.19 -0.99 1.02 -0.99 -1.02zm1.98 0l0 1.02 -0.99 0 0.99 -1.02zm-42.22 -1.02l41.23 0 0 2.05 -41.23 0 -0.99 -1.02 0.99 -1.02zm0 2.05l-0.99 0 0 -1.02 0.99 1.02zm0.99 -19.21l0 18.19 -1.98 0 0 -18.19 0.99 -1.02 0.99 1.02zm-1.98 0l0 -1.02 0.99 0 -0.99 1.02z"/>
   </g>
   <g>
    <path class="fil0" d="M59.43 16.41l-0.99 -0.94 0.99 -0.94 89.96 0 0 1.89 -89.96 0zm-0.99 -0.94l0 -0.94 0.99 0 -0.99 0.94zm1.98 32.49l-0.99 0.94 -0.99 -0.94 0 -32.49 1.98 0 0 32.49zm-0.99 0.94l-0.99 0 0 -0.94 0.99 0.94zm89.96 -1.89l0.99 0.94 -0.99 0.94 -89.96 0 0 -1.89 89.96 0zm0.99 0.94l0 0.94 -0.99 0 0.99 -0.94zm-1.98 -32.49l0.99 -0.94 0.99 0.94 0 32.49 -1.98 0 0 -32.49zm0.99 -0.94l0.99 0 0 0.94 -0.99 -0.94z"/>
   </g>
   <g>
    <polygon class="fil0" points="47.07,25.55 30.65,25.55 30.65,23.57 47.07,23.57 "/>
   </g>
   <g>
    <polygon class="fil0" points="47.07,43.74 30.65,43.74 30.65,41.76 47.07,41.76 "/>
   </g>
   <g>
    <polygon class="fil0" points="47.07,61.92 30.65,61.92 30.65,59.94 47.07,59.94 "/>
   </g>
   <g>
    <path class="fil0" d="M18.2 16.46l-5.12 0 0 -1.98 5.12 0 0.99 0.99 -0.99 0.99zm0 -1.98l0.99 0 0 0.99 -0.99 -0.99zm-0.99 61.73l0 -60.74 1.98 0 0 60.74 -0.99 0.99 -0.99 -0.99zm1.98 0l0 0.99 -0.99 0 0.99 -0.99zm-6.11 -0.99l5.12 0 0 1.98 -5.12 0 -0.99 -0.99 0.99 -0.99zm0 1.98l-0.99 0 0 -0.99 0.99 0.99zm0.99 -61.73l0 60.74 -1.98 0 0 -60.74 0.99 -0.99 0.99 0.99zm-1.98 0l0 -0.99 0.99 0 -0.99 0.99z"/>
   </g>
   <g>
    <path class="fil0" d="M154.52 16.46l-5.12 0 0 -1.98 5.12 0 0.99 0.99 -0.99 0.99zm0 -1.98l0.99 0 0 0.99 -0.99 -0.99zm-0.99 61.73l0 -60.74 1.98 0 0 60.74 -0.99 0.99 -0.99 -0.99zm1.98 0l0 0.99 -0.99 0 0.99 -0.99zm-6.11 -0.99l5.12 0 0 1.98 -5.12 0 -0.99 -0.99 0.99 -0.99zm0 1.98l-0.99 0 0 -0.99 0.99 0.99zm0.99 -61.73l0 60.74 -1.98 0 0 -60.74 0.99 -0.99 0.99 0.99zm-1.98 0l0 -0.99 0.99 0 -0.99 0.99z"/>
   </g>
  </g>
 </g>
</svg>
