<?xml version="1.0" encoding="UTF-8"?>
<!DOCTYPE svg PUBLIC "-//W3C//DTD SVG 1.1//EN" "http://www.w3.org/Graphics/SVG/1.1/DTD/svg11.dtd">
<!-- Creator: CorelDRAW 2020 (64 Bit) -->
<svg xmlns="http://www.w3.org/2000/svg" xml:space="preserve" width="32.834mm" height="21.3065mm" version="1.1" style="shape-rendering:geometricPrecision; text-rendering:geometricPrecision; image-rendering:optimizeQuality; fill-rule:evenodd; clip-rule:evenodd"
viewBox="0 0 165.69 107.52"
 xmlns:xlink="http://www.w3.org/1999/xlink"
 xmlns:xodm="http://www.corel.com/coreldraw/odm/2003">
 <defs>
  <style type="text/css">
   <![CDATA[
    .fil0 {fill:#A8518A;fill-rule:nonzero}
   ]]>
  </style>
 </defs>
 <g id="Camada_x0020_1">
  <metadata id="CorelCorpID_0Corel-Layer"/>
  <g id="_1878988821680">
   <g>
    <path class="fil0" d="M152.53 2.05l-139.37 0 0 -2.05 139.37 0 1.03 1.03 -1.03 1.03zm0 -2.05l1.03 0 0 1.03 -1.03 -1.03zm-1.03 98.95l0 -97.92 2.05 0 0 97.92 -1.03 1.03 -1.03 -1.03zm2.05 0l0 1.03 -1.03 0 1.03 -1.03zm-140.4 -1.03l139.37 0 0 2.05 -139.37 0 -1.03 -1.03 1.03 -1.03zm0 2.05l-1.03 0 0 -1.03 1.03 1.03zm1.03 -98.95l0 97.92 -2.05 0 0 -97.92 1.03 -1.03 1.03 1.03zm-2.05 0l0 -1.03 1.03 0 -1.03 1.03z"/>
   </g>
   <g>
    <path class="fil0" d="M145.82 8.55l-125.96 0 0 -2.05 125.96 0 1.03 1.03 -1.03 1.03zm0 -2.05l1.03 0 0 1.03 -1.03 -1.03zm-1.03 85.95l0 -84.92 2.05 0 0 84.92 -1.03 1.03 -1.03 -1.03zm2.05 0l0 1.03 -1.03 0 1.03 -1.03zm-126.99 -1.03l125.96 0 0 2.05 -125.96 0 -1.03 -1.03 1.03 -1.03zm0 2.05l-1.03 0 0 -1.03 1.03 1.03zm1.03 -85.95l0 84.92 -2.05 0 0 -84.92 1.03 -1.03 1.03 1.03zm-2.05 0l0 -1.03 1.03 0 -1.03 1.03z"/>
   </g>
   <g>
    <path class="fil0" d="M63.14 56.5l-13.81 0 0 -2.05 13.81 0 1.03 1.03 -1.03 1.03zm0 -2.05l1.03 0 0 1.03 -1.03 -1.03zm-1.03 10.78l0 -9.75 2.05 0 0 9.75 -1.03 1.03 -1.03 -1.03zm2.05 0l0 1.03 -1.03 0 1.03 -1.03zm-14.84 -1.03l13.81 0 0 2.05 -13.81 0 -1.03 -1.03 1.03 -1.03zm0 2.05l-1.03 0 0 -1.03 1.03 1.03zm1.03 -10.78l0 9.75 -2.05 0 0 -9.75 1.03 -1.03 1.03 1.03zm-2.05 0l0 -1.03 1.03 0 -1.03 1.03z"/>
   </g>
   <g>
    <path class="fil0" d="M40.98 77.42l0 -29.33 2.05 0 0 29.33 -1.03 1.03 -1.03 -1.03zm1.03 1.03l-1.03 0 0 -1.03 1.03 1.03zm82.08 0l-82.08 0 0 -2.05 82.08 0 1.03 1.03 -1.03 1.03zm1.03 -1.03l0 1.03 -1.03 0 1.03 -1.03zm0 -29.33l0 29.33 -2.05 0 0 -29.33 2.05 0z"/>
   </g>
   <g>
    <path class="fil0" d="M65.65 49.15l-30.62 -0.08 0.01 -2.05 30.62 0.08 0.84 1.61 -0.85 0.44zm0.85 -0.44l-0.31 0.45 -0.54 -0 0.85 -0.44zm13.97 -20.27l-13.97 20.27 -1.69 -1.16 13.97 -20.27 0.85 -0.44 0.84 1.61zm-0.84 -1.61l1.95 0.01 -1.1 1.6 -0.84 -1.61zm-36.84 -0.1l36.84 0.1 -0.01 2.05 -36.84 -0.1 -0.96 -1.39 0.96 -0.66zm-0.96 0.66l0.25 -0.66 0.71 0 -0.96 0.66zm-7.75 20.29l7.75 -20.29 1.92 0.73 -7.75 20.29 -0.96 0.66 -0.96 -1.39zm0.96 1.39l-1.49 -0 0.53 -1.39 0.96 1.39z"/>
   </g>
   <g>
    <path class="fil0" d="M83.97 23.35l-17.47 25.36 -1.69 -1.16 17.47 -25.36 1.69 -0.01 0.01 1.17zm-1.69 -1.16l0.84 -1.22 0.85 1.21 -1.69 0.01zm17.82 26.53l-17.81 -25.36 1.68 -1.18 17.81 25.36 -1.68 1.18z"/>
   </g>
   <g>
    <path class="fil0" d="M100.68 49.15l-0.85 -0.44 0.84 -1.61 30.62 -0.08 0.01 2.05 -30.62 0.08zm0 0l-0.54 0 -0.31 -0.45 0.85 0.44zm-14.82 -20.72l0.84 -1.61 0.85 0.44 13.97 20.27 -1.69 1.16 -13.97 -20.27zm0 0l-1.1 -1.6 1.95 -0.01 -0.84 1.61zm37.68 -1.71l0.96 0.66 -0.96 1.39 -36.84 0.1 -0.01 -2.05 36.84 -0.1zm0 0l0.71 -0 0.25 0.66 -0.96 -0.66zm8.71 20.95l-0.96 1.39 -0.96 -0.66 -7.75 -20.29 1.92 -0.73 7.75 20.29zm0 0l0.53 1.39 -1.49 0 0.96 -1.39z"/>
   </g>
   <g>
    <path class="fil0" d="M116.77 56.5l-13.81 0 0 -2.05 13.81 0 1.03 1.03 -1.03 1.03zm0 -2.05l1.03 0 0 1.03 -1.03 -1.03zm-1.03 10.78l0 -9.75 2.05 0 0 9.75 -1.03 1.03 -1.03 -1.03zm2.05 0l0 1.03 -1.03 0 1.03 -1.03zm-14.84 -1.03l13.81 0 0 2.05 -13.81 0 -1.03 -1.03 1.03 -1.03zm0 2.05l-1.03 0 0 -1.03 1.03 1.03zm1.03 -10.78l0 9.75 -2.05 0 0 -9.75 1.03 -1.03 1.03 1.03zm-2.05 0l0 -1.03 1.03 0 -1.03 1.03z"/>
   </g>
   <g>
    <path class="fil0" d="M89.55 56.49l-13.81 0 0 -2.03 13.81 0 1.03 1.02 -1.03 1.02zm0 -2.03l1.03 0 0 1.02 -1.03 -1.02zm-1.03 22.96l0 -21.94 2.05 0 0 21.94 -1.03 1.02 -1.03 -1.02zm2.05 0l0 1.02 -1.03 0 1.03 -1.02zm-14.84 -1.02l13.81 0 0 2.03 -13.81 0 -1.03 -1.02 1.03 -1.02zm0 2.03l-1.03 0 0 -1.02 1.03 1.02zm1.03 -22.96l0 21.94 -2.05 0 0 -21.94 1.03 -1.02 1.03 1.02zm-2.05 0l0 -1.02 1.03 0 -1.03 1.02z"/>
   </g>
   <g>
    <path class="fil0" d="M87.31 40.24l-9.35 0 0 -2.04 9.35 0 1.03 1.02 -1.03 1.02zm0 -2.04l1.03 0 0 1.02 -1.03 -1.02zm-1.03 9.56l0 -8.53 2.05 0 0 8.53 -1.03 1.02 -1.03 -1.02zm2.05 0l0 1.02 -1.03 0 1.03 -1.02zm-10.37 -1.02l9.35 0 0 2.04 -9.35 0 -1.03 -1.02 1.03 -1.02zm0 2.04l-1.03 0 0 -1.02 1.03 1.02zm1.03 -9.56l0 8.53 -2.05 0 0 -8.53 1.03 -1.02 1.03 1.02zm-2.05 0l0 -1.02 1.03 0 -1.03 1.02z"/>
   </g>
   <g>
    <path class="fil0" d="M94.01 77.42l0 -37.18 2.05 0 0 37.18 -1.03 1.03 -1.03 -1.03zm2.05 0l0 1.03 -1.03 0 1.03 -1.03zm-25.81 -1.03l24.79 0 0 2.05 -24.79 0 -1.03 -1.03 1.03 -1.03zm0 2.05l-1.03 0 0 -1.03 1.03 1.03zm1.03 -38.21l0 37.18 -2.05 0 0 -37.18 2.05 0z"/>
   </g>
   <g>
    <path class="fil0" d="M164.59 105.46l1.1 1.03 -1.1 1.03 -163.5 0 0 -2.05 163.5 0zm1.1 1.03l0 1.03 -1.1 0 1.1 -1.03zm-2.19 -7.54l1.1 -1.03 1.1 1.03 0 7.54 -2.19 0 0 -7.54zm1.1 -1.03l1.1 0 0 1.03 -1.1 -1.03zm-163.5 2.05l-1.1 -1.03 1.1 -1.03 163.5 0 0 2.05 -163.5 0zm-1.1 -1.03l0 -1.03 1.1 0 -1.1 1.03zm2.19 7.54l-1.1 1.03 -1.1 -1.03 0 -7.54 2.19 0 0 7.54zm-1.1 1.03l-1.1 0 0 -1.03 1.1 1.03z"/>
   </g>
  </g>
 </g>
</svg>
